<?xml version="1.0" standalone="no"?>
<!DOCTYPE svg PUBLIC "-//W3C//DTD SVG 1.1//EN" "http://www.w3.org/Graphics/SVG/1.1/DTD/svg11.dtd" >
<svg xmlns="http://www.w3.org/2000/svg">
<metadata>
Created by FontPrep 20130207 at Wed Mar  9 23:03:05 2016
 By Romain Gazielly
Copyright (c) 2012, Pablo Impallari (www.impallari.com|impallari@gmail.com), Copyright (c) 2012, Rodrigo Fuenzalida (www.rfuenzalida.com|hello@rfuenzalida.com), with Reserved Font Name Libre Baskerville.
</metadata>
<defs>
<font id="4355149723c66552092252d98830bbee" horiz-adv-x='1024' >
  <font-face 
    font-family="LibreBaskerville-Regular"
    font-weight="400"
    font-stretch="normal"
    units-per-em="2048"
    panose-1="2 0 0 0 0 0 0 0 0 0"
    ascent="1638"
    descent="-410"
    x-height="1085"
    cap-height="1577"
    bbox="-573 -532.005 3289 1987"
    underline-thickness="102"
    underline-position="-102"
    unicode-range="U+0020-FB06"
  />
<missing-glyph horiz-adv-x="1548" 
d="M492 -408h563v2274h-563v-2274zM266 1987h1016v-2519h-1016v2519z" />
    <glyph glyph-name="f_f" unicode="ff" horiz-adv-x="1492" 
d="M930 1053v319q-35 20 -94 72q-60 51 -92.5 63.5t-71.5 12.5q-123 0 -176 -125q-33 -75 -33 -265v-77h467zM463 330q0 -152 29.5 -193t66.5 -52t96 -13v-72h-540v72q51 2 81.5 11t52 42t21.5 188v643h-231v97h231v65q4 236 126 368t352 132q86 0 151.5 -27.5t99.5 -60.5
q59 68 163 119t238 51t214 -39t80 -100q0 -41 -26 -69t-58 -28t-59 15.5t-75 55.5t-77 53.5t-68 13.5q-123 0 -176 -125q-33 -75 -33 -265v-159h330v-97h-330v-626q0 -150 30 -192t66.5 -53t96.5 -13v-72h-541v72q51 2 82 11t52.5 42t21.5 188v643h-467v-626z" />
    <glyph glyph-name="f_i" unicode="fi" horiz-adv-x="1333" 
d="M1120 332q0 -157 22.5 -196.5t51.5 -49.5t76 -10v-76h-527v76q113 0 145 46.5t32 192.5v258q0 229 -12 289t-49.5 77t-139.5 17h-256v-626q0 -155 34.5 -206.5t137.5 -51.5v-72h-520v72q51 0 81.5 8t52 42.5t21.5 190.5v643h-231v97h231v147q0 236 135.5 368t382.5 132
q145 0 236.5 -36t91.5 -93q0 -41 -25.5 -68.5t-68.5 -27.5t-129 61q-69 44 -99 55t-87 11q-129 0 -186.5 -81.5t-57.5 -308.5v-159h328l329 53v-774z" />
    <glyph glyph-name="f_l" unicode="fl" horiz-adv-x="1388" 
d="M752 1700q140 0 223 -47l176 47v-1381q0 -158 26.5 -193.5t61.5 -44.5t94 -9v-72h-545v72q108 0 140.5 44.5t32.5 188.5v1151l-46 39q-72 63 -121 85t-135.5 22t-138 -80.5t-51.5 -309.5v-159h330v-97h-330v-626q0 -152 39.5 -205t153.5 -53v-72h-562v72q57 0 92 8
t59.5 43t24.5 190v643h-231v97h231v147q0 236 124 368t352 132z" />
    <glyph glyph-name="f_f_i" unicode="ffi" horiz-adv-x="1992" 
d="M930 1053v319q-54 39 -104 81t-82.5 54.5t-76.5 12.5q-101 0 -152.5 -85.5t-51.5 -304.5v-77h467zM1448 1700q145 0 236.5 -36t91.5 -93q0 -41 -26 -68.5t-69 -27.5t-129 61q-70 45 -99 55.5t-86 10.5q-129 0 -187 -81.5t-58 -308.5v-159h328l330 53v-774
q0 -160 22.5 -198t51 -48t75.5 -10v-76h-526v76q111 0 143.5 45.5t32.5 193.5v258q0 234 -12 291t-49 74.5t-140 17.5h-256v-657q0 -131 39 -179t154 -48v-72h-541v72q97 0 126.5 44.5t29.5 196.5v643h-467v-626q0 -154 38.5 -206t153.5 -52v-72h-540v72q53 0 83.5 8t51 41
t20.5 192v643h-231v97h231v65q0 236 124 368t354 132q153 0 268 -107q145 189 432 189z" />
    <glyph glyph-name="f_f_l" unicode="ffl" horiz-adv-x="2041" 
d="M930 1053v319q-35 20 -94 72q-60 51 -92.5 63.5t-71.5 12.5q-123 0 -176 -125q-33 -75 -33 -265v-77h467zM1405 1700q140 0 223 -47l176 47v-1381q0 -154 25.5 -189.5t61.5 -45.5t96 -12v-72h-545v72q108 4 140 46.5t32 186.5v1151l-45 39q-72 63 -121 85t-115 22
q-195 0 -203 -166t-8 -224v-159h330v-97h-330v-626q0 -150 30 -192t66.5 -53t96.5 -13v-72h-561v72q57 2 92 11t59.5 43t24.5 187v643h-467v-626q0 -152 29.5 -193t66.5 -52t96 -13v-72h-540v72q51 2 81.5 11t52 42t21.5 188v643h-231v97h231v65q4 236 126 368t352 132
q174 0 264 -105q134 187 393 187z" />
    <glyph glyph-name="f_b" unicode="fb" horiz-adv-x="2113" 
d="M1161 428q0 -155 85.5 -253.5t223.5 -98.5t226 127t88 334t-91.5 340t-234.5 133t-220 -99.5t-77 -300.5v-182zM752 1700q140 0 223 -47l182 47v-760h8q127 166 338 166t361.5 -162t150.5 -401t-151.5 -402.5t-376.5 -163.5q-117 0 -218.5 43t-166.5 117l-96 -137h-45
v1456l-46 39q-72 63 -121 85t-135.5 22t-138 -80.5t-51.5 -309.5v-159h330v-97h-330v-626q0 -154 38.5 -206t154.5 -52v-72h-562v72q59 0 94 8t58.5 41.5t23.5 191.5v643h-231v97h231v147q0 236 124 368t352 132z" />
    <glyph glyph-name="f_h" unicode="fh" horiz-adv-x="2144" 
d="M752 1700q140 0 223 -47l176 47l-6 -8l12 8v-780h8q93 123 219.5 154.5t201.5 31.5t154 -33t118 -84t55 -128t16 -208v-327q0 -84 4 -134.5t21.5 -77t50.5 -34.5t92 -8v-72h-543v72q57 0 92 8t57.5 41t22.5 190v258q0 229 -53 326.5t-178 97.5q-96 0 -183 -54t-119 -135
t-32 -216v-262q0 -169 21.5 -203.5t55.5 -42.5t91 -8v-72h-545v72q57 0 92 8t60 42.5t25 188.5v1145l-46 39q-72 63 -121 85t-135.5 22t-138 -80.5t-51.5 -309.5v-159h330v-97h-330v-626q0 -154 38.5 -206t154.5 -52v-72h-562v72q57 0 92 8t59.5 43t24.5 190v643h-231v97
h231v147q0 236 124 368t352 132z" />
    <glyph glyph-name="f_f_b" unicode="ffb" horiz-adv-x="2764" 
d="M930 1053v319q-35 20 -94 72q-60 51 -92.5 63.5t-76.5 12.5q-101 0 -152.5 -85.5t-51.5 -304.5v-77h467zM1812 428q0 -153 85.5 -252.5t223.5 -99.5t226 127t88 334t-91.5 340t-234.5 133t-220 -99.5t-77 -300.5v-182zM1405 1700q140 0 223 -47l180 47v-760h9
q127 166 338 166q210 0 360.5 -161.5t150.5 -401.5q0 -241 -151.5 -403.5t-376.5 -162.5q-117 0 -218 43t-167 117l-96 -137h-45v1458l-43 37q-72 63 -121 85t-136 22t-138.5 -80.5t-51.5 -309.5v-159h330v-97h-330v-626q0 -150 30 -192t66.5 -53t96.5 -13v-72h-561v72
q57 0 92 8t59.5 43t24.5 190v643h-467v-626q0 -154 38.5 -206t153.5 -52v-72h-540v72q51 0 81.5 8t52 42.5t21.5 190.5v643h-231v97h231v65q0 236 124 368t354 132q174 0 264 -105q134 187 393 187z" />
    <glyph glyph-name="f_f_h" unicode="ffh" horiz-adv-x="2797" 
d="M930 1053v319q-35 20 -94 72q-60 51 -92.5 63.5t-71.5 12.5q-123 0 -176 -125q-33 -75 -33 -265v-77h467zM1405 1700q140 0 223 -47l176 47l-6 -8l12 8v-780h9q59 79 175.5 132.5t217.5 53.5q102 0 181 -33t118 -84t55.5 -128t16.5 -208v-327q0 -84 4 -132.5t21.5 -75
t50 -34.5t91.5 -12v-72h-542v72q116 4 144 43.5t28 195.5v258q0 229 -53.5 326.5t-178.5 97.5q-96 0 -184.5 -55t-118.5 -136t-30 -214v-262q0 -84 4 -133.5t21.5 -75t50 -33.5t91.5 -12v-72h-544v72q59 4 94 12t58.5 39t23.5 188v1145l-45 39q-72 63 -121 85t-115 22
q-195 0 -203 -166t-8 -224v-159h330v-97h-330v-626q0 -150 30 -192t66.5 -53t96.5 -13v-72h-561v72q57 2 92 11t59.5 43t24.5 187v643h-467v-626q0 -152 29.5 -193t66.5 -52t96 -13v-72h-540v72q51 2 81.5 11t52 42t21.5 188v643h-231v97h231v65q4 236 126 368t352 132
q174 0 264 -105q134 187 393 187z" />
    <glyph glyph-name="f_j" unicode="fj" horiz-adv-x="1306" 
d="M1120 -4q0 -256 -107.5 -392t-312.5 -136q-131 0 -214 52t-83 138q0 47 28 71.5t71 24.5t62.5 -17.5t49.5 -78.5t54 -81.5t75 -20.5q98 0 137.5 67.5t39.5 237.5v712q0 231 -12 289t-49.5 76t-139.5 18h-256v-626q0 -155 34.5 -206.5t137.5 -51.5v-72h-520v72
q51 0 81.5 8t52 42.5t21.5 190.5v643h-231v97h231v147q0 236 135.5 368t382.5 132q145 0 236.5 -36t91.5 -93q0 -41 -25.5 -68.5t-68.5 -27.5t-129 61q-69 44 -99 55t-87 11q-129 0 -186.5 -81.5t-57.5 -308.5v-161h328l329 55v-1110z" />
    <glyph glyph-name="f_f_j" unicode="ffj" horiz-adv-x="1966" 
d="M930 1053v319q-35 20 -94 72q-60 51 -92.5 63.5t-76.5 12.5q-101 0 -152.5 -85.5t-51.5 -304.5v-77h467zM1448 1700q145 0 236.5 -36t91.5 -93q0 -41 -26 -68.5t-69 -27.5t-129 61q-70 45 -99 55.5t-86 10.5q-129 0 -187 -81.5t-58 -308.5v-161h328l330 55v-1110
q0 -256 -107.5 -392t-312.5 -136q-131 0 -214 52t-83 138q0 96 104 96q37 0 59.5 -22.5t49.5 -78.5t51.5 -76.5t75.5 -20.5q98 0 137 67.5t39 237.5v712q0 236 -12 292t-49 73.5t-140 17.5h-256v-657q0 -132 40.5 -179.5t152.5 -47.5v-72h-541v72q97 0 126.5 44.5
t29.5 196.5v643h-467v-626q0 -154 38.5 -206t153.5 -52v-72h-540v72q51 0 81.5 8t52 42.5t21.5 190.5v643h-231v97h231v65q0 236 124 368t354 132q153 0 268 -107q145 189 432 189z" />
    <glyph glyph-name="f_k" unicode="fk" horiz-adv-x="1988" 
d="M752 1700q140 0 223 -47l178 47v-1125l190 187q147 142 163 169t16 38q0 25 -34 35t-128 10v71h532v-71q-80 0 -123.5 -21.5t-117.5 -87.5l-295 -262l405 -459q55 -67 101 -89.5t116 -22.5v-72h-538v72q72 0 93 5t21 26t-36.5 65.5t-71.5 87.5l-217 262l-76 -72v-120
q0 -159 33.5 -206.5t156.5 -47.5v-72h-581v72q121 0 158.5 46.5t37.5 192.5v1147l-43 37q-72 64 -119.5 85.5t-106.5 21.5q-117 0 -168.5 -80.5t-51.5 -309.5v-159h330v-97h-330v-626q0 -154 38.5 -206t154.5 -52v-72h-562v72q57 0 92 8t59.5 43t24.5 190v643h-231v97h231
v147q0 236 124 368t352 132z" />
    <glyph glyph-name="f_f_k" unicode="ffk" horiz-adv-x="2643" 
d="M930 1053v319q-35 20 -94 72q-60 51 -92.5 63.5t-76.5 12.5q-101 0 -152.5 -85.5t-51.5 -304.5v-77h467zM1405 1700q140 0 223 -47l180 47v-1125l191 187q160 155 171 178t11 33q0 16 -39 28.5t-127 12.5v71h533v-71q-77 0 -121.5 -20.5t-120.5 -88.5l-295 -262l406 -459
q57 -66 104 -89t113 -23v-72h-539v72q119 0 119 23t-39 70.5t-74 90.5l-217 262l-76 -72v-120q0 -159 35.5 -206.5t155.5 -47.5v-72h-582v72q121 0 159 47t38 192v1145l-45 39q-72 63 -121 85t-136 22t-138.5 -80.5t-51.5 -309.5v-159h330v-97h-330v-626q0 -153 39 -205.5
t154 -52.5v-72h-561v72q57 0 92 8t59.5 43t24.5 190v643h-467v-626q0 -154 38.5 -206t153.5 -52v-72h-540v72q51 0 81.5 8t52 42.5t21.5 190.5v643h-231v97h231v65q0 236 124 368t354 132q174 0 264 -105q134 187 393 187z" />
    <glyph glyph-name="f_t" unicode="ft" horiz-adv-x="1560" 
d="M991 229v727h-522v-626q0 -154 43 -206t170 -52v-72h-582v72q59 0 94 8t58.5 41.5t23.5 191.5v643h-231v97h231v147q0 236 124 368t354 132q127 0 206.5 -39t79.5 -100q0 -41 -25.5 -69t-57.5 -28t-60.5 15.5t-75.5 55.5t-75.5 53.5t-72.5 13.5q-101 0 -152.5 -85.5
t-51.5 -304.5v-159h358q89 0 177.5 77t128.5 181h59v-258h274v-97h-274v-622q0 -145 23.5 -187.5t50 -54.5t72.5 -12q88 0 153 94l51 -39q-59 -155 -274 -155q-135 0 -206 64.5t-71 184.5z" />
    <glyph glyph-name="f_f_t" unicode="fft" horiz-adv-x="2164" 
d="M930 1053v319q-35 20 -94 72q-60 51 -92.5 63.5t-71.5 12.5q-123 0 -176 -125q-33 -75 -33 -265v-77h467zM1595 229v727h-473v-626q0 -150 30 -192t66.5 -53t96.5 -13v-72h-541v72q51 2 82 11t52.5 42t21.5 188v643h-467v-626q0 -152 29.5 -193t66.5 -52t96 -13v-72h-540
v72q51 2 81.5 11t52 42t21.5 188v643h-231v97h231v65q4 236 126 368t352 132q86 0 151.5 -27.5t99.5 -60.5q59 68 163 119t238 51t214 -39t80 -100q0 -41 -26 -69t-58 -28t-59 15.5t-75 55.5t-77 53.5t-68 13.5q-123 0 -176 -125q-33 -75 -33 -265v-159h310q88 0 176.5 77
t128.5 181h59v-258h275v-97h-275v-622q0 -145 23.5 -187.5t50 -54.5t72.5 -12q88 0 153 94l51 -39q-59 -155 -274 -155q-135 0 -206 64.5t-71 184.5z" />
    <glyph glyph-name=".notdef" horiz-adv-x="1548" 
d="M492 -408h563v2274h-563v-2274zM266 1987h1016v-2519h-1016v2519z" />
    <glyph glyph-name=".null" horiz-adv-x="0" 
 />
    <glyph glyph-name="nonmarkingreturn" horiz-adv-x="681" 
 />
    <glyph glyph-name="space" unicode=" " horiz-adv-x="587" 
 />
    <glyph glyph-name="exclam" unicode="!" horiz-adv-x="630" 
d="M266 424q0 436 -21 570t-38 234.5t-21 137t-4 94.5q0 57 36 97t97.5 40t97.5 -39.5t36 -81.5l1 -65q0 -65 -22 -178q-40 -210 -51.5 -369.5t-11.5 -439.5h-99zM182 114q0 56 39 95t95 39t95.5 -39t39.5 -95t-39.5 -95t-95.5 -39t-95 39t-39 95z" />
    <glyph glyph-name="quotedbl" unicode="&#x22;" horiz-adv-x="751" 
d="M434 1608q0 34 27.5 63t68.5 29t69 -29t28 -64t-7.5 -86t-17.5 -112t-21.5 -129t-19.5 -125h-59q-10 74 -31.5 197t-29 172.5t-7.5 83.5zM123 1608q0 34 27.5 63t68.5 29t68.5 -29t27.5 -64t-7 -86t-17 -112t-21.5 -129t-19.5 -125h-60q-17 122 -35 221t-25 148.5
t-7 83.5z" />
    <glyph glyph-name="numbersign" unicode="#" horiz-adv-x="1363" 
d="M559 973l-49 -348h309l47 348h-307zM1208 522h-284l-76 -522h-121l72 522h-310l-77 -522h-123l78 522h-287l16 103h291l49 348h-293l17 102h295l71 502h123l-71 -502h309l69 502h123l-69 -502h274l-16 -102h-277l-47 -348h281z" />
    <glyph glyph-name="dollar" unicode="$" horiz-adv-x="1273" 
d="M360 1270q0 -90 54.5 -160t175.5 -129v514q-106 -16 -168 -75.5t-62 -149.5zM971 346q0 157 -106.5 218t-162.5 85v-561q135 16 202 85t67 173zM702 1843v-250q176 -16 301 -108t125 -207q0 -53 -28.5 -82t-75.5 -29t-68.5 22.5t-34 56.5t-37 133.5t-182.5 117.5v-565
q268 -117 375 -226t107 -262q0 -192 -133.5 -318t-348.5 -142v-332h-112v330q-208 8 -360 109.5t-152 252.5q0 70 30.5 98.5t69.5 28.5t62.5 -23.5t38 -57.5t22.5 -70.5t15 -65.5q17 -69 80.5 -117.5t193.5 -52.5v614q-78 33 -250 116.5t-172 348.5q0 186 115 303t307 129
v248h112z" />
    <glyph glyph-name="percent" unicode="%" horiz-adv-x="1374" 
d="M997.5 31q92.5 0 92.5 227q0 262 -47.5 289.5t-94 27.5t-77.5 -62t-31 -217t32.5 -210t125 -55zM1206 300q0 -134 -70.5 -227t-171 -93t-171 93.5t-70.5 226.5q0 134 71 230.5t170.5 96.5t170.5 -96.5t71 -230.5zM442.5 1001q92.5 0 92.5 228q0 262 -47.5 289.5t-94 27.5
t-77.5 -62t-31 -217t32.5 -210.5t125 -55.5zM409.5 1597q99.5 0 170.5 -96t71 -230t-70.5 -227.5t-171 -93.5t-171 93.5t-70.5 227.5t71 230t170.5 96zM188 0h-116l1132 1577h99z" />
    <glyph glyph-name="ampersand" unicode="&#x26;" horiz-adv-x="1798" 
d="M1327 823q0 33 -29.5 47.5t-95.5 14.5v71h471v-71q-86 0 -134 -23.5t-87 -85.5l-291 -426q174 -237 365 -237q54 0 85.5 24.5t63.5 91.5l51 -14q-23 -115 -100.5 -175t-191.5 -60t-206 51.5t-212 173.5q-102 -106 -237 -165.5t-251 -59.5q-209 0 -331.5 102.5
t-122.5 250.5t110.5 266t354.5 237q-125 182 -125 360t98.5 289.5t247.5 111.5t239.5 -86.5t90.5 -209.5q0 -124 -75 -224t-247 -217l332 -432q227 283 227 395zM322 364q0 -110 73 -182.5t173 -72.5q198 0 384 163l-358 473q-129 -74 -200.5 -172.5t-71.5 -208.5zM899 1264
q0 96 -43 152.5t-115 56.5q-135 0 -135 -207q0 -180 105 -328q188 146 188 326z" />
    <glyph glyph-name="quotesingle" unicode="'" horiz-adv-x="440" 
d="M123 1608q0 34 27.5 63t68.5 29t68.5 -29t27.5 -64t-7 -86t-17 -112t-21.5 -129t-19.5 -125h-60q-17 122 -35 221t-25 148.5t-7 83.5z" />
    <glyph glyph-name="parenleft" unicode="(" horiz-adv-x="679" 
d="M592 -397q-496 484 -496 1051t479 1048l64 -57q-197 -266 -267.5 -467.5t-70.5 -512.5t83 -554t271 -451z" />
    <glyph glyph-name="parenright" unicode=")" horiz-adv-x="679" 
d="M104 1702q480 -480 480 -1049t-496 -1050l-63 57q278 307 316 586.5t38 433.5q0 296 -70 495.5t-268 469.5z" />
    <glyph glyph-name="asterisk" unicode="*" horiz-adv-x="1056" 
d="M616 798q0 -28 -26.5 -55.5t-66.5 -27.5t-65.5 29.5t-25.5 57.5t30 98.5t34 203.5q-117 -66 -161 -124t-59.5 -73.5t-53.5 -15.5t-65.5 27.5t-27.5 70.5t26.5 61.5t72.5 29t106.5 24.5t130.5 53q-118 68 -206.5 75.5t-107 41.5t-18.5 66t29.5 57.5t61.5 25.5t56.5 -21.5
t54.5 -53t68.5 -69.5t94.5 -69q0 127 -35 209q-27 43 -27 84t25.5 67.5t66.5 26.5t68 -26.5t27 -60.5t-30 -98q-30 -63 -34 -202q105 61 152 121t65 76t54 16t65 -26.5t29 -70.5t-20.5 -59.5t-62.5 -23.5t-104.5 -23.5t-144.5 -62.5q76 -45 138.5 -58.5t106.5 -21.5
t67.5 -25.5t23.5 -63.5t-30 -70.5t-61 -24.5q-61 0 -107 73t-173 138q0 -102 20.5 -166t29.5 -88t9 -52z" />
    <glyph glyph-name="plus" unicode="+" horiz-adv-x="1126" 
d="M510 213v428h-426v102h426v428h106v-428h426v-102h-426v-428h-106z" />
    <glyph glyph-name="comma" unicode="," horiz-adv-x="559" 
d="M238 0q-40 0 -70.5 34t-30.5 89t38 90t99 35q147 0 148 -205q0 -167 -99.5 -256.5t-175.5 -144.5l-47 65q111 78 158 149.5t47 159.5q-27 -16 -67 -16z" />
    <glyph glyph-name="hyphen" unicode="-" horiz-adv-x="948" 
d="M158 508v170h633v-170h-633z" />
    <glyph glyph-name="period" unicode="." horiz-adv-x="542" 
d="M137 114q0 56 39 95t95 39t95.5 -39t39.5 -95t-39 -95t-95 -39t-95.5 39t-39.5 95z" />
    <glyph glyph-name="slash" unicode="/" horiz-adv-x="942" 
d="M178 0h-119l723 1577h101z" />
    <glyph glyph-name="zero" unicode="0" horiz-adv-x="1462" 
d="M775.5 78q124.5 0 210 155t85.5 537q0 582 -130 655.5t-255.5 73.5t-210 -167.5t-84.5 -561.5q0 -559 130 -625.5t254.5 -66.5zM731 1597q125 0 235.5 -63.5t240.5 -238.5t130 -519q0 -166 -48 -311.5t-130 -253t-192.5 -169.5t-235.5 -62t-235.5 62t-192.5 169.5
t-130 253t-48 315.5t48 319.5t130 260t192.5 174t235.5 63.5z" />
    <glyph glyph-name="one" unicode="1" horiz-adv-x="913" 
d="M565 332q0 -157 30 -194.5t72 -47.5t111 -12v-78h-626v78q133 4 173 48.5t40 190.5v752q1 262 -9 303t-61 51.5t-154 10.5v77q194 8 424 86v-1265z" />
    <glyph glyph-name="two" unicode="2" horiz-adv-x="1261" 
d="M809 201q104 0 152.5 45.5t95.5 189.5h76l-78 -436h-953v68q459 412 583 592t156.5 285.5t32.5 213.5q0 160 -74.5 252t-200.5 92t-203 -80.5t-77 -198.5t60.5 -183.5t165.5 -65.5q-10 -49 -53.5 -79t-103.5 -30q-119 0 -193 86t-74 222q0 182 145.5 303.5t362.5 121.5
t354 -124t137 -320q0 -338 -285.5 -585.5t-435.5 -358.5l2 -10h408z" />
    <glyph glyph-name="three" unicode="3" horiz-adv-x="1261" 
d="M475 885q54 0 125 -23q111 0 177.5 98.5t66.5 262.5q0 287 -242 286q-109 0 -171 -49t-62 -127t41 -121t106 -43q-10 -35 -50 -56t-89 -21q-96 0 -154.5 64t-58.5 142q0 142 120.5 220.5t328.5 78.5t342.5 -99.5t134.5 -264.5q0 -132 -87.5 -239t-220.5 -140v-12
q155 -41 255 -153.5t100 -264.5q0 -190 -153.5 -317t-376.5 -127t-363 102.5t-140 259.5q0 109 68 184.5t168 75.5q57 0 102 -25.5t56 -64.5q-78 0 -127 -56.5t-49 -152.5t73.5 -161.5t204.5 -65.5t205 93t74 266t-69 266.5t-194 93.5q-72 -37 -125 -37t-79.5 19.5
t-26.5 49.5q0 58 90 58z" />
    <glyph glyph-name="four" unicode="4" horiz-adv-x="1198" 
d="M621 1198h-11l-471 -729h482v729zM821 1597v-1132q128 4 153 29.5t31.5 61.5t6.5 95h71v-456h-71q0 111 -25.5 137t-63.5 33.5t-102 9.5v-43q0 -157 23.5 -195.5t55.5 -48.5t83 -10v-78h-575v78q134 0 173.5 47t39.5 192v50h-584v102l721 1128h63z" />
    <glyph glyph-name="five" unicode="5" horiz-adv-x="1163" 
d="M788 634q0 312 -195 312q-99 0 -153.5 -46t-89.5 -148q-12 -37 -22.5 -47.5t-26.5 -10.5q-45 0 -45 41q0 10 2 17l219 845q90 -36 260 -36t252 38l12 -2q-25 -117 -107.5 -180t-211.5 -63h-180l-96 -367l4 -6q72 53 224 53q74 0 152 -35.5t167 -135.5t89 -302
q0 -245 -173.5 -413t-426.5 -168q-171 0 -284 78.5t-113 203.5q0 55 25.5 86t70.5 31t66.5 -22.5t34 -57.5t22.5 -75t42 -97t143 -57q240 0 289.5 208t49.5 356z" />
    <glyph glyph-name="six" unicode="6" horiz-adv-x="1316" 
d="M666 72q278 0 278 434t-258 434q-94 0 -165.5 -61.5t-139.5 -198.5v-100q0 -508 285 -508zM1042 140q-158 -160 -389 -160t-379.5 198t-148.5 512q0 186 51 351t139 289t207 195.5t260 71.5t243.5 -60t102.5 -148q0 -49 -29.5 -78t-84.5 -29t-81 35t-48.5 77t-57 76.5
t-109.5 34.5q-143 0 -238 -182t-95 -463l6 -4q66 96 142.5 140t181 44t192.5 -38.5t190.5 -146.5t102.5 -331q0 -224 -158 -384z" />
    <glyph glyph-name="seven" unicode="7" horiz-adv-x="1028" 
d="M283 1640q0 -40 30.5 -51.5t124.5 -11.5h600v-41q-68 -154 -120 -271.5t-94 -215t-76.5 -183.5t-70.5 -174t-74 -188.5t-79 -208.5q-72 -190 -117 -252.5t-92 -62.5t-72.5 27.5t-25.5 49.5t3 42t14.5 51.5t35 83t63.5 131t99.5 195.5t142.5 280l279 534h-381
q-160 0 -200 -22.5t-59 -55t-40 -90.5l-31 -80h-77l143 574h82q-8 -20 -8 -60z" />
    <glyph glyph-name="eight" unicode="8" horiz-adv-x="1241" 
d="M887 1225q0 118 -81 199t-199 81t-186.5 -65.5t-68.5 -159.5t59.5 -160.5t194.5 -138.5l96 -51q185 124 185 295zM1057 1235q0 -218 -269 -348q328 -174 328 -453q0 -193 -143.5 -323.5t-355.5 -130.5t-354 111t-142 278q0 256 344 422q-289 156 -289 397q0 170 131 295
q125 115 296 115t298 -87q156 -109 156 -276zM315 375q0 -139 83 -220t224.5 -81t224.5 78.5t83 212.5t-92.5 203t-163.5 110l-123 70q-236 -133 -236 -373z" />
    <glyph glyph-name="nine" unicode="9" horiz-adv-x="1316" 
d="M651 1505q-278 0 -278 -434t258 -434q94 0 165.5 61.5t139.5 198.5v100q0 508 -285 508zM275 1437q158 160 389 160t379.5 -198t148.5 -512q0 -186 -51 -351t-139.5 -289t-207 -195.5t-259.5 -71.5t-244 60.5t-103 147.5q0 49 30 78t85 29t81 -35t48.5 -77t57 -76.5
t108.5 -34.5q144 0 239 182t95 463l-6 4q-66 -96 -142.5 -140t-181 -44t-192.5 38.5t-190.5 145.5t-102.5 332q0 224 158 384z" />
    <glyph glyph-name="colon" unicode=":" horiz-adv-x="583" 
d="M158 781q0 56 39 95t95 39t95 -38.5t39 -94.5t-39 -95.5t-95 -39.5t-95 39t-39 95zM158 114q0 56 39 95t95 39t95 -39t39 -95t-39 -95t-95 -39t-95 39t-39 95z" />
    <glyph glyph-name="semicolon" unicode=";" horiz-adv-x="636" 
d="M282 0q-40 0 -70 34t-30 89t38 90t99 35q147 0 148 -205q0 -167 -99.5 -256.5t-174.5 -144.5l-48 65q111 78 158 149.5t47 159.5q-28 -16 -68 -16zM182 781q0 56 39 95t95 39t95.5 -38.5t39.5 -94.5t-39.5 -95.5t-95.5 -39.5t-95 39t-39 95z" />
    <glyph glyph-name="less" unicode="&#x3c;" horiz-adv-x="1189" 
d="M1018 258v-111l-938 476v131l938 475v-115l-846 -426z" />
    <glyph glyph-name="equal" unicode="=" horiz-adv-x="1269" 
d="M1100 516h-930v102h930v-102zM1100 864h-930v103h930v-103z" />
    <glyph glyph-name="greater" unicode="&#x3e;" horiz-adv-x="1189" 
d="M1018 688l-846 426v115l938 -475v-131l-938 -476v111z" />
    <glyph glyph-name="question" unicode="?" horiz-adv-x="817" 
d="M172 114q0 56 39 95t95 39t95 -39t39 -95t-39 -95t-95 -39t-95 39t-39 95zM256 485v469h59q266 0 267 203q0 94 -51 166t-107.5 72t-97.5 -11.5t-82 -11.5t-72 31t-31 80q0 115 127 114q84 0 162 -42t173 -154.5t95 -315.5q0 -156 -86 -241.5t-243 -85.5v-273h-113z" />
    <glyph glyph-name="at" unicode="@" horiz-adv-x="2107" 
d="M1146 1020q-137 0 -250.5 -173.5t-113.5 -384.5q0 -212 138 -212q66 0 133 50t156 180.5t89 326.5q0 100 -40.5 156.5t-111.5 56.5zM1425 355q0 -95 91 -95q68 0 134 52.5t151 190t85 357.5q0 278 -204 461.5t-513 183.5q-184 0 -344.5 -68.5t-278.5 -188.5t-185.5 -284
t-67.5 -346q0 -360 231 -577t590 -217q358 0 655 205l43 -64q-180 -125 -350 -182t-376 -57t-388 65.5t-313 183t-205 281.5t-74 364t81 381t223.5 313t334 207.5t393.5 75.5q384 0 612 -201.5t228 -531.5q0 -282 -113.5 -437t-207.5 -212t-199 -57q-197 0 -215 235h-8
q-63 -106 -157.5 -170.5t-174.5 -64.5q-145 0 -233 99t-88 231q0 133 47 240.5t123.5 191.5t174 135t196.5 51t156.5 -48t86.5 -153l8 -2l45 182h197l-137 -485q-54 -193 -54 -245z" />
    <glyph glyph-name="A" unicode="A" horiz-adv-x="1581" 
d="M494 674h467l-228 604zM326 194q0 -73 36.5 -94.5t122.5 -21.5v-78h-497v78q94 12 140 44.5t83 121.5l532 1333h88l465 -1155q92 -226 137.5 -274t83 -58t91.5 -10v-80h-668v80q109 0 149.5 20.5t40.5 80.5t-47 169l-84 221h-546q-127 -304 -127 -377z" />
    <glyph glyph-name="B" unicode="B" horiz-adv-x="1570" 
d="M653 881q174 0 216 16t67 33q66 41 93.5 98t27.5 150q0 162 -79 232.5t-247 70.5h-158q-35 0 -34 -35v-565h114zM821 88q371 0 371 318q0 231 -191 323q-78 33 -143.5 41t-226.5 8h-92v-456q0 -125 65 -179.5t217 -54.5zM78 0v78q158 4 202 47.5t44 185.5v955
q0 141 -29 176t-70 44t-106 13v78h612q276 0 430 -98.5t154 -276.5q0 -135 -85 -221t-269 -141v-9q175 -17 234.5 -47t90.5 -51q182 -129 182 -323q0 -109 -82.5 -237t-239 -150.5t-331.5 -22.5h-737z" />
    <glyph glyph-name="C" unicode="C" horiz-adv-x="1642" 
d="M926 1491q-250 0 -389.5 -191t-139.5 -523q0 -333 137.5 -510t397.5 -177q395 0 508 420h84v-510h-72l-47 162q-215 -182 -520 -182q-347 0 -554.5 211.5t-207.5 575.5t216 597t568 233q123 0 231.5 -34.5t235.5 -112.5l37 127h57l19 -471h-76q-45 180 -174 282.5
t-311 102.5z" />
    <glyph glyph-name="D" unicode="D" horiz-adv-x="1810" 
d="M573 1477q-35 0 -34 -35v-1108q0 -233 305 -234q281 0 430 167t149 498t-158.5 521.5t-430.5 190.5h-261zM78 0v78q78 2 126 11t84 44.5t36 177.5v955q0 141 -29 176t-70 44t-106 13v78h719q184 0 340.5 -61.5t270.5 -170t177.5 -258t63.5 -321.5t-59.5 -312.5
t-167 -240.5t-257 -156.5t-327.5 -56.5h-801z" />
    <glyph glyph-name="E" unicode="E" horiz-adv-x="1486" 
d="M532 866q219 0 303.5 54.5t84.5 181.5h71v-559h-71q0 127 -83.5 184t-304.5 57v-462q0 -133 73 -183.5t279 -50.5t298.5 67t134.5 248h78l-31 -403h-1272v78q142 4 183.5 46t41.5 187v955q0 142 -28.5 176.5t-69.5 43.5t-106 13v78h1183l19 -360h-72q-23 158 -113.5 215
t-302.5 57h-260q-35 0 -35 -35v-588z" />
    <glyph glyph-name="F" unicode="F" 
d="M532 326q0 -78 9.5 -126t50.5 -83t225 -39v-78h-725v78q142 4 183.5 46t41.5 187v955q0 142 -28.5 176.5t-69.5 43.5t-106 13v78h1183l23 -391h-72q-23 172 -112.5 232.5t-307.5 60.5h-260q-35 0 -35 -35v-619q203 0 288.5 53t99.5 203h71v-600h-71q-20 158 -100.5 210
t-287.5 52v-417z" />
    <glyph glyph-name="G" unicode="G" horiz-adv-x="1781" 
d="M273.5 245q-150.5 155 -150.5 521q0 365 216 598t568 233q123 0 231.5 -34.5t235.5 -112.5l43 127h72l-27 -471h-98q0 188 -129 286.5t-309 98.5q-250 0 -389.5 -191t-139.5 -523q0 -333 137.5 -510t397.5 -177q191 0 304.5 84t113.5 204t-48.5 162t-156.5 42v77h581v-77
q-99 0 -133 -37.5t-34 -145.5v-229q-85 0 -144 -19.5t-170 -80.5q-157 -90 -399 -90q-142 0 -282 55t-290.5 210z" />
    <glyph glyph-name="H" unicode="H" horiz-adv-x="1894" 
d="M1577 326q0 -156 39.5 -200t183.5 -48v-78h-663v78q141 4 183 46t42 187v445h-830v-430q0 -155 40 -199.5t184 -48.5v-78h-664v78q142 4 183.5 46t41.5 187v955q0 142 -28.5 176.5t-69.5 43.5t-106 13v78h622v-78q-66 -2 -105.5 -12t-68.5 -46.5t-29 -189.5v-393h830v408
q0 142 -28.5 176.5t-69.5 43.5t-107 13v78h623v-78q-132 -4 -167.5 -49t-35.5 -199v-925z" />
    <glyph glyph-name="I" unicode="I" horiz-adv-x="849" 
d="M532 387q0 -197 32 -242t76 -55t116 -12v-78h-664v78q72 2 116 13t68.5 42t32.5 87t8 153v831q0 178 -36 232.5t-168 62.5v78h622v-78q-128 -4 -165.5 -62.5t-37.5 -246.5v-803z" />
    <glyph glyph-name="J" unicode="J" horiz-adv-x="806" 
d="M297 1266q0 142 -28.5 176.5t-69.5 43.5t-107 13v78h623v-78q-132 -4 -167.5 -49t-35.5 -199v-1255q0 -258 -108.5 -393t-317.5 -135q-141 0 -226 54t-85 144q0 53 27.5 81t71.5 28t67.5 -19.5t56.5 -81.5t58.5 -85t66.5 -23q84 0 129 90t45 256v1354z" />
    <glyph glyph-name="K" unicode="K" horiz-adv-x="1595" 
d="M993 78q150 0 150 55q0 38 -70 123l-399 492l-142 -164v-258q0 -157 33 -193.5t76 -45.5t115 -9v-78h-664v78q143 0 184 43t41 190v955q0 151 -32.5 185t-71.5 41t-100 7v78h622v-78q-61 0 -100 -8t-71 -44t-32 -196v-506l512 617q41 51 41 80q0 57 -116 57v78h493v-76
q-84 0 -134 -27.5t-136 -125.5l-385 -445l598 -719q51 -59 96 -82.5t121 -23.5v-78h-629v78z" />
    <glyph glyph-name="L" unicode="L" horiz-adv-x="1488" 
d="M92 0v78q142 4 183.5 46t41.5 187v955q0 142 -28.5 176.5t-69.5 43.5t-106 13v78h622v-78q-66 -2 -105.5 -12t-68.5 -46.5t-29 -189.5v-882q0 -170 76 -223.5t299 -53.5t299 47t108 107.5t54 156.5h78l-31 -403h-1323z" />
    <glyph glyph-name="M" unicode="M" horiz-adv-x="2232" 
d="M2118 1577v-78q-129 -4 -166 -62t-37 -247v-803q0 -199 31.5 -243t75.5 -54t116 -12v-78h-663v78q72 2 115.5 13t76.5 53t33 229v950h-21l-598 -1343h-45l-587 1343h-9v-936q0 -197 32 -242t76 -55t116 -12v-78h-572v78q72 2 116 13t68.5 42t32.5 87t8 153v831
q0 178 -36 232.5t-168 62.5v78h489l516 -1210h8l533 1210h459z" />
    <glyph glyph-name="N" unicode="N" horiz-adv-x="1847" 
d="M440 1262v-875q0 -198 29 -242.5t69 -54.5t105 -12v-78h-551v78q72 2 116 13t68.5 42t32.5 87t8 153v831q0 178 -36 232.5t-168 62.5v78h405l895 -1194h8v807q0 200 -28.5 243.5t-68.5 53.5t-105 12v78h550v-78q-72 -2 -115.5 -13t-76.5 -53t-33 -229v-1224h-123
l-972 1282h-9z" />
    <glyph glyph-name="O" unicode="O" horiz-adv-x="1937" 
d="M1554 777q0 322 -158 515t-428 193t-427.5 -194t-157.5 -514t157 -502.5t427 -182.5t428.5 181.5t158.5 503.5zM968.5 1597q180.5 0 336 -63.5t270.5 -174t180.5 -260t65.5 -319.5t-66.5 -315.5t-181.5 -253t-270.5 -169.5t-333.5 -62t-334 62t-270.5 169.5t-181 253
t-66.5 315.5t65.5 319.5t180 260t270 174t336 63.5z" />
    <glyph glyph-name="P" unicode="P" horiz-adv-x="1406" 
d="M532 819h146q205 0 304 79t99 256t-78.5 252t-246.5 75h-189q-35 0 -35 -35v-627zM1348 1182q0 -465 -631 -465h-185v-395q0 -76 9.5 -124t49 -84t224.5 -36v-78h-723v78q142 4 183.5 46t41.5 187v955q0 142 -28.5 176.5t-69.5 43.5t-106 13v78h643q283 0 437.5 -104.5
t154.5 -290.5z" />
    <glyph glyph-name="Q" unicode="Q" horiz-adv-x="1941" 
d="M1556 767q0 332 -158 525t-428 193t-427.5 -194t-157.5 -524t157 -528t427 -198t428.5 197t158.5 529zM1911 -241q0 -121 -103.5 -206t-236.5 -85q-134 0 -231 44t-184 96t-166.5 96t-145.5 44t-98.5 -20.5t-59.5 -46t-50.5 -46t-57.5 -20.5q-59 0 -60 51q0 27 21.5 48.5
t113.5 74.5l267 152q-172 6 -319.5 72.5t-254 178t-167 260t-60.5 321.5t65.5 324.5t180 262t270.5 174t336 63.5t335.5 -63.5t270.5 -174t180.5 -261t65.5 -334.5t-107 -397.5t-294 -302.5t-315 -138t-192 -98v-8q24 4 94 4t150 -23.5t156 -53.5t151.5 -53.5t165.5 -23.5
t139.5 41t79.5 142h52q8 -36 8 -94z" />
    <glyph glyph-name="R" unicode="R" horiz-adv-x="1613" 
d="M532 850h146q205 0 304 74.5t99 243.5t-78.5 241t-246.5 72h-189q-35 0 -35 -35v-596zM1348 1182q0 -347 -412 -418l453 -545q55 -68 121.5 -97.5t158.5 -43.5v-78h-395l-502 643q-51 66 -96 85.5t-144 19.5v-426q0 -76 9.5 -124t49 -84t224.5 -36v-78h-723v78
q142 4 183.5 46t41.5 187v955q0 142 -28.5 176.5t-69.5 43.5t-106 13v78h643q283 0 437.5 -104.5t154.5 -290.5z" />
    <glyph glyph-name="S" unicode="S" horiz-adv-x="1320" 
d="M450.5 1431.5q-73.5 -61.5 -73.5 -161.5t70.5 -170t232.5 -142q312 -139 421 -246t109 -268q0 -205 -154.5 -334.5t-402.5 -129.5q-117 0 -210 32.5t-189 110.5l-57 -100h-47l-31 458h76q28 -183 154 -290t294 -107t256 71.5t88 184.5t-75.5 187t-242.5 146t-253 123.5
t-159 129.5t-73 252t128.5 296.5t316.5 122.5t340 -120l53 92h47l23 -408h-76q-97 332 -367 332q-125 0 -198.5 -61.5z" />
    <glyph glyph-name="T" unicode="T" horiz-adv-x="1644" 
d="M992 1477.5q-34 -11.5 -41 -22.5t-7 -30v-1095q0 -140 50.5 -194t213.5 -58v-78h-774v78q166 4 216 57.5t50 194.5v1095q0 35 -36 49.5t-140 14.5t-252 -13t-153 -290h-76v391h1546l21 -391h-84q-12 176 -91.5 239.5t-244.5 63.5q-164 0 -198 -11.5z" />
    <glyph glyph-name="U" unicode="U" horiz-adv-x="1763" 
d="M1356 555v494q0 342 -63 403q-34 33 -76.5 40t-106.5 7v78h594v-78q-66 0 -108 -10t-70 -49t-37.5 -130t-9.5 -261v-414q0 -334 -138 -494.5t-451 -160.5t-458 131t-145 448v541q0 152 -7.5 233.5t-37.5 114.5t-71.5 42t-111.5 9v78h699v-78q-70 0 -113 -8t-69 -43
t-35 -116t-9 -232v-557q0 -218 96.5 -327.5t317.5 -109.5q410 0 410 449z" />
    <glyph glyph-name="V" unicode="V" horiz-adv-x="1605" 
d="M1284 1395q0 59 -33.5 81.5t-126.5 22.5v78h498v-78q-96 -12 -141 -44.5t-82 -121.5l-555 -1353h-72l-528 1275q-60 135 -100 172t-78.5 51.5t-92.5 18.5v80h668v-80q-111 0 -140.5 -16.5t-37.5 -32.5t-8 -54t49 -159l364 -922l361 889q55 134 55 193z" />
    <glyph glyph-name="W" unicode="W" horiz-adv-x="2408" 
d="M2081 1402q0 58 -34 77.5t-120 19.5v78h498v-78q-94 0 -142.5 -39t-80.5 -127l-514 -1353h-72l-393 1165l-437 -1165h-71l-426 1175q-37 98 -66.5 164.5t-78 122t-167.5 55.5v80h668v-80q-104 0 -146 -18.5t-42 -69.5t32 -145l312 -949l252 709q29 80 56.5 148.5
t43.5 123.5q-61 123 -101.5 162t-101.5 39v80h627v-80q-117 0 -144.5 -13.5t-34.5 -29.5t-7 -52t43 -173l274 -920l320 889q53 146 53 204z" />
    <glyph glyph-name="X" unicode="X" horiz-adv-x="1675" 
d="M985 78q160 0 160 65q0 33 -19 70t-86 139l-233 348l-176 -221q-140 -177 -181.5 -244t-41.5 -101t34.5 -45t130.5 -11v-78h-569v78q96 0 151.5 33.5t95.5 73.5t87 100l401 512l-415 567q-51 72 -115 103.5t-152 31.5v78h680v-78q-133 0 -133 -80q0 -51 58 -135l223 -332
l200 254q57 72 80 117t23 91t-34 65.5t-120 19.5v78h563v-78q-99 0 -155.5 -38.5t-163.5 -178.5l-326 -420l471 -639q106 -145 260 -145v-78h-698v78z" />
    <glyph glyph-name="Y" unicode="Y" horiz-adv-x="1501" 
d="M-10 1499v78h645v-78q-102 0 -144 -15.5t-42 -55.5t47 -121l317 -543h8l232 389q121 204 121 259.5t-30 71t-104 15.5v78h469v-78q-43 0 -76.5 -12t-83.5 -62t-175 -262l-316 -532v-244q0 -100 7 -160.5t31 -93.5t68 -44t117 -11v-78h-663v78q74 0 118 11t75.5 54
t31.5 230v250l-410 700q-62 105 -100.5 133.5t-69 35.5t-73.5 7z" />
    <glyph glyph-name="Z" unicode="Z" horiz-adv-x="1576" 
d="M33 0v8l1077 1483h-561q-145 0 -217 -65.5t-101 -225.5h-75l30 377h1248v-8l-1067 -1475h634q104 0 172 15.5t110 58.5t65.5 117.5t42.5 195.5h88l-25 -481h-1421z" />
    <glyph glyph-name="bracketleft" unicode="[" horiz-adv-x="759" 
d="M403 1583v-1794h310v-96h-494v1986h494v-96h-310z" />
    <glyph glyph-name="backslash" unicode="\" horiz-adv-x="942" 
d="M59 1577h101l723 -1577h-119z" />
    <glyph glyph-name="bracketright" unicode="]" horiz-adv-x="759" 
d="M356 -211v1794h-309v96h494v-1986h-494v96h309z" />
    <glyph glyph-name="asciicircum" unicode="^" horiz-adv-x="983" 
d="M584 838l243 -367h-92l-243 242l-244 -242h-92l243 367h185z" />
    <glyph glyph-name="underscore" unicode="_" horiz-adv-x="1478" 
d="M156 -293v139h1167v-139h-1167z" />
    <glyph glyph-name="grave" unicode="`" horiz-adv-x="563" 
d="M41 1574q0 34 21.5 52.5t56.5 18.5q63 0 137 -68l266 -244h-96l-281 133q-104 49 -104 108z" />
    <glyph glyph-name="a" unicode="a" horiz-adv-x="1134" 
d="M909 -20q-178 0 -178 219h-10q-53 -100 -147 -158.5t-216 -58.5t-196 65.5t-74 171.5t76 186t256 160l295 129v84q0 250 -213 250q-70 0 -101 -27t-55 -106q-23 -59 -44 -78.5t-62 -19.5q-102 0 -102 100t104 154.5t303 54.5t284.5 -72.5t85.5 -247.5v-458
q0 -233 93 -234q73 0 100 45l29 -49q-25 -47 -90.5 -78.5t-137.5 -31.5zM295 246q0 -56 44.5 -99t108.5 -43q114 0 190.5 100t76.5 240v162q-332 -128 -376 -216t-44 -144z" />
    <glyph glyph-name="b" unicode="b" horiz-adv-x="1339" 
d="M383 940h8q66 86 144.5 126t186.5 40q218 0 368.5 -162t150.5 -401t-151.5 -402.5t-376.5 -163.5q-117 0 -218.5 43t-166.5 117l-97 -137h-45v1237q0 242 -32.5 278.5t-155.5 51.5v51l385 82v-760zM387 428q0 -155 85.5 -253.5t223.5 -98.5t226 127t88 334.5t-92.5 340
t-235.5 132.5q-175 0 -255 -161q-40 -81 -40 -239v-182z" />
    <glyph glyph-name="c" unicode="c" horiz-adv-x="1097" 
d="M629 1010q-295 0 -295 -454q0 -228 83 -349t246 -121t312 143l61 -59q-74 -90 -190.5 -140t-238.5 -50q-233 0 -370 152.5t-137 407.5t156.5 410.5t413.5 155.5q156 0 258 -50t102 -130q0 -41 -26.5 -63.5t-68.5 -22.5t-66.5 15t-63.5 69q-41 47 -79 66.5t-97 19.5z" />
    <glyph glyph-name="d" unicode="d" horiz-adv-x="1382" 
d="M950 625q0 106 -11 161.5t-51 106.5t-113 83t-144 32q-147 0 -224 -122t-77 -336t77 -343t224 -129q117 0 201.5 64.5t101 150.5t16.5 196v136zM631 1106q186 0 323 -137v209q0 242 -11 294t-58 70.5t-154 18.5v61l420 78v-1182q0 -307 10 -347q17 -66 48.5 -82.5
t121.5 -16.5v-70l-340 -22v192h-8q-74 -104 -157.5 -148t-197.5 -44q-231 0 -380.5 159t-149.5 403t150 404t383 160z" />
    <glyph glyph-name="e" unicode="e" horiz-adv-x="1173" 
d="M731 743q80 0 97.5 8.5t21.5 19.5t4 30q0 94 -60.5 150.5t-164.5 56.5q-221 0 -275 -265h377zM332 534q0 -83 25.5 -170.5t100.5 -182.5t236 -95q86 0 160 38t152 124l63 -58q-174 -210 -424 -210t-397.5 153t-147.5 402q0 250 158.5 410.5t403.5 160.5q199 0 307 -107.5
t108 -308.5q0 -29 -11 -35t-52 -6h-674q-8 -32 -8 -115z" />
    <glyph glyph-name="f" unicode="f" horiz-adv-x="843" 
d="M45 1053h231v147q0 236 124 368t354 132q127 0 206.5 -39t79.5 -100q0 -41 -25.5 -69t-57.5 -28t-59.5 15.5t-75.5 55.5t-76.5 53.5t-67.5 13.5q-123 0 -176 -125q-33 -75 -33 -265v-159h330v-97h-330v-626q0 -152 33 -193t73.5 -52t106.5 -13v-72h-582v72q57 2 92 11
t59.5 43t24.5 187v643h-231v97z" />
    <glyph glyph-name="g" unicode="g" horiz-adv-x="1226" 
d="M1077 1106q82 0 126 -34t44 -80t-23.5 -66.5t-55.5 -20.5t-50 10.5t-33.5 21.5t-32 21.5t-52.5 10.5t-89 -35q49 -76 50 -191q0 -174 -109 -273t-326 -116q-125 -10 -174 -26.5t-49 -54.5t37.5 -53t97.5 -19t101 -8.5t80.5 -8.5t79.5 -10t87 -12q147 -23 236.5 -114
t89.5 -228q0 -172 -136 -262t-382 -90t-387 79t-141 207q0 86 53 145.5t126 59.5t128 -43q-55 -12 -90 -60.5t-35 -109.5q0 -90 89 -139t253 -49q350 0 350 215q0 82 -55.5 136t-117.5 62t-114.5 15.5t-102.5 13.5t-93 10t-70 8q-233 24 -233 197q0 72 59 127t149 70v8
q-89 36 -149.5 128.5t-60.5 183.5q0 169 114 271.5t298 102.5q183 0 298 -109q133 109 215 109zM560 440q87 0 135 78t48 218t-48 217t-136 77t-140 -78t-52 -213t53 -217t140 -82z" />
    <glyph glyph-name="h" unicode="h" horiz-adv-x="1409" 
d="M426 326q0 -84 4 -133.5t21.5 -75t50.5 -33.5t92 -12v-72h-545v72q59 4 94 12t58.5 39t23.5 188v858q0 238 -9 282t-18.5 59.5t-35.5 28.5t-117 13v70l377 78v-780h8q59 79 175.5 132.5t217.5 53.5q102 0 181 -33t118 -84t55.5 -128t16.5 -208v-327q0 -84 4 -132.5
t21.5 -75t50.5 -34.5t92 -12v-72h-543v72q116 4 144 43.5t28 195.5v258q0 229 -53 326.5t-178 97.5q-96 0 -183 -54t-119 -135t-32 -216v-262z" />
    <glyph glyph-name="i" unicode="i" horiz-adv-x="698" 
d="M231 1521.5q0 53.5 37 90.5t90.5 37t90 -37t36.5 -90.5t-36.5 -90t-90 -36.5t-90.5 36.5t-37 90zM467 326q0 -157 27.5 -194.5t64.5 -47.5t98 -12v-72h-587v72q122 4 159 48t37 191v262q0 252 -12 300t-49 65.5t-139 17.5v72l401 78v-780z" />
    <glyph glyph-name="j" unicode="j" horiz-adv-x="622" 
d="M205 1521.5q0 53.5 37 90.5t90 37t90 -37t37 -90.5t-37 -90t-90 -36.5t-90 36.5t-37 90zM436 -4q0 -256 -107.5 -392t-312.5 -136q-131 0 -214 52t-83 138q0 47 28 71.5t71 24.5t62.5 -17.5t49.5 -78.5t54 -81.5t75 -20.5q98 0 137.5 67.5t39.5 237.5v712q0 248 -12 298
t-49.5 67.5t-139.5 17.5v72l401 78v-1110z" />
    <glyph glyph-name="k" unicode="k" horiz-adv-x="1261" 
d="M799 978q0 36 -166 36v71h532v-71q-80 0 -123.5 -21.5t-117.5 -87.5l-295 -262l405 -459q56 -68 99.5 -90t117.5 -22v-72h-538v72q118 0 118 22q-4 32 -112 162l-217 262l-76 -72v-120q0 -156 26.5 -194t64.5 -48t99 -12v-72h-581v72q122 4 159 49.5t37 189.5v858
q0 156 -3 236t-21.5 108.5t-61.5 33.5t-114 5v70l395 78v-1125l190 187q92 92 137.5 136t45.5 80z" />
    <glyph glyph-name="l" unicode="l" horiz-adv-x="665" 
d="M428 319q0 -156 25.5 -190.5t61.5 -44.5t95 -12v-72h-565v72q117 4 155 47t38 186v883q0 228 -12 281t-49.5 69t-135.5 16v70l387 76v-1381z" />
    <glyph glyph-name="m" unicode="m" horiz-adv-x="2197" 
d="M860 1106q129 0 217 -52.5t123 -150.5h8q76 96 184 149.5t218 53.5q220 0 309 -119q37 -47 52.5 -124t15.5 -210v-325q0 -167 21.5 -201.5t55 -42.5t93.5 -12v-72h-545v72q57 2 92 11t58.5 41.5t23.5 186.5v258q0 235 -54 329.5t-186 94.5q-90 0 -205.5 -73t-118.5 -178
t-3 -154v-260q0 -84 4 -133.5t21.5 -76t52 -34.5t94.5 -12v-72h-545v72q57 4 92 12t57.5 39.5t22.5 187.5v258q0 236 -52 330t-184 94q-92 0 -182 -55.5t-118.5 -135.5t-28.5 -214v-260q0 -86 4 -135.5t21.5 -75t50 -33.5t92.5 -12v-72h-545v72q59 4 94 12t58.5 39t23.5 188
v262q0 252 -10 290t-18.5 53.5t-33 27.5t-118.5 12v72l334 78l26 -205h10q181 205 418 205z" />
    <glyph glyph-name="n" unicode="n" horiz-adv-x="1411" 
d="M842 1106q94 0 172 -31t116 -81t52 -124.5t14 -205.5v-342q0 -166 21.5 -199t55.5 -41t89 -12v-70h-531v70q114 4 142 43.5t28 193.5v271q0 233 -51.5 325t-181.5 92q-92 0 -178 -53.5t-117 -135.5t-31 -210v-274q0 -168 21.5 -200t55.5 -40t93 -12v-70h-536v70
q57 4 91 12t57.5 39t23.5 186v273q0 244 -9 284t-18.5 57t-35 29.5t-113.5 12.5v65l327 78l25 -203h8q165 203 410 203z" />
    <glyph glyph-name="o" unicode="o" horiz-adv-x="1339" 
d="M421.5 882q-91.5 -126 -91.5 -337t91.5 -336t245.5 -125t248.5 127t94.5 335t-95.5 335t-248.5 127t-244.5 -126zM1071 947q170 -159 170 -401q0 -241 -170 -403.5t-406 -162.5t-401.5 161.5t-165.5 405.5q0 245 166.5 402t401.5 157t405 -159z" />
    <glyph glyph-name="p" unicode="p" horiz-adv-x="1390" 
d="M438 635v-160q0 -149 19.5 -193t36.5 -65q47 -66 112.5 -101.5t136.5 -35.5q141 0 228.5 118.5t87.5 332.5t-90.5 345.5t-240 131.5t-236.5 -129q-54 -82 -54 -244zM438 -184q0 -163 41.5 -207.5t192.5 -48.5v-72h-631v72q122 4 159.5 50t37.5 191v766q0 246 -15 299
q-10 49 -47 66.5t-139 17.5v70l393 78v-160h8q66 78 141.5 123t184.5 45q224 0 375 -160.5t151 -406.5t-151.5 -402.5t-384.5 -156.5q-188 0 -316 135v-299z" />
    <glyph glyph-name="q" unicode="q" horiz-adv-x="1337" 
d="M956 147h-8q-72 -90 -148.5 -128.5t-188.5 -38.5t-206 39.5t-162.5 112.5t-106.5 174.5t-38 222t41 226t113 183.5t168 123t206.5 45t213 -45t170.5 -121l90 141h51v-1265q0 -86 5 -135.5t26.5 -76t63.5 -34.5t116 -10v-72h-625v72q133 4 176 53.5t43 187.5v346zM950 655
q0 155 -87.5 253t-222.5 98t-222.5 -126t-87.5 -338q0 -213 87 -338.5t234 -125.5q180 0 259 158q40 80 40 239v180z" />
    <glyph glyph-name="r" unicode="r" horiz-adv-x="976" 
d="M455 326q0 -84 4 -133.5t21.5 -75t50 -33.5t92.5 -12v-72h-545v72q117 4 146.5 43t29.5 196v240q0 139 -3 217t-20.5 115t-54.5 44t-102 7v72l358 77l29 -254h8q84 189 193.5 233t169.5 44t97.5 -32t37.5 -83t-31 -78.5t-76 -27.5q-61 0 -107.5 25.5t-66.5 25.5
q-55 0 -143 -112t-88 -429v-69z" />
    <glyph glyph-name="s" unicode="s" horiz-adv-x="929" 
d="M741 1085v-294h-53q-45 125 -98 178t-127 53t-116 -37t-42 -87t11.5 -75.5t43.5 -57.5t133 -94q203 -125 272 -199t69 -181q0 -145 -95 -228t-251 -83t-271 92l-41 -72h-45v352h51q80 -289 291 -289q82 0 130 40t48 110t-41 107.5t-153 107.5q-113 70 -164 106.5
t-103.5 94t-52.5 179.5t88 210t212 88t225 -64l40 43h39z" />
    <glyph glyph-name="t" unicode="t" horiz-adv-x="774" 
d="M205 229v727h-123v76q109 63 170 127t94 152h60v-258h274v-97h-274v-622q0 -145 23.5 -187.5t50 -54.5t72.5 -12q88 0 153 94l51 -39q-59 -155 -275 -155q-135 0 -205.5 64.5t-70.5 184.5z" />
    <glyph glyph-name="u" unicode="u" 
d="M213 432v326q0 84 -4 132t-21.5 73.5t-51.5 35t-93 15.5v71h371v-559q0 -223 52 -323.5t167 -100.5q180 0 280 236q28 70 31.5 123t3.5 96v201q0 84 -4 132t-21.5 73.5t-51 35t-93.5 15.5v71h371v-628q0 -227 8 -277t17.5 -66t34 -28t118.5 -12v-72l-338 -25l-22 246h-9
q-149 -243 -391 -243q-86 0 -166.5 32.5t-118.5 82.5q-68 91 -69 337z" />
    <glyph glyph-name="v" unicode="v" horiz-adv-x="1249" 
d="M10 1085h543v-71q-91 -4 -114 -15.5t-23 -54.5t28 -129l218 -594h8l186 441q80 190 80 254.5t-24.5 81t-106.5 16.5v71h407v-71q-60 0 -106 -58q-43 -62 -79 -161t-48 -123l-301 -695h-119l-346 854q-51 125 -80 147.5t-56.5 28t-66.5 7.5v71z" />
    <glyph glyph-name="w" unicode="w" horiz-adv-x="1744" 
d="M567 1014q-145 0 -145 -70q0 -39 22 -129l140 -489h8l301 759h63l273 -759h8l123 331q69 187 76.5 226t7.5 71t-26.5 46t-110.5 14v71h409v-71q-59 0 -93.5 -43t-100.5 -207l-318 -784h-76l-249 755h-9l-301 -755h-75l-267 851q-36 113 -66 140.5t-60.5 35t-75.5 7.5v71
h542v-71z" />
    <glyph glyph-name="x" unicode="x" horiz-adv-x="1247" 
d="M680 72q131 0 131 46q0 24 -17.5 51.5t-58.5 80.5l-143 184l-174 -221q-31 -37 -31 -70q0 -71 102 -71v-72h-469v72q94 0 141.5 28.5t83.5 65.5t81 92l209 256l-273 387q-47 66 -86 89.5t-98 23.5v71h504v-71q-105 0 -105 -49q0 -31 39 -86l148 -215l139 180
q49 61 49 104q0 66 -121 66v71h449v-71q-70 0 -112 -26.5t-71.5 -58.5t-66.5 -79l-211 -268l272 -359q63 -84 117.5 -117.5t116.5 -33.5v-72h-545v72z" />
    <glyph glyph-name="y" unicode="y" horiz-adv-x="1308" 
d="M154 -436q0 51 35.5 74.5t105.5 34.5q107 17 154.5 50.5t82.5 110.5l72 143l-393 854q-54 114 -81.5 139t-54 32.5t-67.5 11.5v71h543v-71q-137 0 -137 -66t57 -203l225 -544h11l186 461q27 68 44 110.5t29.5 78.5t12.5 81t-29.5 63.5t-113.5 18.5v71h450v-71
q-39 0 -65.5 -10.5t-64.5 -60t-134 -271.5l-447 -994q-94 -211 -292 -210q-129 0 -129 96z" />
    <glyph glyph-name="z" unicode="z" horiz-adv-x="1140" 
d="M37 0v8l708 991h-227q-178 0 -239 -37t-80 -159h-66l33 282h881v-8l-699 -983h240q210 0 270 33t85.5 76t43.5 114h68l-35 -317h-983z" />
    <glyph glyph-name="braceleft" unicode="{" horiz-adv-x="686" 
d="M426 0q0 -111 36 -172t140 -90v-45q-209 0 -284.5 64.5t-75.5 250.5v402q0 168 -65.5 215t-117.5 51v51q111 23 147 82.5t36 181.5v359q0 98 14 164.5t70.5 126t267.5 59.5v-47q-96 -25 -132 -87.5t-36 -172.5v-367q0 -141 -28.5 -195.5t-67.5 -82t-105 -41.5v-11
q120 -20 160.5 -89.5t40.5 -200.5v-406z" />
    <glyph glyph-name="bar" unicode="|" horiz-adv-x="593" 
d="M379 1679v-2191h-164v2191h164z" />
    <glyph glyph-name="braceright" unicode="}" horiz-adv-x="686" 
d="M260 406q0 131 29.5 182t69.5 74.5t102 33.5v11q-172 36 -186.5 146t-14.5 173v367q0 111 -36 173t-132 87v47q211 0 267.5 -59.5t70.5 -126t14 -164.5v-359q0 -122 27 -166.5t62.5 -65t93.5 -32.5v-51q-140 -11 -161.5 -116t-21.5 -150v-402q0 -186 -75.5 -250.5
t-284.5 -64.5v45q104 29 140 90t36 172v406z" />
    <glyph glyph-name="asciitilde" unicode="~" horiz-adv-x="1132" 
d="M784 649q56 0 75.5 18.5t35.5 67.5h68q-16 -109 -74 -175t-127 -66t-168.5 33.5t-155 49t-99.5 15.5t-63.5 -17.5t-33.5 -64.5h-70q18 109 78.5 171t137.5 62t208.5 -47t187.5 -47z" />
    <glyph glyph-name="uni00A0" unicode="&#xa0;" horiz-adv-x="587" 
 />
    <glyph glyph-name="exclamdown" unicode="&#xa1;" horiz-adv-x="630" 
d="M365 1153q0 -436 20.5 -566.5t32.5 -194.5t21.5 -127.5t9.5 -72.5v-77q0 -55 -36 -95t-97.5 -40t-97.5 39t-36 83t1 67.5t4 51t9.5 64.5t17.5 101q30 175 41 311.5t11 455.5h99zM182 1463q0 56 39 95t95 39t95.5 -38.5t39.5 -94.5t-39.5 -95.5t-95.5 -39.5t-95 39t-39 95
z" />
    <glyph glyph-name="cent" unicode="&#xa2;" horiz-adv-x="1136" 
d="M590 1006q-248 -32 -248 -443t248 -469v912zM692 -301h-102v281q-216 4 -348.5 156t-132.5 395t131.5 393t349.5 176v299h102v-293q240 -6 293 -73.5t53 -107.5t-26.5 -62.5t-68.5 -22.5t-66.5 15t-63.5 69q-58 66 -121 82v-920q154 8 291 143l61 -59
q-128 -155 -352 -184v-287z" />
    <glyph glyph-name="sterling" unicode="&#xa3;" horiz-adv-x="1392" 
d="M352 1150q0 213 132 330t350 117q174 0 283.5 -67.5t109.5 -164.5t-90 -97q-55 0 -79 35.5t-46.5 79.5t-65 80t-146.5 36t-170.5 -61.5t-66.5 -149.5t27 -194l53 -211h444v-125h-417q28 -107 28 -205q0 -196 -69 -326q166 -45 353 -45t296 142l20 -9q0 -178 -81.5 -256.5
t-217.5 -78.5q-90 0 -187.5 33.5t-238.5 107.5q-61 -95 -158.5 -119.5t-140.5 -24.5q-90 0 -142 45.5t-52 127.5t60.5 135t161.5 53t208 -64q12 46 12 123q0 136 -84 361h-284v125h245q-47 158 -47 267zM211 158q0 -66 102 -66t168 78q-108 53 -189 53.5t-81 -65.5z" />
    <glyph glyph-name="currency" unicode="&#xa4;" horiz-adv-x="1255" 
d="M385 297q100 -100 243 -100t243 102t100 241t-102 241t-241 102t-241 -100t-102 -243t100 -243zM182 539q0 160 97 278l-148 148l72 71l147 -147q116 96 274 96t279 -96l148 147l71 -71l-147 -148q98 -121 98 -280t-96 -275l145 -145l-71 -72l-146 145q-119 -96 -279 -96
t-278 99l-145 -146l-70 70l146 145q-97 117 -97 277z" />
    <glyph glyph-name="yen" unicode="&#xa5;" horiz-adv-x="1642" 
d="M1282 358h-352q0 -180 32.5 -220t75.5 -50t115 -10v-78h-664v78q72 0 116 10t77 52t33 218h-363v123h363v142h-363v122h291l-338 578q-61 104 -100 133t-70 36t-74 7v78h646v-78q-112 0 -142 -12t-37.5 -25.5t-7.5 -43.5t47 -111l318 -543h8l231 389q121 204 121 259.5
t-29.5 71t-103.5 15.5v78h469v-78q-87 0 -147.5 -61.5t-188.5 -274.5l-248 -418h285v-122h-352v-142h352v-123z" />
    <glyph glyph-name="brokenbar" unicode="&#xa6;" horiz-adv-x="610" 
d="M387 420v-789h-164v789h164zM387 1536v-788h-164v788h164z" />
    <glyph glyph-name="section" unicode="&#xa7;" horiz-adv-x="1159" 
d="M186 1356q0 160 104.5 252t277.5 92t283 -78t110 -199q0 -66 -34 -104.5t-90 -38.5t-90 31t-34 71t9 58t19.5 31.5t19.5 24.5t9 28q0 41 -57 67.5t-155 26.5t-159 -51t-61 -137t48 -143.5t167 -125.5l123 -71q190 -111 273 -215.5t83 -214.5t-42 -179t-136 -139
q158 -129 158 -306t-127.5 -284.5t-321.5 -107.5t-317 94.5t-123 241.5q0 78 35 124t91 46t95 -37t39 -80t-14.5 -67.5t-30.5 -44t-30.5 -37t-14.5 -38.5q0 -43 84 -76.5t205 -33.5q120 0 194 59.5t74 151.5t-51 150.5t-181 131.5l-120 68q-199 110 -284 210t-85 232
q0 219 203 303q-146 120 -146 314zM883 580q0 56 -48.5 122t-140.5 121l-272 162q-78 -41 -109.5 -77t-31.5 -93t40.5 -115.5t114.5 -101.5l332 -197q63 49 89 86t26 93z" />
    <glyph glyph-name="dieresis" unicode="&#xa8;" horiz-adv-x="661" 
d="M383 1452q0 51 34 85t85 34t85 -34t34 -85t-34 -85t-85 -34t-85 34t-34 85zM41 1452q0 51 34 85t85 34t85 -34t34 -85t-34 -85t-85 -34t-85 34t-34 85z" />
    <glyph glyph-name="copyright" unicode="&#xa9;" horiz-adv-x="1818" 
d="M932 1247q113 0 248 -84l20 72h43l10 -268h-53q-25 92 -96.5 145t-171.5 53q-139 0 -215 -102.5t-76 -284.5t76 -277t219 -95q201 0 260 219h68q-29 -135 -115 -219t-240 -84q-203 0 -324.5 121.5t-121.5 329.5t126.5 341t342.5 133zM1604 790.5q0 147.5 -55.5 277.5
t-150.5 225.5t-222 150.5t-272.5 55t-270.5 -56.5t-218 -153.5t-146.5 -226t-53.5 -275t53.5 -275.5t202 -282t434.5 -152.5q143 0 271.5 56t222.5 152.5t149.5 226.5t55.5 277.5zM1702 790q0 -169 -62.5 -316.5t-171 -257.5t-253 -173t-309.5 -63t-308 63t-250.5 174
t-169 258.5t-61.5 313t61.5 313t168 258t249.5 174t308 63.5t310.5 -63.5t254 -172t171 -255.5t62.5 -316z" />
    <glyph glyph-name="ordfeminine" unicode="&#xaa;" horiz-adv-x="774" 
d="M276 1038q-68 0 -107.5 34t-39.5 87t38 92t136 82l143 64v39q0 113 -102 112q-45 0 -63.5 -11t-29.5 -56t-52 -45q-51 0 -52 59q0 41 57.5 71.5t163.5 30.5t149.5 -35.5t43.5 -121.5v-230q0 -119 45 -118q31 0 49 26l15 -24q-14 -25 -49 -40.5t-74 -15.5q-90 0 -90 99h-8
q-59 -99 -173 -99zM256 1188q0 -35 19.5 -56.5t59.5 -21.5t75.5 47t35.5 113v69q-190 -71 -190 -151z" />
    <glyph glyph-name="guillemotleft" unicode="&#xab;" horiz-adv-x="1001" 
d="M451 537l348 325l41 -43l-203 -282l201 -283l-39 -41zM100 537l349 325l40 -43l-202 -282l200 -283l-38 -41z" />
    <glyph glyph-name="logicalnot" unicode="&#xac;" horiz-adv-x="1280" 
d="M1006 641h-836v102h938v-518h-102v416z" />
    <glyph glyph-name="uni00AD" unicode="&#xad;" horiz-adv-x="948" 
d="M158 508v170h633v-170h-633z" />
    <glyph glyph-name="registered" unicode="&#xae;" horiz-adv-x="1818" 
d="M756 852h82q104 0 154 42t50 136t-40.5 131t-133.5 37h-94q-18 0 -18 -18v-328zM1212 1038q0 -199 -221 -233l254 -307q53 -64 137 -78v-45h-221l-282 350q-32 41 -52.5 50t-70.5 9v-229q0 -86 19.5 -105.5t49 -24.5t78.5 -5v-45h-405v45q74 2 94 26.5t20 102.5v530
q0 76 -14 96.5t-34.5 25.5t-53.5 7v52h358q166 0 255 -59t89 -163zM1604 790.5q0 147.5 -55.5 277.5t-150.5 225.5t-222 150.5t-272.5 55t-270.5 -56.5t-218 -153.5t-146.5 -226t-53.5 -275t53.5 -275.5t202 -282t434.5 -152.5q143 0 271.5 56t222.5 152.5t149.5 226.5
t55.5 277.5zM1702 790q0 -169 -62.5 -316.5t-171 -257.5t-253 -173t-309.5 -63t-308 63t-250.5 174t-169 258.5t-61.5 313t61.5 313t168 258t249.5 174t308 63.5t310.5 -63.5t254 -172t171 -255.5t62.5 -316z" />
    <glyph glyph-name="macron" unicode="&#xaf;" horiz-adv-x="634" 
d="M41 1438v102h553v-102h-553z" />
    <glyph glyph-name="degree" unicode="&#xb0;" horiz-adv-x="708" 
d="M170 1351.5q0 -75.5 54.5 -130t130 -54.5t129 54.5t53.5 130t-53.5 129t-129 53.5t-130 -53.5t-54.5 -129zM109 1351.5q0 51.5 19 95.5t53 78t78 53t95.5 19t95.5 -19t77.5 -53t53 -78t19.5 -95.5t-19.5 -95.5t-53 -77.5t-77.5 -53t-95.5 -19.5t-95.5 19.5t-78 53
t-53 77.5t-19 95.5z" />
    <glyph glyph-name="plusminus" unicode="&#xb1;" horiz-adv-x="1298" 
d="M1128 195h-958v102h958v-102zM596 479v428h-426v103h426v428h106v-428h426v-103h-426v-428h-106z" />
    <glyph glyph-name="twosuperior" unicode="&#xb2;" horiz-adv-x="583" 
d="M256 1358q-9 -53 -81 -53q-38 0 -67.5 34.5t-29.5 98.5t57.5 111.5t147.5 47.5t147 -49.5t57 -113.5q0 -107 -70.5 -191t-217.5 -196v-9h174q41 0 61.5 18.5t36.5 76.5h41l-31 -175h-411v27q256 229 282.5 311t26.5 133t-30 86t-78 35t-76.5 -29.5t-28.5 -72.5
t24.5 -66.5t65.5 -23.5z" />
    <glyph glyph-name="threesuperior" unicode="&#xb3;" horiz-adv-x="571" 
d="M381 1135q0 66 -27.5 101.5t-77.5 35.5q-28 -14 -60 -14t-32 30q0 31 35 31q25 0 51 -10q43 0 70 37.5t27 101.5q0 104 -97 104q-82 0 -82 -63q0 -23 15.5 -38t42.5 -15q-4 -16 -23.5 -28.5t-49.5 -12.5t-53.5 25.5t-23.5 70.5t48 75.5t134 30.5t141.5 -39.5t55.5 -99.5
t-38 -102.5t-95 -55.5v-8q66 -16 110 -59t44 -113t-65 -120t-157 -50t-147 41t-55 95t26.5 84t60.5 30q72 0 81 -47q-31 0 -51.5 -19.5t-20.5 -53.5t27.5 -57.5t70.5 -23.5q115 1 115 136z" />
    <glyph glyph-name="acute" unicode="&#xb4;" horiz-adv-x="563" 
d="M444 1645q35 0 56.5 -18.5t21.5 -52.5q0 -59 -104 -108l-281 -133h-96l266 244q74 68 137 68z" />
    <glyph glyph-name="mu" unicode="&#xb5;" horiz-adv-x="1476" 
d="M500 -408q0 -48 -31 -86t-83 -38t-86 36.5t-34 89.5v1164q0 164 -24.5 200.5t-57 46t-88.5 9.5v71h371v-559q0 -229 52 -332.5t169 -103.5q193 0 253 171t60 296v201q0 164 -24.5 200.5t-57 46t-88.5 9.5v71h371v-628q0 -227 8 -277t17.5 -66t33 -28t119.5 -12v-72
l-338 -25l-22 246h-8q-66 -119 -152 -181t-182 -62q-170 0 -254 188l-8 -2q84 -421 84 -574z" />
    <glyph glyph-name="paragraph" unicode="&#xb6;" horiz-adv-x="1292" 
d="M74 1164q0 196 141 304.5t412 108.5h565v-78q-100 0 -141 -15.5t-60 -58.5q-22 -60 -22 -251v-1045q0 -246 26 -315q14 -41 58.5 -57.5t138.5 -16.5v-78h-375v1825h-106v-1825h-398v78q109 0 159 18t68 70t17 301v635l-70 -2q-197 0 -305 103t-108 299z" />
    <glyph glyph-name="periodcentered" unicode="&#xb7;" horiz-adv-x="583" 
d="M158 562q0 56 39 95t95 39t95 -39t39 -95t-39 -95t-95 -39t-95 39t-39 95z" />
    <glyph glyph-name="cedilla" unicode="&#xb8;" horiz-adv-x="475" 
d="M176 -231q-44 0 -72 -5l-6 11l109 250h108l-63 -172q254 0 254 -177q0 -98 -69 -153t-181 -55t-178 43t-66 115t64 71q23 0 36 -13.5t31 -54.5t38 -57t60 -16t68.5 27.5t28.5 74.5q0 111 -162 111z" />
    <glyph glyph-name="onesuperior" unicode="&#xb9;" horiz-adv-x="503" 
d="M301 1102q0 -63 15.5 -82t70.5 -21v-41h-262v41q55 4 70.5 20.5t15.5 76.5v196q0 195 -4 203q-7 27 -86 27v41q88 4 180 34v-495z" />
    <glyph glyph-name="ordmasculine" unicode="&#xba;" horiz-adv-x="784" 
d="M391 1544q-68 0 -109.5 -62.5t-41.5 -163.5t41 -162.5t109 -61.5t110.5 61.5t42.5 162.5t-42 163.5t-110 62.5zM591.5 1518q84.5 -79 84.5 -199t-85 -200.5t-201.5 -80.5t-198.5 80.5t-82 200.5t81 199t199 79t202.5 -79z" />
    <glyph glyph-name="guillemotright" unicode="&#xbb;" horiz-adv-x="1001" 
d="M203 213l-39 41l201 283l-203 282l41 43l348 -325zM553 213l-39 41l201 283l-203 282l41 43l348 -325z" />
    <glyph glyph-name="onequarter" unicode="&#xbc;" horiz-adv-x="1370" 
d="M956 465h-8l-174 -266h182v266zM1057 639v-442q51 2 63.5 14t12.5 59h38v-192h-38q0 45 -12.5 57t-63.5 15v-17q0 -63 12 -81.5t53 -20.5v-31h-252v31q55 4 70.5 20.5t15.5 75.5v20h-233v52l289 440h45zM449 1102q0 -63 15 -82t71 -21v-41h-263v41q55 4 70.5 20.5
t15.5 76.5v196q0 195 -4 203q-7 27 -86 27v41q89 4 181 34v-495zM180 0h-117l1133 1577h98z" />
    <glyph glyph-name="onehalf" unicode="&#xbd;" horiz-adv-x="1382" 
d="M942 399q-9 -53 -81 -53q-38 0 -67.5 35t-29.5 99t57.5 111.5t147.5 47.5t147.5 -49.5t57.5 -113.5q0 -107 -71 -191.5t-218 -196.5v-8h174q41 0 61.5 18.5t36.5 75.5h41l-31 -174h-411v27q256 229 282.5 311t26.5 133t-29.5 86t-77.5 35t-77 -30t-29 -73t24.5 -66.5
t65.5 -23.5zM449 1102q0 -63 15 -82t71 -21v-41h-263v41q55 4 70.5 20.5t15.5 76.5v196q0 195 -4 203q-7 27 -86 27v41q89 4 181 34v-495zM180 0h-117l1133 1577h98z" />
    <glyph glyph-name="threequarters" unicode="&#xbe;" horiz-adv-x="1374" 
d="M494 1135q0 66 -28 101.5t-77 35.5q-29 -14 -61 -14t-31 30q0 31 35 31q25 0 51 -10q43 0 69.5 37.5t26.5 101.5q0 104 -96 104q-82 0 -82 -63q0 -23 15.5 -38t41.5 -15q-4 -16 -23 -28.5t-49 -12.5t-53.5 25.5t-23.5 70.5t48 75.5t134 30.5t141.5 -39.5t55.5 -99.5
t-38 -102.5t-95 -55.5v-8q66 -16 109.5 -59t43.5 -113t-64.5 -120t-156.5 -50t-147.5 41t-55.5 95t27 84t61 30q71 0 80 -47q-31 0 -51 -19.5t-20 -53.5t27.5 -57.5t70.5 -23.5q115 1 115 136zM971 465h-8l-175 -266h183v266zM1071 639v-442q51 2 63.5 14t12.5 59h39v-192
h-39q0 45 -12.5 57t-63.5 15v-17q0 -63 12.5 -81.5t53.5 -20.5v-31h-252v31q55 4 70.5 20.5t15.5 75.5v20h-234v52l289 440h45zM195 0h-117l1132 1577h99z" />
    <glyph glyph-name="questiondown" unicode="&#xbf;" horiz-adv-x="817" 
d="M645 1463q0 -56 -39 -95t-95 -39t-95 39t-39 95t39 95t95 39t95 -39t39 -95zM561 1092v-469h-59q-266 0 -266 -203q0 -96 50.5 -167t107.5 -71t97.5 11.5t81.5 11.5t72 -31t31 -80q0 -115 -127 -114q-84 0 -162 41.5t-173 155t-95 315.5q0 156 86 241.5t244 85.5v273h112
z" />
    <glyph glyph-name="Agrave" unicode="&#xc0;" horiz-adv-x="1581" 
d="M479 1896q0 34 21.5 52t72.5 18t162 -68l266 -157h-122l-246 57q-154 36 -154 98zM494 674h467l-228 604zM326 194q0 -73 36.5 -94.5t122.5 -21.5v-78h-497v78q94 12 140 44.5t83 121.5l532 1333h88l465 -1155q92 -226 137.5 -274t83 -58t91.5 -10v-80h-668v80
q109 0 149.5 20.5t40.5 80.5t-47 169l-84 221h-546q-127 -304 -127 -377z" />
    <glyph glyph-name="Aacute" unicode="&#xc1;" horiz-adv-x="1581" 
d="M1008 1966q94 0 94 -72q0 -59 -154 -96l-246 -57h-122l266 157q111 68 162 68zM494 674h467l-228 604zM326 194q0 -73 36.5 -94.5t122.5 -21.5v-78h-497v78q94 12 140 44.5t83 121.5l532 1333h88l465 -1155q92 -226 137.5 -274t83 -58t91.5 -10v-80h-668v80
q109 0 149.5 20.5t40.5 80.5t-47 169l-84 221h-546q-127 -304 -127 -377z" />
    <glyph glyph-name="Acircumflex" unicode="&#xc2;" horiz-adv-x="1581" 
d="M897 1966l223 -223h-92l-244 110l-243 -110h-92l223 223h225zM494 674h467l-228 604zM326 194q0 -73 36.5 -94.5t122.5 -21.5v-78h-497v78q94 12 140 44.5t83 121.5l532 1333h88l465 -1155q92 -226 137.5 -274t83 -58t91.5 -10v-80h-668v80q109 0 149.5 20.5t40.5 80.5
t-47 169l-84 221h-546q-127 -304 -127 -377z" />
    <glyph glyph-name="Atilde" unicode="&#xc3;" horiz-adv-x="1581" 
d="M969 1872q39 0 59.5 19.5t36.5 66.5h68q-10 -104 -68.5 -173t-123.5 -69t-142.5 34t-119.5 49.5t-82 15.5t-59.5 -17.5t-33.5 -64.5h-70q16 104 76.5 168.5t128.5 64.5t140.5 -32.5t111.5 -47t78 -14.5zM494 674h467l-228 604zM326 194q0 -73 36.5 -94.5t122.5 -21.5v-78
h-497v78q94 12 140 44.5t83 121.5l532 1333h88l465 -1155q92 -226 137.5 -274t83 -58t91.5 -10v-80h-668v80q109 0 149.5 20.5t40.5 80.5t-47 169l-84 221h-546q-127 -304 -127 -377z" />
    <glyph glyph-name="Adieresis" unicode="&#xc4;" horiz-adv-x="1581" 
d="M868 1863q0 44 30 73.5t74 29.5t73.5 -29.5t29.5 -73.5t-29.5 -74t-73.5 -30t-74 30t-30 74zM496 1863q0 44 29.5 73.5t73.5 29.5t73.5 -29.5t29.5 -73.5t-29.5 -74t-73.5 -30t-73.5 30t-29.5 74zM494 674h467l-228 604zM326 194q0 -73 36.5 -94.5t122.5 -21.5v-78h-497
v78q94 12 140 44.5t83 121.5l532 1333h88l465 -1155q92 -226 137.5 -274t83 -58t91.5 -10v-80h-668v80q109 0 149.5 20.5t40.5 80.5t-47 169l-84 221h-546q-127 -304 -127 -377z" />
    <glyph glyph-name="Aring" unicode="&#xc5;" horiz-adv-x="1581" 
d="M715 1832q0 -30 19.5 -49.5t49.5 -19.5t49 19.5t19 49.5t-19.5 49.5t-49.5 19.5t-49 -19.5t-19 -49.5zM651 1833q0 57 38 95t95.5 38t95.5 -38t38 -95t-38 -95t-95.5 -38t-95.5 38t-38 95zM494 674h467l-228 604zM326 194q0 -73 36.5 -94.5t122.5 -21.5v-78h-497v78
q94 12 140 44.5t83 121.5l532 1333h88l465 -1155q92 -226 137.5 -274t83 -58t91.5 -10v-80h-668v80q109 0 149.5 20.5t40.5 80.5t-47 169l-84 221h-546q-127 -304 -127 -377z" />
    <glyph glyph-name="AE" unicode="&#xc6;" horiz-adv-x="2152" 
d="M983 674v803l-424 -803h424zM983 311v271h-473l-8 -19q-31 -59 -62.5 -117.5t-73.5 -142.5t-42 -129t14 -60.5t35.5 -22.5t48.5 -9t51 -4v-78h-496v78q94 12 129 37.5t56.5 55.5t43.5 69t43 74.5t169.5 309t279.5 532.5t135.5 270.5t4.5 21.5q0 29 -38 40t-132 11v78
h1302v-360h-72q-23 160 -109.5 216t-295.5 56h-260q-35 0 -35 -35v-588q202 0 288.5 48t98.5 188h72v-559h-72q-20 145 -100 193t-287 48v-462q0 -133 73 -183.5t279 -50.5q205 0 298.5 67t133.5 248h78l-30 -403h-1272v78q142 4 183.5 46t41.5 187z" />
    <glyph glyph-name="Ccedilla" unicode="&#xc7;" horiz-adv-x="1642" 
d="M801 -231q-45 0 -72 -5l-6 11l90 207q-317 20 -503.5 229.5t-186.5 564.5t216 588t568 233q123 0 231.5 -34.5t235.5 -112.5l37 127h57l19 -471h-76q-45 180 -174 282.5t-311 102.5q-250 0 -389.5 -191t-139.5 -523q0 -333 137.5 -510t397.5 -177q395 0 508 420h84v-510
h-72l-47 162q-205 -170 -481 -180l-47 -129q254 0 253 -177q0 -98 -69 -153t-181 -55t-177.5 43t-65.5 115t63 71q23 0 36.5 -13.5t31.5 -54.5t37.5 -57t59.5 -16t69 27.5t29 74.5q0 111 -162 111z" />
    <glyph glyph-name="Egrave" unicode="&#xc8;" horiz-adv-x="1486" 
d="M471 1896q0 34 21.5 52t72.5 18t162 -68l266 -157h-123l-245 57q-154 36 -154 98zM532 866q219 0 303.5 54.5t84.5 181.5h71v-559h-71q0 127 -83.5 184t-304.5 57v-462q0 -133 73 -183.5t279 -50.5t298.5 67t134.5 248h78l-31 -403h-1272v78q142 4 183.5 46t41.5 187v955
q0 142 -28.5 176.5t-69.5 43.5t-106 13v78h1183l19 -360h-72q-23 158 -113.5 215t-302.5 57h-260q-35 0 -35 -35v-588z" />
    <glyph glyph-name="Eacute" unicode="&#xc9;" horiz-adv-x="1486" 
d="M1000 1966q94 0 94 -72q0 -59 -154 -96l-246 -57h-123l267 157q111 68 162 68zM532 866q219 0 303.5 54.5t84.5 181.5h71v-559h-71q0 127 -83.5 184t-304.5 57v-462q0 -133 73 -183.5t279 -50.5t298.5 67t134.5 248h78l-31 -403h-1272v78q142 4 183.5 46t41.5 187v955
q0 142 -28.5 176.5t-69.5 43.5t-106 13v78h1183l19 -360h-72q-23 158 -113.5 215t-302.5 57h-260q-35 0 -35 -35v-588z" />
    <glyph glyph-name="Ecircumflex" unicode="&#xca;" horiz-adv-x="1486" 
d="M889 1966l223 -223h-92l-244 110l-244 -110h-92l224 223h225zM532 866q219 0 303.5 54.5t84.5 181.5h71v-559h-71q0 127 -83.5 184t-304.5 57v-462q0 -133 73 -183.5t279 -50.5t298.5 67t134.5 248h78l-31 -403h-1272v78q142 4 183.5 46t41.5 187v955q0 142 -28.5 176.5
t-69.5 43.5t-106 13v78h1183l19 -360h-72q-23 158 -113.5 215t-302.5 57h-260q-35 0 -35 -35v-588z" />
    <glyph glyph-name="Edieresis" unicode="&#xcb;" horiz-adv-x="1486" 
d="M831 1863q0 44 30 73.5t74 29.5t73.5 -29.5t29.5 -73.5t-29.5 -74t-73.5 -30t-74 30t-30 74zM459 1863q0 44 29.5 73.5t73.5 29.5t74 -29.5t30 -73.5t-30 -74t-74 -30t-73.5 30t-29.5 74zM532 866q219 0 303.5 54.5t84.5 181.5h71v-559h-71q0 127 -83.5 184t-304.5 57
v-462q0 -133 73 -183.5t279 -50.5t298.5 67t134.5 248h78l-31 -403h-1272v78q142 4 183.5 46t41.5 187v955q0 142 -28.5 176.5t-69.5 43.5t-106 13v78h1183l19 -360h-72q-23 158 -113.5 215t-302.5 57h-260q-35 0 -35 -35v-588z" />
    <glyph glyph-name="Igrave" unicode="&#xcc;" horiz-adv-x="849" 
d="M117 1896q0 34 21.5 52t71.5 18t163 -68l266 -157h-123l-246 57q-153 35 -153 98zM532 387q0 -197 32 -242t76 -55t116 -12v-78h-664v78q72 2 116 13t68.5 42t32.5 87t8 153v831q0 178 -36 232.5t-168 62.5v78h622v-78q-128 -4 -165.5 -62.5t-37.5 -246.5v-803z" />
    <glyph glyph-name="Iacute" unicode="&#xcd;" horiz-adv-x="849" 
d="M645 1966q94 0 94 -72q0 -58 -153 -96l-246 -57h-123l266 157q110 68 162 68zM532 387q0 -197 32 -242t76 -55t116 -12v-78h-664v78q72 2 116 13t68.5 42t32.5 87t8 153v831q0 178 -36 232.5t-168 62.5v78h622v-78q-128 -4 -165.5 -62.5t-37.5 -246.5v-803z" />
    <glyph glyph-name="Icircumflex" unicode="&#xce;" horiz-adv-x="849" 
d="M535 1966l223 -223h-92l-244 110l-244 -110h-92l223 223h226zM532 387q0 -197 32 -242t76 -55t116 -12v-78h-664v78q72 2 116 13t68.5 42t32.5 87t8 153v831q0 178 -36 232.5t-168 62.5v78h622v-78q-128 -4 -165.5 -62.5t-37.5 -246.5v-803z" />
    <glyph glyph-name="Idieresis" unicode="&#xcf;" horiz-adv-x="849" 
d="M510 1863q0 44 29.5 73.5t73.5 29.5t74 -29.5t30 -73.5t-30 -74t-74 -30t-73.5 30t-29.5 74zM137 1863q0 44 30 73.5t74 29.5t73.5 -29.5t29.5 -73.5t-29.5 -74t-73.5 -30t-74 30t-30 74zM532 387q0 -197 32 -242t76 -55t116 -12v-78h-664v78q72 2 116 13t68.5 42
t32.5 87t8 153v831q0 178 -36 232.5t-168 62.5v78h622v-78q-128 -4 -165.5 -62.5t-37.5 -246.5v-803z" />
    <glyph glyph-name="Eth" unicode="&#xd0;" horiz-adv-x="1806" 
d="M569 1477q-35 0 -34 -35v-549h335v-109h-335v-450q0 -233 305 -234q281 0 430 167t149 498t-158.5 521.5t-431.5 190.5h-260zM156 784v109h163v373q0 142 -28.5 176.5t-69.5 43.5t-106 13v78h719q184 0 340.5 -61.5t270.5 -170t177.5 -258t63.5 -321.5
q0 -342 -227.5 -554t-584.5 -212h-800v78q78 2 126 11t83.5 44t35.5 178v473h-163z" />
    <glyph glyph-name="Ntilde" unicode="&#xd1;" horiz-adv-x="1847" 
d="M1135 1872q39 0 59 19.5t37 66.5h67q-10 -104 -68.5 -173t-123.5 -69t-142 34t-119 49.5t-82 15.5t-59.5 -17.5t-33.5 -64.5h-70q16 104 76.5 168.5t128.5 64.5t140.5 -32.5t111.5 -47t78 -14.5zM440 1262v-875q0 -198 29 -242.5t69 -54.5t105 -12v-78h-551v78
q72 2 116 13t68.5 42t32.5 87t8 153v831q0 178 -36 232.5t-168 62.5v78h405l895 -1194h8v807q0 200 -28.5 243.5t-68.5 53.5t-105 12v78h550v-78q-72 -2 -115.5 -13t-76.5 -53t-33 -229v-1224h-123l-972 1282h-9z" />
    <glyph glyph-name="Ograve" unicode="&#xd2;" horiz-adv-x="1937" 
d="M666 1896q0 34 21.5 52t71.5 18t163 -68l266 -157h-123l-246 57q-153 35 -153 98zM1554 777q0 322 -158 515t-428 193t-427.5 -194t-157.5 -514t157 -502.5t427 -182.5t428.5 181.5t158.5 503.5zM968.5 1597q180.5 0 336 -63.5t270.5 -174t180.5 -260t65.5 -319.5
t-66.5 -315.5t-181.5 -253t-270.5 -169.5t-333.5 -62t-334 62t-270.5 169.5t-181 253t-66.5 315.5t65.5 319.5t180 260t270 174t336 63.5z" />
    <glyph glyph-name="Oacute" unicode="&#xd3;" horiz-adv-x="1937" 
d="M1194 1966q94 0 94 -72q0 -58 -153 -96l-246 -57h-123l266 157q111 68 162 68zM1554 777q0 322 -158 515t-428 193t-427.5 -194t-157.5 -514t157 -502.5t427 -182.5t428.5 181.5t158.5 503.5zM968.5 1597q180.5 0 336 -63.5t270.5 -174t180.5 -260t65.5 -319.5
t-66.5 -315.5t-181.5 -253t-270.5 -169.5t-333.5 -62t-334 62t-270.5 169.5t-181 253t-66.5 315.5t65.5 319.5t180 260t270 174t336 63.5z" />
    <glyph glyph-name="Ocircumflex" unicode="&#xd4;" horiz-adv-x="1937" 
d="M1083 1966l224 -223h-93l-243 110l-244 -110h-92l223 223h225zM1554 777q0 322 -158 515t-428 193t-427.5 -194t-157.5 -514t157 -502.5t427 -182.5t428.5 181.5t158.5 503.5zM968.5 1597q180.5 0 336 -63.5t270.5 -174t180.5 -260t65.5 -319.5t-66.5 -315.5t-181.5 -253
t-270.5 -169.5t-333.5 -62t-334 62t-270.5 169.5t-181 253t-66.5 315.5t65.5 319.5t180 260t270 174t336 63.5z" />
    <glyph glyph-name="Otilde" unicode="&#xd5;" horiz-adv-x="1937" 
d="M1155 1872q39 0 59.5 19.5t36.5 66.5h68q-10 -104 -68.5 -173t-123.5 -69t-142.5 34t-119.5 49.5t-82 15.5t-59 -17.5t-34 -64.5h-69q16 104 76.5 168.5t128.5 64.5t140 -32.5t111 -47t78 -14.5zM1554 777q0 322 -158 515t-428 193t-427.5 -194t-157.5 -514t157 -502.5
t427 -182.5t428.5 181.5t158.5 503.5zM968.5 1597q180.5 0 336 -63.5t270.5 -174t180.5 -260t65.5 -319.5t-66.5 -315.5t-181.5 -253t-270.5 -169.5t-333.5 -62t-334 62t-270.5 169.5t-181 253t-66.5 315.5t65.5 319.5t180 260t270 174t336 63.5z" />
    <glyph glyph-name="Odieresis" unicode="&#xd6;" horiz-adv-x="1937" 
d="M1055 1863q0 44 29.5 73.5t73.5 29.5t74 -29.5t30 -73.5t-30 -74t-74 -30t-73.5 30t-29.5 74zM682 1863q0 44 29.5 73.5t73.5 29.5t74 -29.5t30 -73.5t-30 -74t-74 -30t-73.5 30t-29.5 74zM1554 777q0 322 -158 515t-428 193t-427.5 -194t-157.5 -514t157 -502.5
t427 -182.5t428.5 181.5t158.5 503.5zM968.5 1597q180.5 0 336 -63.5t270.5 -174t180.5 -260t65.5 -319.5t-66.5 -315.5t-181.5 -253t-270.5 -169.5t-333.5 -62t-334 62t-270.5 169.5t-181 253t-66.5 315.5t65.5 319.5t180 260t270 174t336 63.5z" />
    <glyph glyph-name="multiply" unicode="&#xd7;" horiz-adv-x="1062" 
d="M139 377l318 317l-316 316l72 71l315 -315l318 317l76 -75l-318 -318l316 -315l-72 -72l-316 315l-317 -317z" />
    <glyph glyph-name="Oslash" unicode="&#xd8;" horiz-adv-x="1937" 
d="M969 1485q-271 0 -428.5 -194t-157.5 -498t125 -478l823 1043q-145 127 -362 127zM985 92q252 0 410.5 181.5t158.5 499.5t-145 503l-827 -1045q151 -139 403 -139zM969 -20q-265 0 -480 135l-221 -281h-139l272 344q-133 111 -208.5 264.5t-75.5 330.5t65.5 326.5
t180 260t270.5 174t336 63.5q251 0 454 -122l179 225h141l-227 -289q141 -113 223 -275t82 -344t-66.5 -327.5t-181.5 -253t-270.5 -169.5t-333.5 -62z" />
    <glyph glyph-name="Ugrave" unicode="&#xd9;" horiz-adv-x="1763" 
d="M635 1896q0 34 21.5 52t72.5 18t162 -68l266 -157h-123l-246 57q-153 35 -153 98zM1356 555v494q0 342 -63 403q-34 33 -76.5 40t-106.5 7v78h594v-78q-66 0 -108 -10t-70 -49t-37.5 -130t-9.5 -261v-414q0 -334 -138 -494.5t-451 -160.5t-458 131t-145 448v541
q0 152 -7.5 233.5t-37.5 114.5t-71.5 42t-111.5 9v78h699v-78q-70 0 -113 -8t-69 -43t-35 -116t-9 -232v-557q0 -218 96.5 -327.5t317.5 -109.5q410 0 410 449z" />
    <glyph glyph-name="Uacute" unicode="&#xda;" horiz-adv-x="1763" 
d="M1163 1966q94 0 94 -72q0 -59 -153 -96l-246 -57h-123l266 157q110 68 162 68zM1356 555v494q0 342 -63 403q-34 33 -76.5 40t-106.5 7v78h594v-78q-66 0 -108 -10t-70 -49t-37.5 -130t-9.5 -261v-414q0 -334 -138 -494.5t-451 -160.5t-458 131t-145 448v541
q0 152 -7.5 233.5t-37.5 114.5t-71.5 42t-111.5 9v78h699v-78q-70 0 -113 -8t-69 -43t-35 -116t-9 -232v-557q0 -218 96.5 -327.5t317.5 -109.5q410 0 410 449z" />
    <glyph glyph-name="Ucircumflex" unicode="&#xdb;" horiz-adv-x="1763" 
d="M1053 1966l223 -223h-92l-244 110l-244 -110h-92l223 223h226zM1356 555v494q0 342 -63 403q-34 33 -76.5 40t-106.5 7v78h594v-78q-66 0 -108 -10t-70 -49t-37.5 -130t-9.5 -261v-414q0 -334 -138 -494.5t-451 -160.5t-458 131t-145 448v541q0 152 -7.5 233.5
t-37.5 114.5t-71.5 42t-111.5 9v78h699v-78q-70 0 -113 -8t-69 -43t-35 -116t-9 -232v-557q0 -218 96.5 -327.5t317.5 -109.5q410 0 410 449z" />
    <glyph glyph-name="Udieresis" unicode="&#xdc;" horiz-adv-x="1763" 
d="M1024 1863q0 44 29.5 73.5t73.5 29.5t74 -29.5t30 -73.5t-30 -74t-74 -30t-73.5 30t-29.5 74zM651 1863q0 44 30 73.5t74 29.5t73.5 -29.5t29.5 -73.5t-29.5 -74t-73.5 -30t-74 30t-30 74zM1356 555v494q0 342 -63 403q-34 33 -76.5 40t-106.5 7v78h594v-78
q-66 0 -108 -10t-70 -49t-37.5 -130t-9.5 -261v-414q0 -334 -138 -494.5t-451 -160.5t-458 131t-145 448v541q0 152 -7.5 233.5t-37.5 114.5t-71.5 42t-111.5 9v78h699v-78q-70 0 -113 -8t-69 -43t-35 -116t-9 -232v-557q0 -218 96.5 -327.5t317.5 -109.5q410 0 410 449z
" />
    <glyph glyph-name="Yacute" unicode="&#xdd;" horiz-adv-x="1501" 
d="M1092 1894q0 -59 -154 -96l-246 -57h-123l267 157q111 68 162 68q94 0 94 -72zM-10 1499v78h645v-78q-102 0 -144 -15.5t-42 -55.5t47 -121l317 -543h8l232 389q121 204 121 259.5t-30 71t-104 15.5v78h469v-78q-43 0 -76.5 -12t-83.5 -62t-175 -262l-316 -532v-244
q0 -100 7 -160.5t31 -93.5t68 -44t117 -11v-78h-663v78q74 0 118 11t75.5 54t31.5 230v250l-410 700q-62 105 -100.5 133.5t-69 35.5t-73.5 7z" />
    <glyph glyph-name="Thorn" unicode="&#xde;" horiz-adv-x="1431" 
d="M537 463h145q205 0 304 79t99 256t-78.5 251.5t-246.5 74.5h-189q-35 0 -34 -34v-627zM537 1221h223q274 0 433 -115t159 -305q0 -221 -149 -331t-482 -110h-184v-38q0 -76 9 -124t48.5 -84t224.5 -36v-78h-723v78q142 4 184 46.5t42 186.5v955q0 144 -42 186.5
t-184 46.5v78h723v-78q-185 0 -224.5 -36t-48.5 -84t-9 -124v-34z" />
    <glyph glyph-name="germandbls" unicode="&#xdf;" horiz-adv-x="1347" 
d="M1124 1333q0 -155 -67.5 -248.5t-227.5 -128.5v-10q179 0 299.5 -141.5t120.5 -350.5t-124.5 -341.5t-305.5 -132.5q-106 0 -165.5 46t-59.5 105t20.5 85t51.5 26q57 0 84 -71t45 -84t46 -13t58.5 27.5t67.5 104.5t37 204q0 233 -97 358t-282 125v104q131 0 192.5 73
t61.5 226q0 301 -215 301q-209 0 -227.5 -140t-18.5 -245v-882q0 -156 20.5 -193t45 -48t65.5 -11v-78h-500v78q115 0 145.5 40.5t30.5 194.5v887q0 233 123 366.5t329 133.5t326.5 -106t120.5 -261z" />
    <glyph glyph-name="agrave" unicode="&#xe0;" horiz-adv-x="1134" 
d="M266 1574q0 34 21.5 52.5t56.5 18.5q63 0 137 -68l267 -244h-97l-280 133q-105 49 -105 108zM909 -20q-178 0 -178 219h-10q-53 -100 -147 -158.5t-216 -58.5t-196 65.5t-74 171.5t76 186t256 160l295 129v84q0 250 -213 250q-70 0 -101 -27t-55 -106q-23 -59 -44 -78.5
t-62 -19.5q-102 0 -102 100t104 154.5t303 54.5t284.5 -72.5t85.5 -247.5v-458q0 -233 93 -234q73 0 100 45l29 -49q-25 -47 -90.5 -78.5t-137.5 -31.5zM295 246q0 -56 44.5 -99t108.5 -43q114 0 190.5 100t76.5 240v162q-332 -128 -376 -216t-44 -144z" />
    <glyph glyph-name="aacute" unicode="&#xe1;" horiz-adv-x="1134" 
d="M762 1645q35 0 56.5 -18.5t21.5 -52.5q0 -59 -105 -108l-280 -133h-97l267 244q74 68 137 68zM909 -20q-178 0 -178 219h-10q-53 -100 -147 -158.5t-216 -58.5t-196 65.5t-74 171.5t76 186t256 160l295 129v84q0 250 -213 250q-70 0 -101 -27t-55 -106q-23 -59 -44 -78.5
t-62 -19.5q-102 0 -102 100t104 154.5t303 54.5t284.5 -72.5t85.5 -247.5v-458q0 -233 93 -234q73 0 100 45l29 -49q-25 -47 -90.5 -78.5t-137.5 -31.5zM295 246q0 -56 44.5 -99t108.5 -43q114 0 190.5 100t76.5 240v162q-332 -128 -376 -216t-44 -144z" />
    <glyph glyph-name="acircumflex" unicode="&#xe2;" horiz-adv-x="1134" 
d="M635 1597l244 -264h-93l-243 140l-244 -140h-92l244 264h184zM909 -20q-178 0 -178 219h-10q-53 -100 -147 -158.5t-216 -58.5t-196 65.5t-74 171.5t76 186t256 160l295 129v84q0 250 -213 250q-70 0 -101 -27t-55 -106q-23 -59 -44 -78.5t-62 -19.5q-102 0 -102 100
t104 154.5t303 54.5t284.5 -72.5t85.5 -247.5v-458q0 -233 93 -234q73 0 100 45l29 -49q-25 -47 -90.5 -78.5t-137.5 -31.5zM295 246q0 -56 44.5 -99t108.5 -43q114 0 190.5 100t76.5 240v162q-332 -128 -376 -216t-44 -144z" />
    <glyph glyph-name="atilde" unicode="&#xe3;" horiz-adv-x="1134" 
d="M729 1491q39 0 59.5 19.5t36.5 66.5h68q-10 -104 -68.5 -173t-123.5 -69t-142.5 34t-119.5 49.5t-82 15.5t-59 -17.5t-34 -64.5h-69q16 104 76.5 168.5t128.5 64.5t140 -32.5t111 -47t78 -14.5zM909 -20q-178 0 -178 219h-10q-53 -100 -147 -158.5t-216 -58.5t-196 65.5
t-74 171.5t76 186t256 160l295 129v84q0 250 -213 250q-70 0 -101 -27t-55 -106q-23 -59 -44 -78.5t-62 -19.5q-102 0 -102 100t104 154.5t303 54.5t284.5 -72.5t85.5 -247.5v-458q0 -233 93 -234q73 0 100 45l29 -49q-25 -47 -90.5 -78.5t-137.5 -31.5zM295 246
q0 -56 44.5 -99t108.5 -43q114 0 190.5 100t76.5 240v162q-332 -128 -376 -216t-44 -144z" />
    <glyph glyph-name="adieresis" unicode="&#xe4;" horiz-adv-x="1134" 
d="M596 1452q0 51 34 85t85 34t85 -34t34 -85t-34 -85t-85 -34t-85 34t-34 85zM254 1452q0 51 34 85t85 34t85 -34t34 -85t-34 -85t-85 -34t-85 34t-34 85zM909 -20q-178 0 -178 219h-10q-53 -100 -147 -158.5t-216 -58.5t-196 65.5t-74 171.5t76 186t256 160l295 129v84
q0 250 -213 250q-70 0 -101 -27t-55 -106q-23 -59 -44 -78.5t-62 -19.5q-102 0 -102 100t104 154.5t303 54.5t284.5 -72.5t85.5 -247.5v-458q0 -233 93 -234q73 0 100 45l29 -49q-25 -47 -90.5 -78.5t-137.5 -31.5zM295 246q0 -56 44.5 -99t108.5 -43q114 0 190.5 100
t76.5 240v162q-332 -128 -376 -216t-44 -144z" />
    <glyph glyph-name="aring" unicode="&#xe5;" horiz-adv-x="1134" 
d="M461 1520q0 -41 27.5 -69t68.5 -28t66.5 28t25.5 69t-25.5 66.5t-66.5 25.5t-68.5 -25.5t-27.5 -66.5zM381 1521q0 77 50 128t127 51t128 -52t51 -128t-51 -126.5t-128 -50.5t-127 50.5t-50 127.5zM909 -20q-178 0 -178 219h-10q-53 -100 -147 -158.5t-216 -58.5
t-196 65.5t-74 171.5t76 186t256 160l295 129v84q0 250 -213 250q-70 0 -101 -27t-55 -106q-23 -59 -44 -78.5t-62 -19.5q-102 0 -102 100t104 154.5t303 54.5t284.5 -72.5t85.5 -247.5v-458q0 -233 93 -234q73 0 100 45l29 -49q-25 -47 -90.5 -78.5t-137.5 -31.5zM295 246
q0 -56 44.5 -99t108.5 -43q114 0 190.5 100t76.5 240v162q-332 -128 -376 -216t-44 -144z" />
    <glyph glyph-name="ae" unicode="&#xe6;" horiz-adv-x="1744" 
d="M1305 743q78 0 96 7.5t22 18.5t4 30q0 94 -60 151.5t-158.5 57.5t-157 -64.5t-82.5 -200.5h336zM295 258q0 -68 45.5 -111t107.5 -43q114 0 190.5 88t76.5 211v183q-221 -82 -320.5 -159t-99.5 -169zM1228 1106q206 0 314.5 -109.5t108.5 -302.5q0 -23 -13.5 -34
t-50.5 -11h-633q-8 -25 -8 -90q0 -219 87 -346t243 -127t303 162l63 -58q-180 -211 -425 -210q-152 0 -264.5 69.5t-174.5 192.5q-57 -125 -162.5 -192.5t-240.5 -67.5t-211 64.5t-76 177t81 195.5t251 146l295 109v104q0 129 -52.5 189.5t-164.5 60.5q-66 0 -94.5 -28
t-54.5 -96t-47 -87.5t-60 -19.5q-104 0 -104 100t105 154.5t272 54.5t247 -34t119 -107q141 141 347 141z" />
    <glyph glyph-name="ccedilla" unicode="&#xe7;" horiz-adv-x="1097" 
d="M629 1010q-295 0 -295 -454q0 -228 83 -349t246 -121t312 143l61 -59q-138 -171 -399 -188l-47 -129q254 0 254 -177q0 -98 -69 -153t-181 -55t-178 43t-66 115t64 71q23 0 36 -13.5t31 -54.5t37.5 -57t59.5 -16t69 27.5t29 74.5q0 111 -162 111q-44 0 -72 -5l-6 11
l90 209q-193 24 -309.5 173t-116.5 394t156.5 400t413.5 155q156 0 258 -50t102 -130q0 -41 -26.5 -63.5t-68.5 -22.5t-66.5 15t-63.5 69q-41 47 -79 66.5t-97 19.5z" />
    <glyph glyph-name="egrave" unicode="&#xe8;" horiz-adv-x="1173" 
d="M432 1574q0 34 21.5 52.5t56.5 18.5q63 0 137 -68l266 -244h-96l-280 133q-105 49 -105 108zM731 743q80 0 97.5 8.5t21.5 19.5t4 30q0 94 -60.5 150.5t-164.5 56.5q-221 0 -275 -265h377zM332 534q0 -83 25.5 -170.5t100.5 -182.5t236 -95q86 0 160 38t152 124l63 -58
q-174 -210 -424 -210t-397.5 153t-147.5 402q0 250 158.5 410.5t403.5 160.5q199 0 307 -107.5t108 -308.5q0 -29 -11 -35t-52 -6h-674q-8 -32 -8 -115z" />
    <glyph glyph-name="eacute" unicode="&#xe9;" horiz-adv-x="1173" 
d="M895 1645q35 0 56.5 -18.5t21.5 -52.5q0 -60 -105 -108l-280 -133h-96l266 244q74 68 137 68zM731 743q80 0 97.5 8.5t21.5 19.5t4 30q0 94 -60.5 150.5t-164.5 56.5q-221 0 -275 -265h377zM332 534q0 -83 25.5 -170.5t100.5 -182.5t236 -95q86 0 160 38t152 124l63 -58
q-174 -210 -424 -210t-397.5 153t-147.5 402q0 250 158.5 410.5t403.5 160.5q199 0 307 -107.5t108 -308.5q0 -29 -11 -35t-52 -6h-674q-8 -32 -8 -115z" />
    <glyph glyph-name="ecircumflex" unicode="&#xea;" horiz-adv-x="1173" 
d="M733 1597l244 -264h-92l-244 140l-244 -140h-92l244 264h184zM731 743q80 0 97.5 8.5t21.5 19.5t4 30q0 94 -60.5 150.5t-164.5 56.5q-221 0 -275 -265h377zM332 534q0 -83 25.5 -170.5t100.5 -182.5t236 -95q86 0 160 38t152 124l63 -58q-174 -210 -424 -210t-397.5 153
t-147.5 402q0 250 158.5 410.5t403.5 160.5q199 0 307 -107.5t108 -308.5q0 -29 -11 -35t-52 -6h-674q-8 -32 -8 -115z" />
    <glyph glyph-name="edieresis" unicode="&#xeb;" horiz-adv-x="1173" 
d="M694 1452q0 51 34 85t85 34t85 -34t34 -85t-34 -85t-85 -34t-85 34t-34 85zM352 1452q0 51 34 85t85 34t85 -34t34 -85t-34 -85t-85 -34t-85 34t-34 85zM731 743q80 0 97.5 8.5t21.5 19.5t4 30q0 94 -60.5 150.5t-164.5 56.5q-221 0 -275 -265h377zM332 534
q0 -83 25.5 -170.5t100.5 -182.5t236 -95q86 0 160 38t152 124l63 -58q-174 -210 -424 -210t-397.5 153t-147.5 402q0 250 158.5 410.5t403.5 160.5q199 0 307 -107.5t108 -308.5q0 -29 -11 -35t-52 -6h-674q-8 -32 -8 -115z" />
    <glyph glyph-name="igrave" unicode="&#xec;" horiz-adv-x="698" 
d="M39 1574q0 34 21.5 52.5t56.5 18.5q63 0 137 -68l266 -244h-96l-281 133q-104 49 -104 108zM467 332q0 -159 27.5 -196.5t64.5 -47.5t98 -12v-76h-587v76q122 4 159 48.5t37 190.5v254q0 250 -14 299q-10 49 -47 66.5t-139 17.5v76l401 78v-774z" />
    <glyph glyph-name="iacute" unicode="&#xed;" horiz-adv-x="698" 
d="M588 1645q35 0 56.5 -18.5t21.5 -52.5q0 -59 -105 -108l-280 -133h-97l267 244q74 68 137 68zM467 332q0 -159 27.5 -196.5t64.5 -47.5t98 -12v-76h-587v76q122 4 159 48.5t37 190.5v254q0 250 -14 299q-10 49 -47 66.5t-139 17.5v76l401 78v-774z" />
    <glyph glyph-name="icircumflex" unicode="&#xee;" horiz-adv-x="698" 
d="M461 1597l244 -264h-93l-243 140l-244 -140h-92l243 264h185zM467 332q0 -159 27.5 -196.5t64.5 -47.5t98 -12v-76h-587v76q122 4 159 48.5t37 190.5v254q0 250 -14 299q-10 49 -47 66.5t-139 17.5v76l401 78v-774z" />
    <glyph glyph-name="idieresis" unicode="&#xef;" horiz-adv-x="698" 
d="M422 1452q0 51 33.5 85t85 34t85 -34t33.5 -85t-33.5 -85t-85 -34t-85 34t-33.5 85zM80 1452q0 51 33.5 85t85 34t85 -34t33.5 -85t-33.5 -85t-85 -34t-85 34t-33.5 85zM467 332q0 -159 27.5 -196.5t64.5 -47.5t98 -12v-76h-587v76q122 4 159 48.5t37 190.5v254
q0 250 -14 299q-10 49 -47 66.5t-139 17.5v76l401 78v-774z" />
    <glyph glyph-name="eth" unicode="&#xf0;" horiz-adv-x="1310" 
d="M1178 618q0 -130 -41 -250t-154.5 -254t-346.5 -134q-232 0 -383 149t-151 368t147.5 371t369 152t309.5 -176l6 4q-79 316 -258 487l-266 -153l-50 65l248 146q-91 68 -280 135l39 69q245 -74 354 -139l266 154l51 -66l-239 -139q269 -189 324 -424t55 -365zM358 497
q0 -202 73 -313.5t203 -111.5t207 114.5t77 312.5t-76 309.5t-207 111.5t-204 -110.5t-73 -312.5z" />
    <glyph glyph-name="ntilde" unicode="&#xf1;" horiz-adv-x="1411" 
d="M893 1491q39 0 59.5 19.5t36.5 66.5h68q-10 -104 -68.5 -173t-123.5 -69t-142.5 34t-119.5 49.5t-82 15.5t-59.5 -17.5t-33.5 -64.5h-70q16 104 77 168.5t129 64.5t140 -32.5t111 -47t78 -14.5zM842 1106q94 0 172 -31t116 -81t52 -124.5t14 -205.5v-342
q0 -166 21.5 -199t55.5 -41t89 -12v-70h-531v70q114 4 142 43.5t28 193.5v271q0 233 -51.5 325t-181.5 92q-92 0 -178 -53.5t-117 -135.5t-31 -210v-274q0 -168 21.5 -200t55.5 -40t93 -12v-70h-536v70q57 4 91 12t57.5 39t23.5 186v273q0 244 -9 284t-18.5 57t-35 29.5
t-113.5 12.5v65l327 78l25 -203h8q165 203 410 203z" />
    <glyph glyph-name="ograve" unicode="&#xf2;" horiz-adv-x="1339" 
d="M430 1574q0 34 21.5 52.5t56.5 18.5q63 0 137 -68l266 -244h-96l-280 133q-105 49 -105 108zM421.5 882q-91.5 -126 -91.5 -337t91.5 -336t245.5 -125t248.5 127t94.5 335t-95.5 335t-248.5 127t-244.5 -126zM1071 947q170 -159 170 -401q0 -241 -170 -403.5t-406 -162.5
t-401.5 161.5t-165.5 405.5q0 245 166.5 402t401.5 157t405 -159z" />
    <glyph glyph-name="oacute" unicode="&#xf3;" horiz-adv-x="1339" 
d="M885 1645q35 0 56.5 -18.5t21.5 -52.5q0 -59 -105 -108l-280 -133h-97l267 244q74 68 137 68zM421.5 882q-91.5 -126 -91.5 -337t91.5 -336t245.5 -125t248.5 127t94.5 335t-95.5 335t-248.5 127t-244.5 -126zM1071 947q170 -159 170 -401q0 -241 -170 -403.5
t-406 -162.5t-401.5 161.5t-165.5 405.5q0 245 166.5 402t401.5 157t405 -159z" />
    <glyph glyph-name="ocircumflex" unicode="&#xf4;" horiz-adv-x="1339" 
d="M758 1597l243 -264h-92l-243 140l-244 -140h-92l243 264h185zM421.5 882q-91.5 -126 -91.5 -337t91.5 -336t245.5 -125t248.5 127t94.5 335t-95.5 335t-248.5 127t-244.5 -126zM1071 947q170 -159 170 -401q0 -241 -170 -403.5t-406 -162.5t-401.5 161.5t-165.5 405.5
q0 245 166.5 402t401.5 157t405 -159z" />
    <glyph glyph-name="otilde" unicode="&#xf5;" horiz-adv-x="1339" 
d="M835.5 1491q38.5 0 59 19.5t37.5 66.5h67q-10 -104 -68.5 -173t-123.5 -69t-142 34t-119 49.5t-82 15.5t-59.5 -17.5t-33.5 -64.5h-70q16 104 76.5 168.5t128.5 64.5t140.5 -32.5t111.5 -47t77.5 -14.5zM421.5 882q-91.5 -126 -91.5 -337t91.5 -336t245.5 -125t248.5 127
t94.5 335t-95.5 335t-248.5 127t-244.5 -126zM1071 947q170 -159 170 -401q0 -241 -170 -403.5t-406 -162.5t-401.5 161.5t-165.5 405.5q0 245 166.5 402t401.5 157t405 -159z" />
    <glyph glyph-name="odieresis" unicode="&#xf6;" horiz-adv-x="1339" 
d="M719 1452q0 51 33.5 85t85 34t85 -34t33.5 -85t-33.5 -85t-85 -34t-85 34t-33.5 85zM377 1452q0 51 33.5 85t85 34t85 -34t33.5 -85t-33.5 -85t-85 -34t-85 34t-33.5 85zM421.5 882q-91.5 -126 -91.5 -337t91.5 -336t245.5 -125t248.5 127t94.5 335t-95.5 335t-248.5 127
t-244.5 -126zM1071 947q170 -159 170 -401q0 -241 -170 -403.5t-406 -162.5t-401.5 161.5t-165.5 405.5q0 245 166.5 402t401.5 157t405 -159z" />
    <glyph glyph-name="divide" unicode="&#xf7;" horiz-adv-x="1226" 
d="M1094 641h-959v102h959v-102zM485 1050q0 56 39 95t95 39t95.5 -39t39.5 -95t-39 -95.5t-95 -39.5t-95.5 39.5t-39.5 95.5zM485 333q0 56 39 95t95 39t95.5 -39t39.5 -95t-39 -95t-95 -39t-95.5 39t-39.5 95z" />
    <glyph glyph-name="oslash" unicode="&#xf8;" horiz-adv-x="1333" 
d="M1008 568q0 124 -52 237l-503 -637q84 -84 211 -84q155 0 249.5 127.5t94.5 356.5zM328 567q0 -190 59 -305l506 641q-92 105 -237 105t-236.5 -125.5t-91.5 -315.5zM279 125q-183 170 -183 419t166.5 405.5t401.5 156.5q174 0 317 -92l158 198h141l-211 -266
q170 -161 170 -401t-170 -402.5t-405 -162.5q-165 0 -297 79l-146 -184h-139z" />
    <glyph glyph-name="ugrave" unicode="&#xf9;" 
d="M365 1574q0 34 21.5 52.5t55.5 18.5q63 0 138 -68l266 -244h-96l-281 133q-104 49 -104 108zM213 432v326q0 84 -4 132t-21.5 73.5t-51.5 35t-93 15.5v71h371v-559q0 -223 52 -323.5t167 -100.5q180 0 280 236q28 70 31.5 123t3.5 96v201q0 84 -4 132t-21.5 73.5t-51 35
t-93.5 15.5v71h371v-628q0 -227 8 -277t17.5 -66t34 -28t118.5 -12v-72l-338 -25l-22 246h-9q-149 -243 -391 -243q-86 0 -166.5 32.5t-118.5 82.5q-68 91 -69 337z" />
    <glyph glyph-name="uacute" unicode="&#xfa;" 
d="M860 1645q35 0 56.5 -18.5t21.5 -52.5q0 -59 -104 -108l-281 -133h-96l266 244q74 68 137 68zM213 432v326q0 84 -4 132t-21.5 73.5t-51.5 35t-93 15.5v71h371v-559q0 -223 52 -323.5t167 -100.5q180 0 280 236q28 70 31.5 123t3.5 96v201q0 84 -4 132t-21.5 73.5t-51 35
t-93.5 15.5v71h371v-628q0 -227 8 -277t17.5 -66t34 -28t118.5 -12v-72l-338 -25l-22 246h-9q-149 -243 -391 -243q-86 0 -166.5 32.5t-118.5 82.5q-68 91 -69 337z" />
    <glyph glyph-name="ucircumflex" unicode="&#xfb;" 
d="M733 1597l244 -264h-92l-244 140l-244 -140h-92l244 264h184zM213 432v326q0 84 -4 132t-21.5 73.5t-51.5 35t-93 15.5v71h371v-559q0 -223 52 -323.5t167 -100.5q180 0 280 236q28 70 31.5 123t3.5 96v201q0 84 -4 132t-21.5 73.5t-51 35t-93.5 15.5v71h371v-628
q0 -227 8 -277t17.5 -66t34 -28t118.5 -12v-72l-338 -25l-22 246h-9q-149 -243 -391 -243q-86 0 -166.5 32.5t-118.5 82.5q-68 91 -69 337z" />
    <glyph glyph-name="udieresis" unicode="&#xfc;" 
d="M694 1452q0 51 34 85t85 34t85 -34t34 -85t-34 -85t-85 -34t-85 34t-34 85zM352 1452q0 51 34 85t85 34t85 -34t34 -85t-34 -85t-85 -34t-85 34t-34 85zM213 432v326q0 84 -4 132t-21.5 73.5t-51.5 35t-93 15.5v71h371v-559q0 -223 52 -323.5t167 -100.5q180 0 280 236
q28 70 31.5 123t3.5 96v201q0 84 -4 132t-21.5 73.5t-51 35t-93.5 15.5v71h371v-628q0 -227 8 -277t17.5 -66t34 -28t118.5 -12v-72l-338 -25l-22 246h-9q-149 -243 -391 -243q-86 0 -166.5 32.5t-118.5 82.5q-68 91 -69 337z" />
    <glyph glyph-name="yacute" unicode="&#xfd;" horiz-adv-x="1308" 
d="M934 1645q35 0 56.5 -18.5t21.5 -52.5q0 -59 -105 -108l-280 -133h-97l267 244q74 68 137 68zM154 -436q0 51 35.5 74.5t105.5 34.5q107 17 154.5 50.5t82.5 110.5l72 143l-393 854q-54 114 -81.5 139t-54 32.5t-67.5 11.5v71h543v-71q-137 0 -137 -66t57 -203l225 -544
h11l186 461q27 68 44 110.5t29.5 78.5t12.5 81t-29.5 63.5t-113.5 18.5v71h450v-71q-39 0 -65.5 -10.5t-64.5 -60t-134 -271.5l-447 -994q-94 -211 -292 -210q-129 0 -129 96z" />
    <glyph glyph-name="thorn" unicode="&#xfe;" horiz-adv-x="1339" 
d="M387 428q0 -155 85.5 -253.5t223.5 -98.5t226 127t88 334.5t-92.5 340t-235.5 132.5q-175 0 -255 -161q-40 -81 -40 -239v-182zM391 -184q0 -163 41.5 -207.5t192.5 -48.5v-72h-631v72q123 4 157.5 48.5t34.5 192.5v1436q0 242 -32.5 278.5t-155.5 51.5v51l385 82v-760h8
q66 86 144.5 126t186.5 40q218 0 368.5 -162t150.5 -401t-151.5 -402.5t-362.5 -163.5t-336 138v-299z" />
    <glyph glyph-name="ydieresis" unicode="&#xff;" horiz-adv-x="1308" 
d="M768 1452q0 51 34 85t85 34t85 -34t34 -85t-34 -85t-85 -34t-85 34t-34 85zM426 1452q0 51 34 85t85 34t85 -34t34 -85t-34 -85t-85 -34t-85 34t-34 85zM154 -436q0 51 35.5 74.5t105.5 34.5q107 17 154.5 50.5t82.5 110.5l72 143l-393 854q-54 114 -81.5 139t-54 32.5
t-67.5 11.5v71h543v-71q-137 0 -137 -66t57 -203l225 -544h11l186 461q27 68 44 110.5t29.5 78.5t12.5 81t-29.5 63.5t-113.5 18.5v71h450v-71q-39 0 -65.5 -10.5t-64.5 -60t-134 -271.5l-447 -994q-94 -211 -292 -210q-129 0 -129 96z" />
    <glyph glyph-name="Amacron" unicode="&#x100;" horiz-adv-x="1581" 
d="M508 1802v103h553v-103h-553zM494 674h467l-228 604zM326 194q0 -73 36.5 -94.5t122.5 -21.5v-78h-497v78q94 12 140 44.5t83 121.5l532 1333h88l465 -1155q92 -226 137.5 -274t83 -58t91.5 -10v-80h-668v80q109 0 149.5 20.5t40.5 80.5t-47 169l-84 221h-546
q-127 -304 -127 -377z" />
    <glyph glyph-name="amacron" unicode="&#x101;" horiz-adv-x="1134" 
d="M266 1438v102h553v-102h-553zM909 -20q-178 0 -178 219h-10q-53 -100 -147 -158.5t-216 -58.5t-196 65.5t-74 171.5t76 186t256 160l295 129v84q0 250 -213 250q-70 0 -101 -27t-55 -106q-23 -59 -44 -78.5t-62 -19.5q-102 0 -102 100t104 154.5t303 54.5t284.5 -72.5
t85.5 -247.5v-458q0 -233 93 -234q73 0 100 45l29 -49q-25 -47 -90.5 -78.5t-137.5 -31.5zM295 246q0 -56 44.5 -99t108.5 -43q114 0 190.5 100t76.5 240v162q-332 -128 -376 -216t-44 -144z" />
    <glyph glyph-name="Abreve" unicode="&#x102;" horiz-adv-x="1581" 
d="M782.5 1872q77.5 0 135 25.5t73.5 68.5h76q-8 -104 -87 -169.5t-197 -65.5t-197.5 67t-83.5 168h73q16 -43 73 -68.5t134.5 -25.5zM494 674h467l-228 604zM326 194q0 -73 36.5 -94.5t122.5 -21.5v-78h-497v78q94 12 140 44.5t83 121.5l532 1333h88l465 -1155
q92 -226 137.5 -274t83 -58t91.5 -10v-80h-668v80q109 0 149.5 20.5t40.5 80.5t-47 169l-84 221h-546q-127 -304 -127 -377z" />
    <glyph glyph-name="abreve" unicode="&#x103;" horiz-adv-x="1134" 
d="M346 1398.5q-82 75.5 -86 190.5h74q18 -57 74.5 -91t133.5 -34t134 34t74 91h75q-8 -116 -87 -191t-195 -75q-115 0 -197 75.5zM909 -20q-178 0 -178 219h-10q-53 -100 -147 -158.5t-216 -58.5t-196 65.5t-74 171.5t76 186t256 160l295 129v84q0 250 -213 250
q-70 0 -101 -27t-55 -106q-23 -59 -44 -78.5t-62 -19.5q-102 0 -102 100t104 154.5t303 54.5t284.5 -72.5t85.5 -247.5v-458q0 -233 93 -234q73 0 100 45l29 -49q-25 -47 -90.5 -78.5t-137.5 -31.5zM295 246q0 -56 44.5 -99t108.5 -43q114 0 190.5 100t76.5 240v162
q-332 -128 -376 -216t-44 -144z" />
    <glyph glyph-name="Aogonek" unicode="&#x104;" horiz-adv-x="1581" 
d="M494 674h467l-228 604zM989 -302q0 85 65.5 165t186.5 137h-301v80q109 0 149.5 20.5t40.5 80.5t-47 169l-84 221h-546q-127 -305 -127 -377q0 -73 36.5 -94.5t122.5 -21.5v-78h-497v78q94 12 140 44.5t83 121.5l532 1333h88l465 -1155q92 -226 137.5 -274t83 -58
t91.5 -10v-80h-234q-100 -53 -161.5 -126t-61.5 -123t27.5 -78.5t76.5 -28.5q91 0 195 108l59 -63q-129 -168 -321 -168q-94 0 -146.5 46t-52.5 131z" />
    <glyph glyph-name="aogonek" unicode="&#x105;" horiz-adv-x="1136" 
d="M295 246q0 -56 44.5 -99t108.5 -43q114 0 190.5 100t76.5 240v162q-332 -128 -376 -216t-44 -144zM772 -479q-94 0 -146.5 46t-52.5 131t64.5 164t183.5 136q-90 45 -90 201h-10q-53 -100 -147 -158.5t-216 -58.5t-196 65.5t-74 171.5t76 186t256 160l295 129v84
q0 250 -213 250q-70 0 -101 -27t-55 -106q-23 -59 -44 -78.5t-62 -19.5q-102 0 -102 100t104 154.5t303 54.5t284.5 -72.5t85.5 -247.5v-458q0 -233 93 -234q73 0 100 45l29 -49q-23 -47 -84.5 -76.5t-128.5 -33.5q-86 -53 -137.5 -118t-51.5 -113t28 -76.5t77 -28.5
q90 0 194 108l60 -63q-129 -168 -322 -168z" />
    <glyph glyph-name="Cacute" unicode="&#x106;" horiz-adv-x="1642" 
d="M1141 1966q94 0 94 -72q0 -59 -154 -96l-245 -57h-123l266 157q111 68 162 68zM926 1491q-250 0 -389.5 -191t-139.5 -523q0 -333 137.5 -510t397.5 -177q395 0 508 420h84v-510h-72l-47 162q-215 -182 -520 -182q-347 0 -554.5 211.5t-207.5 575.5t216 597t568 233
q123 0 231.5 -34.5t235.5 -112.5l37 127h57l19 -471h-76q-45 180 -174 282.5t-311 102.5z" />
    <glyph glyph-name="cacute" unicode="&#x107;" horiz-adv-x="1097" 
d="M920 1645q35 0 56 -18.5t21 -52.5q0 -59 -104 -108l-281 -133h-96l266 244q74 68 138 68zM629 1010q-295 0 -295 -454q0 -228 83 -349t246 -121t312 143l61 -59q-74 -90 -190.5 -140t-238.5 -50q-233 0 -370 152.5t-137 407.5t156.5 410.5t413.5 155.5q156 0 258 -50
t102 -130q0 -41 -26.5 -63.5t-68.5 -22.5t-66.5 15t-63.5 69q-41 47 -79 66.5t-97 19.5z" />
    <glyph glyph-name="Ccircumflex" unicode="&#x108;" horiz-adv-x="1642" 
d="M1030 1966l223 -223h-92l-243 110l-244 -110h-92l223 223h225zM926 1491q-250 0 -389.5 -191t-139.5 -523q0 -333 137.5 -510t397.5 -177q395 0 508 420h84v-510h-72l-47 162q-215 -182 -520 -182q-347 0 -554.5 211.5t-207.5 575.5t216 597t568 233q123 0 231.5 -34.5
t235.5 -112.5l37 127h57l19 -471h-76q-45 180 -174 282.5t-311 102.5z" />
    <glyph glyph-name="ccircumflex" unicode="&#x109;" horiz-adv-x="1097" 
d="M739 1597l244 -264h-92l-244 140l-244 -140h-92l244 264h184zM629 1010q-295 0 -295 -454q0 -228 83 -349t246 -121t312 143l61 -59q-74 -90 -190.5 -140t-238.5 -50q-233 0 -370 152.5t-137 407.5t156.5 410.5t413.5 155.5q156 0 258 -50t102 -130q0 -41 -26.5 -63.5
t-68.5 -22.5t-66.5 15t-63.5 69q-41 47 -79 66.5t-97 19.5z" />
    <glyph glyph-name="Cdotaccent" unicode="&#x10a;" horiz-adv-x="1642" 
d="M811 1853q0 45 31.5 78t77.5 33t78 -33t32 -78t-32.5 -76.5t-77.5 -31.5t-77 31.5t-32 76.5zM926 1491q-250 0 -389.5 -191t-139.5 -523q0 -333 137.5 -510t397.5 -177q395 0 508 420h84v-510h-72l-47 162q-215 -182 -520 -182q-347 0 -554.5 211.5t-207.5 575.5t216 597
t568 233q123 0 231.5 -34.5t235.5 -112.5l37 127h57l19 -471h-76q-45 180 -174 282.5t-311 102.5z" />
    <glyph glyph-name="cdotaccent" unicode="&#x10b;" horiz-adv-x="1097" 
d="M520 1521.5q0 53.5 37 90.5t90 37t90 -37t37 -90.5t-37 -90t-90 -36.5t-90 36.5t-37 90zM629 1010q-295 0 -295 -454q0 -228 83 -349t246 -121t312 143l61 -59q-74 -90 -190.5 -140t-238.5 -50q-233 0 -370 152.5t-137 407.5t156.5 410.5t413.5 155.5q156 0 258 -50
t102 -130q0 -41 -26.5 -63.5t-68.5 -22.5t-66.5 15t-63.5 69q-41 47 -79 66.5t-97 19.5z" />
    <glyph glyph-name="Ccaron" unicode="&#x10c;" horiz-adv-x="1642" 
d="M805 1743l-223 223h92l244 -111l243 111h92l-223 -223h-225zM926 1491q-250 0 -389.5 -191t-139.5 -523q0 -333 137.5 -510t397.5 -177q395 0 508 420h84v-510h-72l-47 162q-215 -182 -520 -182q-347 0 -554.5 211.5t-207.5 575.5t216 597t568 233q123 0 231.5 -34.5
t235.5 -112.5l37 127h57l19 -471h-76q-45 180 -174 282.5t-311 102.5z" />
    <glyph glyph-name="ccaron" unicode="&#x10d;" horiz-adv-x="1097" 
d="M555 1333l-244 264h92l244 -139l244 139h92l-244 -264h-184zM629 1010q-295 0 -295 -454q0 -228 83 -349t246 -121t312 143l61 -59q-74 -90 -190.5 -140t-238.5 -50q-233 0 -370 152.5t-137 407.5t156.5 410.5t413.5 155.5q156 0 258 -50t102 -130q0 -41 -26.5 -63.5
t-68.5 -22.5t-66.5 15t-63.5 69q-41 47 -79 66.5t-97 19.5z" />
    <glyph glyph-name="Dcaron" unicode="&#x10e;" horiz-adv-x="1810" 
d="M795 1743l-224 223h93l243 -111l244 111h92l-223 -223h-225zM573 1477q-35 0 -34 -35v-1108q0 -233 305 -234q281 0 430 167t149 498t-158.5 521.5t-430.5 190.5h-261zM78 0v78q78 2 126 11t84 44.5t36 177.5v955q0 141 -29 176t-70 44t-106 13v78h719q184 0 340.5 -61.5
t270.5 -170t177.5 -258t63.5 -321.5t-59.5 -312.5t-167 -240.5t-257 -156.5t-327.5 -56.5h-801z" />
    <glyph glyph-name="dcaron" unicode="&#x10f;" horiz-adv-x="1382" 
d="M1401 1393q-37 0 -61.5 26.5t-24.5 71.5t33.5 75.5t91.5 30.5t91.5 -41.5t33.5 -113.5t-44 -130.5t-151 -115.5l-45 53q133 74 133 160q-20 -16 -57 -16zM950 625q0 106 -11 161.5t-51 106.5t-113 83t-144 32q-147 0 -224 -122t-77 -336t77 -343t224 -129
q117 0 201.5 64.5t101 150.5t16.5 196v136zM631 1106q186 0 323 -137v209q0 242 -11 294t-58 70.5t-154 18.5v61l420 78v-1182q0 -307 10 -347q17 -66 48.5 -82.5t121.5 -16.5v-70l-340 -22v192h-8q-74 -104 -157.5 -148t-197.5 -44q-231 0 -380.5 159t-149.5 403t150 404
t383 160z" />
    <glyph glyph-name="Dcroat" unicode="&#x110;" horiz-adv-x="1806" 
d="M569 1477q-35 0 -34 -35v-549h335v-109h-335v-450q0 -233 305 -234q281 0 430 167t149 498t-158.5 521.5t-431.5 190.5h-260zM156 784v109h163v373q0 142 -28.5 176.5t-69.5 43.5t-106 13v78h719q184 0 340.5 -61.5t270.5 -170t177.5 -258t63.5 -321.5
q0 -342 -227.5 -554t-584.5 -212h-800v78q78 2 126 11t83.5 44t35.5 178v473h-163z" />
    <glyph glyph-name="dcroat" unicode="&#x111;" horiz-adv-x="1382" 
d="M950 625q0 106 -11 161.5t-51 106.5t-113 83t-144 32q-147 0 -224 -122t-77 -336t77 -343t224 -129q117 0 201.5 64.5t101 150.5t16.5 196v136zM631 1106q186 0 323 -137v256h-200v108h198q-2 107 -11 149t-56 60.5t-154 18.5v61l420 78v-367h174v-108h-174v-707
q0 -307 10 -347q17 -66 48.5 -82.5t121.5 -16.5v-70l-340 -22v192h-8q-74 -104 -157.5 -148t-197.5 -44q-231 0 -380.5 159t-149.5 403t150 404t383 160z" />
    <glyph glyph-name="Emacron" unicode="&#x112;" horiz-adv-x="1486" 
d="M500 1802v103h553v-103h-553zM532 866q219 0 303.5 54.5t84.5 181.5h71v-559h-71q0 127 -83.5 184t-304.5 57v-462q0 -133 73 -183.5t279 -50.5t298.5 67t134.5 248h78l-31 -403h-1272v78q142 4 183.5 46t41.5 187v955q0 142 -28.5 176.5t-69.5 43.5t-106 13v78h1183
l19 -360h-72q-23 158 -113.5 215t-302.5 57h-260q-35 0 -35 -35v-588z" />
    <glyph glyph-name="emacron" unicode="&#x113;" horiz-adv-x="1173" 
d="M365 1438v102h553v-102h-553zM731 743q80 0 97.5 8.5t21.5 19.5t4 30q0 94 -60.5 150.5t-164.5 56.5q-221 0 -275 -265h377zM332 534q0 -83 25.5 -170.5t100.5 -182.5t236 -95q86 0 160 38t152 124l63 -58q-174 -210 -424 -210t-397.5 153t-147.5 402q0 250 158.5 410.5
t403.5 160.5q199 0 307 -107.5t108 -308.5q0 -29 -11 -35t-52 -6h-674q-8 -32 -8 -115z" />
    <glyph glyph-name="Ebreve" unicode="&#x114;" horiz-adv-x="1486" 
d="M774 1872q78 0 135.5 25.5t73.5 68.5h76q-8 -104 -87 -169.5t-198 -65.5t-197.5 67.5t-82.5 167.5h73q16 -43 72.5 -68.5t134.5 -25.5zM532 866q219 0 303.5 54.5t84.5 181.5h71v-559h-71q0 127 -83.5 184t-304.5 57v-462q0 -133 73 -183.5t279 -50.5t298.5 67t134.5 248
h78l-31 -403h-1272v78q142 4 183.5 46t41.5 187v955q0 142 -28.5 176.5t-69.5 43.5t-106 13v78h1183l19 -360h-72q-23 158 -113.5 215t-302.5 57h-260q-35 0 -35 -35v-588z" />
    <glyph glyph-name="ebreve" unicode="&#x115;" horiz-adv-x="1173" 
d="M443.5 1399q-81.5 76 -85.5 190h74q18 -57 74.5 -91t133.5 -34t134 34t74 91h76q-8 -114 -87 -190t-195 -76q-117 0 -198.5 76zM731 743q80 0 97.5 8.5t21.5 19.5t4 30q0 94 -60.5 150.5t-164.5 56.5q-221 0 -275 -265h377zM332 534q0 -83 25.5 -170.5t100.5 -182.5
t236 -95q86 0 160 38t152 124l63 -58q-174 -210 -424 -210t-397.5 153t-147.5 402q0 250 158.5 410.5t403.5 160.5q199 0 307 -107.5t108 -308.5q0 -29 -11 -35t-52 -6h-674q-8 -32 -8 -115z" />
    <glyph glyph-name="Edotaccent" unicode="&#x116;" horiz-adv-x="1486" 
d="M627 1853q0 45 31.5 78t76.5 33t78 -33t33 -78t-33 -76.5t-78 -31.5t-76.5 31.5t-31.5 76.5zM532 866q219 0 303.5 54.5t84.5 181.5h71v-559h-71q0 127 -83.5 184t-304.5 57v-462q0 -133 73 -183.5t279 -50.5t298.5 67t134.5 248h78l-31 -403h-1272v78q142 4 183.5 46
t41.5 187v955q0 142 -28.5 176.5t-69.5 43.5t-106 13v78h1183l19 -360h-72q-23 158 -113.5 215t-302.5 57h-260q-35 0 -35 -35v-588z" />
    <glyph glyph-name="edotaccent" unicode="&#x117;" horiz-adv-x="1173" 
d="M514 1521.5q0 53.5 37 90.5t90 37t90 -37t37 -90.5t-37 -90t-90 -36.5t-90 36.5t-37 90zM731 743q80 0 97.5 8.5t21.5 19.5t4 30q0 94 -60.5 150.5t-164.5 56.5q-221 0 -275 -265h377zM332 534q0 -83 25.5 -170.5t100.5 -182.5t236 -95q86 0 160 38t152 124l63 -58
q-174 -210 -424 -210t-397.5 153t-147.5 402q0 250 158.5 410.5t403.5 160.5q199 0 307 -107.5t108 -308.5q0 -29 -11 -35t-52 -6h-674q-8 -32 -8 -115z" />
    <glyph glyph-name="Eogonek" unicode="&#x118;" horiz-adv-x="1486" 
d="M469 -302q0 85 65.5 165t186.5 137h-629v78q142 4 183.5 46t41.5 187v955q0 142 -28.5 176.5t-69.5 43.5t-106 13v78h1183l19 -360h-72q-23 158 -113.5 215t-302.5 57h-260q-35 0 -35 -35v-588q219 0 303.5 54.5t84.5 181.5h71v-559h-71q0 127 -83.5 184t-304.5 57v-462
q0 -133 73 -183.5t279 -50.5t298.5 67t134.5 248h78l-31 -403h-510q-100 -53 -161.5 -126t-61.5 -123t27.5 -78.5t76.5 -28.5q91 0 195 108l59 -63q-129 -168 -321 -168q-94 0 -146.5 46t-52.5 131z" />
    <glyph glyph-name="eogonek" unicode="&#x119;" horiz-adv-x="1173" 
d="M731 743q80 0 97.5 8.5t21.5 19.5t4 30q0 94 -60.5 150.5t-164.5 56.5q-221 0 -275 -265h377zM498 -479q-94 0 -146.5 46t-52.5 128q0 174 229 295q-196 33 -312 180t-116 360q0 255 158.5 415.5t403.5 160.5q199 0 307 -107.5t108 -308.5q0 -29 -11 -35t-52 -6h-674
q-8 -32 -8 -115t25.5 -170.5t100.5 -182.5t236 -95q86 0 160 38t152 124l63 -58q-168 -202 -420 -210q-86 -53 -137 -118t-51 -113t27.5 -76.5t76.5 -28.5q91 0 195 108l59 -63q-129 -168 -321 -168z" />
    <glyph glyph-name="Ecaron" unicode="&#x11a;" horiz-adv-x="1486" 
d="M664 1743l-224 223h92l244 -111l244 111h92l-223 -223h-225zM532 866q219 0 303.5 54.5t84.5 181.5h71v-559h-71q0 127 -83.5 184t-304.5 57v-462q0 -133 73 -183.5t279 -50.5t298.5 67t134.5 248h78l-31 -403h-1272v78q142 4 183.5 46t41.5 187v955q0 142 -28.5 176.5
t-69.5 43.5t-106 13v78h1183l19 -360h-72q-23 158 -113.5 215t-302.5 57h-260q-35 0 -35 -35v-588z" />
    <glyph glyph-name="ecaron" unicode="&#x11b;" horiz-adv-x="1173" 
d="M549 1333l-244 264h92l244 -139l244 139h92l-244 -264h-184zM731 743q80 0 97.5 8.5t21.5 19.5t4 30q0 94 -60.5 150.5t-164.5 56.5q-221 0 -275 -265h377zM332 534q0 -83 25.5 -170.5t100.5 -182.5t236 -95q86 0 160 38t152 124l63 -58q-174 -210 -424 -210t-397.5 153
t-147.5 402q0 250 158.5 410.5t403.5 160.5q199 0 307 -107.5t108 -308.5q0 -29 -11 -35t-52 -6h-674q-8 -32 -8 -115z" />
    <glyph glyph-name="Gcircumflex" unicode="&#x11c;" horiz-adv-x="1781" 
d="M1026 1966l223 -223h-92l-244 110l-243 -110h-92l223 223h225zM273.5 245q-150.5 155 -150.5 521q0 365 216 598t568 233q123 0 231.5 -34.5t235.5 -112.5l43 127h72l-27 -471h-98q0 188 -129 286.5t-309 98.5q-250 0 -389.5 -191t-139.5 -523q0 -333 137.5 -510
t397.5 -177q191 0 304.5 84t113.5 204t-48.5 162t-156.5 42v77h581v-77q-99 0 -133 -37.5t-34 -145.5v-229q-85 0 -144 -19.5t-170 -80.5q-157 -90 -399 -90q-142 0 -282 55t-290.5 210z" />
    <glyph glyph-name="gcircumflex" unicode="&#x11d;" horiz-adv-x="1226" 
d="M688 1597l244 -264h-92l-244 140l-244 -140h-92l244 264h184zM1077 1106q82 0 126 -34t44 -80t-23.5 -66.5t-55.5 -20.5t-50 10.5t-33.5 21.5t-32 21.5t-52.5 10.5t-89 -35q49 -76 50 -191q0 -174 -109 -273t-326 -116q-125 -10 -174 -26.5t-49 -54.5t37.5 -53t97.5 -19
t101 -8.5t80.5 -8.5t79.5 -10t87 -12q147 -23 236.5 -114t89.5 -228q0 -172 -136 -262t-382 -90t-387 79t-141 207q0 86 53 145.5t126 59.5t128 -43q-55 -12 -90 -60.5t-35 -109.5q0 -90 89 -139t253 -49q350 0 350 215q0 82 -55.5 136t-117.5 62t-114.5 15.5t-102.5 13.5
t-93 10t-70 8q-233 24 -233 197q0 72 59 127t149 70v8q-89 36 -149.5 128.5t-60.5 183.5q0 169 114 271.5t298 102.5q183 0 298 -109q133 109 215 109zM560 440q87 0 135 78t48 218t-48 217t-136 77t-140 -78t-52 -213t53 -217t140 -82z" />
    <glyph glyph-name="Gbreve" unicode="&#x11e;" horiz-adv-x="1781" 
d="M911.5 1872q77.5 0 135 25.5t73.5 68.5h76q-8 -104 -87 -169.5t-197 -65.5t-197.5 67t-83.5 168h74q16 -43 72.5 -68.5t134 -25.5zM273.5 245q-150.5 155 -150.5 521q0 365 216 598t568 233q123 0 231.5 -34.5t235.5 -112.5l43 127h72l-27 -471h-98q0 188 -129 286.5
t-309 98.5q-250 0 -389.5 -191t-139.5 -523q0 -333 137.5 -510t397.5 -177q191 0 304.5 84t113.5 204t-48.5 162t-156.5 42v77h581v-77q-99 0 -133 -37.5t-34 -145.5v-229q-85 0 -144 -19.5t-170 -80.5q-157 -90 -399 -90q-142 0 -282 55t-290.5 210z" />
    <glyph glyph-name="gbreve" unicode="&#x11f;" horiz-adv-x="1226" 
d="M381 1398.5q-82 75.5 -86 190.5h74q18 -57 74.5 -91t132.5 -34t134 34t74 91h76q-8 -116 -87 -191t-195 -75q-115 0 -197 75.5zM1077 1106q82 0 126 -34t44 -80t-23.5 -66.5t-55.5 -20.5t-50 10.5t-33.5 21.5t-32 21.5t-52.5 10.5t-89 -35q49 -76 50 -191
q0 -174 -109 -273t-326 -116q-125 -10 -174 -26.5t-49 -54.5t37.5 -53t97.5 -19t101 -8.5t80.5 -8.5t79.5 -10t87 -12q147 -23 236.5 -114t89.5 -228q0 -172 -136 -262t-382 -90t-387 79t-141 207q0 86 53 145.5t126 59.5t128 -43q-55 -12 -90 -60.5t-35 -109.5
q0 -90 89 -139t253 -49q350 0 350 215q0 82 -55.5 136t-117.5 62t-114.5 15.5t-102.5 13.5t-93 10t-70 8q-233 24 -233 197q0 72 59 127t149 70v8q-89 36 -149.5 128.5t-60.5 183.5q0 169 114 271.5t298 102.5q183 0 298 -109q133 109 215 109zM560 440q87 0 135 78t48 218
t-48 217t-136 77t-140 -78t-52 -213t53 -217t140 -82z" />
    <glyph glyph-name="Gdotaccent" unicode="&#x120;" horiz-adv-x="1781" 
d="M807 1853q0 45 31.5 78t76.5 33t78 -33t33 -78t-32 -76.5t-78 -31.5t-77.5 31.5t-31.5 76.5zM273.5 245q-150.5 155 -150.5 521q0 365 216 598t568 233q123 0 231.5 -34.5t235.5 -112.5l43 127h72l-27 -471h-98q0 188 -129 286.5t-309 98.5q-250 0 -389.5 -191
t-139.5 -523q0 -333 137.5 -510t397.5 -177q191 0 304.5 84t113.5 204t-48.5 162t-156.5 42v77h581v-77q-99 0 -133 -37.5t-34 -145.5v-229q-85 0 -144 -19.5t-170 -80.5q-157 -90 -399 -90q-142 0 -282 55t-290.5 210z" />
    <glyph glyph-name="gdotaccent" unicode="&#x121;" horiz-adv-x="1226" 
d="M459 1521.5q0 53.5 36.5 90.5t90 37t90.5 -37t37 -90.5t-37 -90t-90.5 -36.5t-90 36.5t-36.5 90zM1077 1106q82 0 126 -34t44 -80t-23.5 -66.5t-55.5 -20.5t-50 10.5t-33.5 21.5t-32 21.5t-52.5 10.5t-89 -35q49 -76 50 -191q0 -174 -109 -273t-326 -116
q-125 -10 -174 -26.5t-49 -54.5t37.5 -53t97.5 -19t101 -8.5t80.5 -8.5t79.5 -10t87 -12q147 -23 236.5 -114t89.5 -228q0 -172 -136 -262t-382 -90t-387 79t-141 207q0 86 53 145.5t126 59.5t128 -43q-55 -12 -90 -60.5t-35 -109.5q0 -90 89 -139t253 -49q350 0 350 215
q0 82 -55.5 136t-117.5 62t-114.5 15.5t-102.5 13.5t-93 10t-70 8q-233 24 -233 197q0 72 59 127t149 70v8q-89 36 -149.5 128.5t-60.5 183.5q0 169 114 271.5t298 102.5q183 0 298 -109q133 109 215 109zM560 440q87 0 135 78t48 218t-48 217t-136 77t-140 -78t-52 -213
t53 -217t140 -82z" />
    <glyph glyph-name="Gcommaaccent" unicode="&#x122;" horiz-adv-x="1781" 
d="M844 -315q-37 0 -61.5 26.5t-24.5 71.5t33 75.5t91 30.5t92 -41.5t34 -113.5t-44 -130.5t-151 -115.5l-45 53q133 74 133 160q-20 -16 -57 -16zM273.5 245q-150.5 155 -150.5 521q0 365 216 598t568 233q123 0 231.5 -34.5t235.5 -112.5l43 127h72l-27 -471h-98
q0 188 -129 286.5t-309 98.5q-250 0 -389.5 -191t-139.5 -523q0 -333 137.5 -510t397.5 -177q191 0 304.5 84t113.5 204t-48.5 162t-156.5 42v77h581v-77q-99 0 -133 -37.5t-34 -145.5v-229q-85 0 -144 -19.5t-170 -80.5q-157 -90 -399 -90q-142 0 -282 55t-290.5 210z" />
    <glyph glyph-name="gcommaaccent" unicode="&#x123;" horiz-adv-x="1226" 
d="M1077 1106q82 0 126 -34t44 -80t-23.5 -66.5t-55.5 -20.5t-50 10.5t-33.5 21.5t-32 21.5t-52.5 10.5t-89 -35q49 -76 50 -191q0 -174 -109 -273t-326 -116q-125 -10 -174 -26.5t-49 -54.5t37.5 -53t97.5 -19t101 -8.5t80.5 -8.5t79.5 -10t87 -12q147 -23 236.5 -114
t89.5 -228q0 -172 -136 -262t-382 -90t-387 79t-141 207q0 86 53 145.5t126 59.5t128 -43q-55 -12 -90 -60.5t-35 -109.5q0 -90 89 -139t253 -49q350 0 350 215q0 82 -55.5 136t-117.5 62t-114.5 15.5t-102.5 13.5t-93 10t-70 8q-233 24 -233 197q0 72 59 127t149 70v8
q-89 36 -149.5 128.5t-60.5 183.5q0 169 114 271.5t298 102.5q183 0 298 -109q133 109 215 109zM560 440q87 0 135 78t48 218t-48 217t-136 77t-140 -78t-52 -213t53 -217t140 -82zM628 1538q38 0 62.5 -26.5t24.5 -71.5t-34 -76t-91 -31t-91 41t-34 108q0 147 194 253
l46 -54q-134 -75 -134 -159q19 16 57 16z" />
    <glyph glyph-name="Hcircumflex" unicode="&#x124;" horiz-adv-x="1894" 
d="M1063 1966l223 -223h-92l-244 110l-243 -110h-93l224 223h225zM1577 326q0 -156 39.5 -200t183.5 -48v-78h-663v78q141 4 183 46t42 187v445h-830v-430q0 -155 40 -199.5t184 -48.5v-78h-664v78q142 4 183.5 46t41.5 187v955q0 142 -28.5 176.5t-69.5 43.5t-106 13v78
h622v-78q-66 -2 -105.5 -12t-68.5 -46.5t-29 -189.5v-393h830v408q0 142 -28.5 176.5t-69.5 43.5t-107 13v78h623v-78q-132 -4 -167.5 -49t-35.5 -199v-925z" />
    <glyph glyph-name="hcircumflex" unicode="&#x125;" horiz-adv-x="1409" 
d="M883 1597l243 -264h-92l-243 140l-244 -140h-92l243 264h185zM426 326q0 -84 4 -133.5t21.5 -75t50.5 -33.5t92 -12v-72h-545v72q59 4 94 12t58.5 39t23.5 188v858q0 238 -9 282t-18.5 59.5t-35.5 28.5t-117 13v70l377 78v-780h8q59 79 175.5 132.5t217.5 53.5
q102 0 181 -33t118 -84t55.5 -128t16.5 -208v-327q0 -84 4 -132.5t21.5 -75t50.5 -34.5t92 -12v-72h-543v72q116 4 144 43.5t28 195.5v258q0 229 -53 326.5t-178 97.5q-96 0 -183 -54t-119 -135t-32 -216v-262z" />
    <glyph glyph-name="Hbar" unicode="&#x126;" horiz-adv-x="1898" 
d="M1364 858v250h-829v-250h829zM1579 1210h162v-102h-162v-782q0 -156 39.5 -200t183.5 -48v-78h-663v78q141 4 183 46t42 187v445h-829v-430q0 -156 39.5 -200t183.5 -48v-78h-664v78q142 4 183.5 46t41.5 187v797h-163v102h163v56q0 142 -28.5 176.5t-69.5 43.5t-106 13
v78h622v-78q-66 -2 -105.5 -12t-68 -46t-28.5 -190v-41h829v56q0 142 -28.5 176.5t-69.5 43.5t-107 13v78h623v-78q-132 -4 -167.5 -49t-35.5 -199v-41z" />
    <glyph glyph-name="hbar" unicode="&#x127;" horiz-adv-x="1409" 
d="M426 326q0 -84 4 -133.5t21.5 -75t50.5 -33.5t92 -12v-72h-545v72q59 4 94 12t58.5 39t23.5 188v914h-178v108h176q-3 141 -23.5 174.5t-65 39t-89.5 5.5v70l377 78v-367h196v-108h-196v-305h8q59 79 175.5 132.5t217.5 53.5q102 0 181 -33t118 -84t55.5 -128t16.5 -208
v-327q0 -84 4 -132.5t21.5 -75t50.5 -34.5t92 -12v-72h-543v72q116 4 144 43.5t28 195.5v258q0 229 -53 326.5t-178 97.5q-96 0 -183 -54t-119 -135t-32 -216v-262z" />
    <glyph glyph-name="Itilde" unicode="&#x128;" horiz-adv-x="849" 
d="M606 1872q39 0 59.5 19.5t36.5 66.5h68q-10 -104 -68.5 -173t-123.5 -69t-142.5 34t-119.5 49.5t-82 15.5t-59 -17.5t-34 -64.5h-69q16 104 76.5 168.5t129.5 64.5t140 -32.5t110 -47t78 -14.5zM532 387q0 -197 32 -242t76 -55t116 -12v-78h-664v78q72 2 116 13t68.5 42
t32.5 87t8 153v831q0 178 -36 232.5t-168 62.5v78h622v-78q-128 -4 -165.5 -62.5t-37.5 -246.5v-803z" />
    <glyph glyph-name="itilde" unicode="&#x129;" horiz-adv-x="698" 
d="M539 1491q39 0 59 19.5t37 66.5h67q-10 -104 -68.5 -173t-123.5 -69t-142 34t-119 49.5t-82 15.5t-59.5 -17.5t-33.5 -64.5h-70q16 104 76.5 168.5t128.5 64.5t140.5 -32.5t111.5 -47t78 -14.5zM467 332q0 -159 27.5 -196.5t64.5 -47.5t98 -12v-76h-587v76
q122 4 159 48.5t37 190.5v254q0 250 -14 299q-10 49 -47 66.5t-139 17.5v76l401 78v-774z" />
    <glyph glyph-name="Imacron" unicode="&#x12a;" horiz-adv-x="849" 
d="M145 1802v103h553v-103h-553zM532 387q0 -197 32 -242t76 -55t116 -12v-78h-664v78q72 2 116 13t68.5 42t32.5 87t8 153v831q0 178 -36 232.5t-168 62.5v78h622v-78q-128 -4 -165.5 -62.5t-37.5 -246.5v-803z" />
    <glyph glyph-name="imacron" unicode="&#x12b;" horiz-adv-x="698" 
d="M92 1438v102h553v-102h-553zM467 332q0 -159 27.5 -196.5t64.5 -47.5t98 -12v-76h-587v76q122 4 159 48.5t37 190.5v254q0 250 -14 299q-10 49 -47 66.5t-139 17.5v76l401 78v-774z" />
    <glyph glyph-name="Ibreve" unicode="&#x12c;" horiz-adv-x="849" 
d="M420 1872q78 0 135 25.5t74 68.5h76q-8 -104 -87 -169.5t-197 -65.5t-198 67t-84 168h74q16 -43 72.5 -68.5t134.5 -25.5zM532 387q0 -197 32 -242t76 -55t116 -12v-78h-664v78q72 2 116 13t68.5 42t32.5 87t8 153v831q0 178 -36 232.5t-168 62.5v78h622v-78
q-128 -4 -165.5 -62.5t-37.5 -246.5v-803z" />
    <glyph glyph-name="ibreve" unicode="&#x12d;" horiz-adv-x="698" 
d="M172 1398.5q-82 75.5 -86 190.5h74q18 -57 74.5 -91t133.5 -34t134 34t73 91h76q-8 -116 -87 -191t-195 -75q-115 0 -197 75.5zM467 332q0 -159 27.5 -196.5t64.5 -47.5t98 -12v-76h-587v76q122 4 159 48.5t37 190.5v254q0 250 -14 299q-10 49 -47 66.5t-139 17.5v76
l401 78v-774z" />
    <glyph glyph-name="Iogonek" unicode="&#x12e;" horiz-adv-x="849" 
d="M385 -356q89 0 195 108l59 -63q-72 -94 -151.5 -131t-171.5 -37t-144.5 46t-52.5 131t65.5 165t186.5 137h-279v78q72 2 116 13t68.5 42t32.5 87t8 153v831q0 178 -36 232.5t-168 62.5v78h622v-78q-128 -4 -165.5 -62.5t-37.5 -246.5v-803q0 -197 32 -242t76 -55t116 -12
v-78h-252q-100 -53 -161.5 -126t-61.5 -123t27.5 -78.5t76.5 -28.5z" />
    <glyph glyph-name="iogonek" unicode="&#x12f;" horiz-adv-x="698" 
d="M231 1521.5q0 53.5 37 90.5t90.5 37t90 -37t36.5 -90.5t-36.5 -90t-90 -36.5t-90.5 36.5t-37 90zM225 -479q-94 0 -146 46t-52 131t65.5 165t186.5 137h-209v72q122 4 159 48t37 191v262q0 252 -12 300t-49 65.5t-139 17.5v72l401 78v-780q0 -157 27.5 -194.5t64.5 -47.5
t98 -12v-72h-245q-100 -53 -162 -126t-62 -123t28 -78.5t77 -28.5q90 0 194 108l60 -63q-129 -168 -322 -168z" />
    <glyph glyph-name="Idotaccent" unicode="&#x130;" horiz-adv-x="849" 
d="M317 1853q0 45 32 78t77 33t78 -33t33 -78t-33 -76.5t-78 -31.5t-77 31.5t-32 76.5zM532 387q0 -197 32 -242t76 -55t116 -12v-78h-664v78q72 2 116 13t68.5 42t32.5 87t8 153v831q0 178 -36 232.5t-168 62.5v78h622v-78q-128 -4 -165.5 -62.5t-37.5 -246.5v-803z" />
    <glyph glyph-name="dotlessi" unicode="&#x131;" horiz-adv-x="698" 
d="M467 332q0 -159 27.5 -196.5t64.5 -47.5t98 -12v-76h-587v76q122 4 159 48.5t37 190.5v254q0 250 -14 299q-10 49 -47 66.5t-139 17.5v76l401 78v-774z" />
    <glyph glyph-name="IJ" unicode="&#x132;" horiz-adv-x="1656" 
d="M1147 1266q0 142 -28.5 176.5t-69.5 43.5t-107 13v78h623v-78q-132 -4 -167.5 -49t-35.5 -199v-1255q0 -258 -108.5 -393t-317.5 -135q-141 0 -226 54t-85 144q0 53 27.5 81t71.5 28t67.5 -19.5t56.5 -81.5t58.5 -85t66.5 -23q84 0 129 90t45 256v1354zM532 387
q0 -197 32 -242t76 -55t116 -12v-78h-664v78q72 2 116 13t68.5 42t32.5 87t8 153v831q0 178 -36 232.5t-168 62.5v78h622v-78q-128 -4 -165.5 -62.5t-37.5 -246.5v-803z" />
    <glyph glyph-name="ij" unicode="&#x133;" horiz-adv-x="1320" 
d="M903 1521.5q0 53.5 37 90.5t90 37t90 -37t37 -90.5t-37 -90t-90 -36.5t-90 36.5t-37 90zM418 -342q0 96 104 96q37 0 56.5 -17.5t49.5 -78.5t54.5 -81.5t75.5 -20.5q98 0 137 67.5t39 237.5v712q0 252 -12 300t-49 65.5t-140 17.5v72l402 78v-1110q0 -256 -107.5 -392
t-312.5 -136q-131 0 -214 52t-83 138zM231 1521.5q0 53.5 37 90.5t90.5 37t90 -37t36.5 -90.5t-36.5 -90t-90 -36.5t-90.5 36.5t-37 90zM467 326q0 -157 27.5 -194.5t64.5 -47.5t98 -12v-72h-587v72q122 4 159 48t37 191v262q0 252 -12 300t-49 65.5t-139 17.5v72l401 78
v-780z" />
    <glyph glyph-name="Jcircumflex" unicode="&#x134;" horiz-adv-x="806" 
d="M520 1966l223 -223h-92l-243 110l-244 -110h-92l223 223h225zM297 1266q0 142 -28.5 176.5t-69.5 43.5t-107 13v78h623v-78q-132 -4 -167.5 -49t-35.5 -199v-1255q0 -258 -108.5 -393t-317.5 -135q-141 0 -226 54t-85 144q0 53 27.5 81t71.5 28t67.5 -19.5t56.5 -81.5
t58.5 -85t66.5 -23q84 0 129 90t45 256v1354z" />
    <glyph glyph-name="jcircumflex" unicode="&#x135;" horiz-adv-x="622" 
d="M424 1597l244 -264h-93l-243 140l-244 -140h-92l244 264h184zM436 -4q0 -256 -107.5 -392t-312.5 -136q-131 0 -214 52t-83 138q0 47 28 71.5t71 24.5t62.5 -17.5t49.5 -78.5t54 -81.5t75 -20.5q98 0 137.5 67.5t39.5 237.5v712q0 248 -12 298t-49.5 67.5t-139.5 17.5v72
l401 78v-1110z" />
    <glyph glyph-name="Kcommaaccent" unicode="&#x136;" horiz-adv-x="1595" 
d="M805 -315q-37 0 -61.5 26.5t-24.5 71.5t33.5 75.5t91.5 30.5t91.5 -41.5t33.5 -113.5t-44 -130.5t-151 -115.5l-45 53q133 74 133 160q-20 -16 -57 -16zM993 78q150 0 150 55q0 38 -70 123l-399 492l-142 -164v-258q0 -157 33 -193.5t76 -45.5t115 -9v-78h-664v78
q143 0 184 43t41 190v955q0 151 -32.5 185t-71.5 41t-100 7v78h622v-78q-61 0 -100 -8t-71 -44t-32 -196v-506l512 617q41 51 41 80q0 57 -116 57v78h493v-76q-84 0 -134 -27.5t-136 -125.5l-385 -445l598 -719q51 -59 96 -82.5t121 -23.5v-78h-629v78z" />
    <glyph glyph-name="kcommaaccent" unicode="&#x137;" horiz-adv-x="1261" 
d="M629 -315q-37 0 -61.5 26.5t-24.5 71.5t33.5 75.5t91.5 30.5t91.5 -41.5t33.5 -113.5t-44 -130.5t-151 -115.5l-45 53q133 74 133 160q-20 -16 -57 -16zM799 978q0 36 -166 36v71h532v-71q-80 0 -123.5 -21.5t-117.5 -87.5l-295 -262l405 -459q56 -68 99.5 -90t117.5 -22
v-72h-538v72q118 0 118 22q-4 32 -112 162l-217 262l-76 -72v-120q0 -156 26.5 -194t64.5 -48t99 -12v-72h-581v72q122 4 159 49.5t37 189.5v858q0 156 -3 236t-21.5 108.5t-61.5 33.5t-114 5v70l395 78v-1125l190 187q92 92 137.5 136t45.5 80z" />
    <glyph glyph-name="kgreenlandic" unicode="&#x138;" horiz-adv-x="1296" 
d="M748 72q66 0 86 6t20 31t-100 147l-217 262l-76 -72v-120q0 -162 34 -208t156 -46v-72h-581v72q120 0 158 45t38 194v426q0 163 -26.5 195.5t-66.5 39.5t-107 7v70l395 77v-551l190 187q176 169 176 201t-34.5 41.5t-124.5 9.5v71h532v-71q-78 0 -120 -20.5t-122 -88.5
l-294 -262l405 -459q59 -68 104.5 -90t112.5 -22v-72h-538v72z" />
    <glyph glyph-name="Lacute" unicode="&#x139;" horiz-adv-x="1488" 
d="M645 1966q94 0 94 -72q0 -58 -153 -96l-246 -57h-123l266 157q110 68 162 68zM92 0v78q142 4 183.5 46t41.5 187v955q0 142 -28.5 176.5t-69.5 43.5t-106 13v78h622v-78q-66 -2 -105.5 -12t-68.5 -46.5t-29 -189.5v-882q0 -170 76 -223.5t299 -53.5t299 47t108 107.5
t54 156.5h78l-31 -403h-1323z" />
    <glyph glyph-name="lacute" unicode="&#x13a;" horiz-adv-x="665" 
d="M557 1966q94 0 94 -72q0 -58 -153 -96l-246 -57h-123l266 157q111 68 162 68zM428 319q0 -156 25.5 -190.5t61.5 -44.5t95 -12v-72h-565v72q117 4 155 47t38 186v842q0 228 -12 281t-49.5 69t-135.5 16v70l387 76v-1340z" />
    <glyph glyph-name="Lcommaaccent" unicode="&#x13b;" horiz-adv-x="1488" 
d="M742 -315q-38 0 -62.5 26.5t-24.5 71.5t34 75.5t91 30.5t91 -41.5t34 -113.5t-44 -130.5t-150 -115.5l-45 53q133 74 133 160q-19 -16 -57 -16zM92 0v78q142 4 183.5 46t41.5 187v955q0 142 -28.5 176.5t-69.5 43.5t-106 13v78h622v-78q-66 -2 -105.5 -12t-68.5 -46.5
t-29 -189.5v-882q0 -170 76 -223.5t299 -53.5t299 47t108 107.5t54 156.5h78l-31 -403h-1323z" />
    <glyph glyph-name="lcommaaccent" unicode="&#x13c;" horiz-adv-x="665" 
d="M297 -315q-37 0 -61.5 26.5t-24.5 71.5t34 75.5t91 30.5t91 -41.5t34 -113.5t-44 -130.5t-151 -115.5l-45 53q133 74 133 160q-20 -16 -57 -16zM428 319q0 -156 25.5 -190.5t61.5 -44.5t95 -12v-72h-565v72q117 4 155 47t38 186v883q0 228 -12 281t-49.5 69t-135.5 16v70
l387 76v-1381z" />
    <glyph glyph-name="Lcaron" unicode="&#x13d;" horiz-adv-x="1488" 
d="M309 1743l-223 223h92l244 -111l244 111h92l-223 -223h-226zM92 0v78q142 4 183.5 46t41.5 187v955q0 142 -28.5 176.5t-69.5 43.5t-106 13v78h622v-78q-66 -2 -105.5 -12t-68.5 -46.5t-29 -189.5v-882q0 -170 76 -223.5t299 -53.5t299 47t108 107.5t54 156.5h78
l-31 -403h-1323z" />
    <glyph glyph-name="lcaron" unicode="&#x13e;" horiz-adv-x="665" 
d="M678 1393q-37 0 -61.5 26.5t-24.5 71.5t33 75.5t91 30.5t92 -41.5t34 -113.5t-44 -130.5t-151 -115.5l-45 53q133 74 133 160q-20 -16 -57 -16zM428 319q0 -156 25.5 -190.5t61.5 -44.5t95 -12v-72h-565v72q117 4 155 47t38 186v883q0 228 -12 281t-49.5 69t-135.5 16v70
l387 76v-1381z" />
    <glyph glyph-name="Ldot" unicode="&#x13f;" horiz-adv-x="1488" 
d="M803 822q0 56 39 95t95 39t95 -39t39 -95t-39 -95t-95 -39t-95 39t-39 95zM92 0v78q142 4 183.5 46t41.5 187v955q0 142 -28.5 176.5t-69.5 43.5t-106 13v78h622v-78q-66 -2 -105.5 -12t-68.5 -46.5t-29 -189.5v-882q0 -170 76 -223.5t299 -53.5t299 47t108 107.5
t54 156.5h78l-31 -403h-1323z" />
    <glyph glyph-name="ldot" unicode="&#x140;" horiz-adv-x="825" 
d="M606 853q0 56 39 95t95 39t95 -39t39 -95t-39 -95t-95 -39t-95 39t-39 95zM428 319q0 -156 25.5 -190.5t61.5 -44.5t95 -12v-72h-565v72q117 4 155 47t38 186v883q0 228 -12 281t-49.5 69t-135.5 16v70l387 76v-1381z" />
    <glyph glyph-name="Lslash" unicode="&#x141;" horiz-adv-x="1490" 
d="M94 0v78q142 4 183.5 46t41.5 187v351l-184 -115v123l184 114v482q0 142 -28.5 176.5t-69.5 43.5t-106 13v78h622v-78q-66 -2 -105.5 -12t-68 -46t-28.5 -190v-331l264 165v-122l-264 -166v-428q0 -171 75.5 -224t298.5 -53t299 47t108 107.5t54 156.5h78l-31 -403h-1323
z" />
    <glyph glyph-name="lslash" unicode="&#x142;" horiz-adv-x="669" 
d="M430 319q0 -156 25.5 -190.5t61.5 -44.5t95 -12v-72h-565v72q117 4 155 47t38 186v395l-164 -102v133l164 103v354q0 228 -12 281t-49.5 69t-135.5 16v70l387 76v-748l162 101v-133l-162 -101v-500z" />
    <glyph glyph-name="Nacute" unicode="&#x143;" horiz-adv-x="1847" 
d="M1174 1966q94 0 94 -72q0 -59 -154 -96l-246 -57h-123l267 157q111 68 162 68zM440 1262v-875q0 -198 29 -242.5t69 -54.5t105 -12v-78h-551v78q72 2 116 13t68.5 42t32.5 87t8 153v831q0 178 -36 232.5t-168 62.5v78h405l895 -1194h8v807q0 200 -28.5 243.5t-68.5 53.5
t-105 12v78h550v-78q-72 -2 -115.5 -13t-76.5 -53t-33 -229v-1224h-123l-972 1282h-9z" />
    <glyph glyph-name="nacute" unicode="&#x144;" horiz-adv-x="1411" 
d="M942 1645q35 0 56.5 -18.5t21.5 -52.5q0 -60 -105 -108l-280 -133h-96l266 244q74 68 137 68zM842 1106q94 0 172 -31t116 -81t52 -124.5t14 -205.5v-342q0 -166 21.5 -199t55.5 -41t89 -12v-70h-531v70q114 4 142 43.5t28 193.5v271q0 233 -51.5 325t-181.5 92
q-92 0 -178 -53.5t-117 -135.5t-31 -210v-274q0 -168 21.5 -200t55.5 -40t93 -12v-70h-536v70q57 4 91 12t57.5 39t23.5 186v273q0 244 -9 284t-18.5 57t-35 29.5t-113.5 12.5v65l327 78l25 -203h8q165 203 410 203z" />
    <glyph glyph-name="Ncommaaccent" unicode="&#x145;" horiz-adv-x="1847" 
d="M901 -315q-37 0 -61.5 26.5t-24.5 71.5t34 75.5t91 30.5t91 -41.5t34 -113.5t-44 -130.5t-151 -115.5l-45 53q133 74 133 160q-20 -16 -57 -16zM440 1262v-875q0 -198 29 -242.5t69 -54.5t105 -12v-78h-551v78q72 2 116 13t68.5 42t32.5 87t8 153v831q0 178 -36 232.5
t-168 62.5v78h405l895 -1194h8v807q0 200 -28.5 243.5t-68.5 53.5t-105 12v78h550v-78q-72 -2 -115.5 -13t-76.5 -53t-33 -229v-1224h-123l-972 1282h-9z" />
    <glyph glyph-name="ncommaaccent" unicode="&#x146;" horiz-adv-x="1411" 
d="M684 -315q-37 0 -61.5 26.5t-24.5 71.5t34 75.5t91 30.5t91 -41.5t34 -113.5t-44 -130.5t-151 -115.5l-45 53q133 74 133 160q-20 -16 -57 -16zM842 1106q94 0 172 -31t116 -81t52 -124.5t14 -205.5v-342q0 -166 21.5 -199t55.5 -41t89 -12v-70h-531v70q114 4 142 43.5
t28 193.5v271q0 233 -51.5 325t-181.5 92q-92 0 -178 -53.5t-117 -135.5t-31 -210v-274q0 -168 21.5 -200t55.5 -40t93 -12v-70h-536v70q57 4 91 12t57.5 39t23.5 186v273q0 244 -9 284t-18.5 57t-35 29.5t-113.5 12.5v65l327 78l25 -203h8q165 203 410 203z" />
    <glyph glyph-name="Ncaron" unicode="&#x147;" horiz-adv-x="1847" 
d="M838 1743l-224 223h93l243 -111l244 111h92l-223 -223h-225zM440 1262v-875q0 -198 29 -242.5t69 -54.5t105 -12v-78h-551v78q72 2 116 13t68.5 42t32.5 87t8 153v831q0 178 -36 232.5t-168 62.5v78h405l895 -1194h8v807q0 200 -28.5 243.5t-68.5 53.5t-105 12v78h550
v-78q-72 -2 -115.5 -13t-76.5 -53t-33 -229v-1224h-123l-972 1282h-9z" />
    <glyph glyph-name="ncaron" unicode="&#x148;" horiz-adv-x="1411" 
d="M631 1333l-244 264h92l244 -139l244 139h92l-244 -264h-184zM842 1106q94 0 172 -31t116 -81t52 -124.5t14 -205.5v-342q0 -166 21.5 -199t55.5 -41t89 -12v-70h-531v70q114 4 142 43.5t28 193.5v271q0 233 -51.5 325t-181.5 92q-92 0 -178 -53.5t-117 -135.5t-31 -210
v-274q0 -168 21.5 -200t55.5 -40t93 -12v-70h-536v70q57 4 91 12t57.5 39t23.5 186v273q0 244 -9 284t-18.5 57t-35 29.5t-113.5 12.5v65l327 78l25 -203h8q165 203 410 203z" />
    <glyph glyph-name="napostrophe" unicode="&#x149;" horiz-adv-x="1554" 
d="M250 1604q0 -38 -66 -353h-59q-11 59 -39.5 188.5t-28.5 166.5q0 36 28 65t69 29t68.5 -29t27.5 -67zM985 1106q94 0 172 -31t116 -81t52 -124.5t14 -205.5v-342q0 -163 21.5 -197.5t55.5 -42.5t89 -12v-70h-530v70q114 4 142 43.5t28 193.5v271q0 231 -52 324t-182 93
q-92 0 -176 -52.5t-116.5 -133.5t-32.5 -213v-274q0 -84 4 -132.5t21.5 -74t51 -33.5t93.5 -12v-70h-537v70q57 4 91 12t57.5 39t23.5 186v273q0 244 -9 284t-18.5 57t-35 29.5t-113.5 12.5v65l328 78l24 -203h8q165 203 410 203z" />
    <glyph glyph-name="Eng" unicode="&#x14a;" horiz-adv-x="1847" 
d="M440 1262v-875q0 -198 29 -242.5t69 -54.5t105 -12v-78h-551v78q72 2 116 13t68.5 42t32.5 87t8 153v831q0 178 -36 232.5t-168 62.5v78h405l895 -1194h8v807q0 200 -28.5 243.5t-68.5 53.5t-105 12v78h550v-78q-72 -2 -115.5 -13t-76.5 -53t-33 -229v-1224
q0 -250 -110.5 -381t-315.5 -131q-141 0 -226 54t-85 144q0 53 27.5 81t71.5 28t67.5 -19.5t56.5 -81.5t58.5 -85t66.5 -23q127 0 196.5 90t69.5 256v68l-972 1282h-9z" />
    <glyph glyph-name="eng" unicode="&#x14b;" horiz-adv-x="1359" 
d="M842 1106q94 0 172 -31t116 -81t52 -124.5t14 -205.5v-668q0 -256 -107.5 -392t-312.5 -136q-131 0 -214 52t-83 138q0 47 28 71.5t71 24.5t62 -17.5t49 -78.5t54.5 -81.5t75.5 -20.5q98 0 140 67.5t42 237.5v717q0 233 -51.5 325t-181.5 92q-92 0 -178 -53.5
t-117 -135.5t-31 -210v-274q0 -168 21.5 -200t55.5 -40t93 -12v-70h-536v70q57 4 91 12t57.5 39t23.5 186v273q0 244 -9 284t-18.5 57t-35 29.5t-113.5 12.5v65l327 78l25 -203h8q165 203 410 203z" />
    <glyph glyph-name="Omacron" unicode="&#x14c;" horiz-adv-x="1937" 
d="M694 1802v103h553v-103h-553zM1554 777q0 322 -158 515t-428 193t-427.5 -194t-157.5 -514t157 -502.5t427 -182.5t428.5 181.5t158.5 503.5zM968.5 1597q180.5 0 336 -63.5t270.5 -174t180.5 -260t65.5 -319.5t-66.5 -315.5t-181.5 -253t-270.5 -169.5t-333.5 -62
t-334 62t-270.5 169.5t-181 253t-66.5 315.5t65.5 319.5t180 260t270 174t336 63.5z" />
    <glyph glyph-name="omacron" unicode="&#x14d;" horiz-adv-x="1339" 
d="M389 1438v102h553v-102h-553zM421.5 882q-91.5 -126 -91.5 -337t91.5 -336t245.5 -125t248.5 127t94.5 335t-95.5 335t-248.5 127t-244.5 -126zM1071 947q170 -159 170 -401q0 -241 -170 -403.5t-406 -162.5t-401.5 161.5t-165.5 405.5q0 245 166.5 402t401.5 157
t405 -159z" />
    <glyph glyph-name="Obreve" unicode="&#x14e;" horiz-adv-x="1937" 
d="M969 1872q78 0 135 25.5t74 68.5h75q-8 -104 -87 -169.5t-197 -65.5t-197.5 67t-83.5 168h74q16 -43 72.5 -68.5t134.5 -25.5zM1554 777q0 322 -158 515t-428 193t-427.5 -194t-157.5 -514t157 -502.5t427 -182.5t428.5 181.5t158.5 503.5zM968.5 1597q180.5 0 336 -63.5
t270.5 -174t180.5 -260t65.5 -319.5t-66.5 -315.5t-181.5 -253t-270.5 -169.5t-333.5 -62t-334 62t-270.5 169.5t-181 253t-66.5 315.5t65.5 319.5t180 260t270 174t336 63.5z" />
    <glyph glyph-name="obreve" unicode="&#x14f;" horiz-adv-x="1339" 
d="M469 1398.5q-82 75.5 -86 190.5h74q18 -57 74.5 -91t133.5 -34t134 34t73 91h76q-8 -116 -87 -191t-195 -75q-115 0 -197 75.5zM421.5 882q-91.5 -126 -91.5 -337t91.5 -336t245.5 -125t248.5 127t94.5 335t-95.5 335t-248.5 127t-244.5 -126zM1071 947
q170 -159 170 -401q0 -241 -170 -403.5t-406 -162.5t-401.5 161.5t-165.5 405.5q0 245 166.5 402t401.5 157t405 -159z" />
    <glyph glyph-name="Ohungarumlaut" unicode="&#x150;" horiz-adv-x="1937" 
d="M1381 1966q96 0 96 -72q0 -59 -154 -96l-225 -57h-123l246 157q107 68 160 68zM998 1966q96 0 96 -72q0 -59 -154 -96l-225 -57h-123l246 157q107 68 160 68zM1554 777q0 322 -158 515t-428 193t-427.5 -194t-157.5 -514t157 -502.5t427 -182.5t428.5 181.5t158.5 503.5z
M968.5 1597q180.5 0 336 -63.5t270.5 -174t180.5 -260t65.5 -319.5t-66.5 -315.5t-181.5 -253t-270.5 -169.5t-333.5 -62t-334 62t-270.5 169.5t-181 253t-66.5 315.5t65.5 319.5t180 260t270 174t336 63.5z" />
    <glyph glyph-name="ohungarumlaut" unicode="&#x151;" horiz-adv-x="1339" 
d="M1149 1645q35 0 56.5 -18.5t21.5 -52.5q0 -59 -105 -108l-280 -133h-97l267 244q74 68 137 68zM743 1645q35 0 56.5 -18.5t21.5 -52.5q0 -59 -104 -108l-281 -133h-96l266 244q74 68 137 68zM421.5 882q-91.5 -126 -91.5 -337t91.5 -336t245.5 -125t248.5 127t94.5 335
t-95.5 335t-248.5 127t-244.5 -126zM1071 947q170 -159 170 -401q0 -241 -170 -403.5t-406 -162.5t-401.5 161.5t-165.5 405.5q0 245 166.5 402t401.5 157t405 -159z" />
    <glyph glyph-name="OE" unicode="&#x152;" horiz-adv-x="2359" 
d="M971 1495q-273 0 -429.5 -196t-156.5 -520t156.5 -508.5t429.5 -184.5q72 0 114.5 8t66.5 33t31 69t7 115v955q0 142 -43 185.5t-176 43.5zM1440 1489q-35 0 -35 -35v-588q207 0 297 49t90 187h72v-559h-72q0 141 -86.5 191t-300.5 50v-462q0 -133 73 -183.5t279 -50.5
q205 0 298.5 68t133.5 247h78l-31 -403h-1271q-178 0 -333 60.5t-268.5 166t-179 246.5t-65.5 306t65.5 311.5t180 255t270.5 170t336 61.5h1198l18 -360h-71q-23 157 -113 214.5t-303 57.5h-260z" />
    <glyph glyph-name="oe" unicode="&#x153;" horiz-adv-x="2082" 
d="M1640 743q81 0 98 8.5t21 19.5t4 30q0 94 -60.5 150.5t-164.5 56.5q-221 0 -274 -265h376zM421.5 882q-91.5 -126 -91.5 -337t91.5 -336t243.5 -125t246.5 122.5t98.5 323.5v19q0 205 -95.5 332t-248.5 127t-244.5 -126zM675 -20q-246 0 -411.5 161.5t-165.5 405.5
q0 245 166.5 402t401.5 157q137 0 256.5 -57.5t199.5 -155.5q74 100 188.5 156.5t260.5 56.5q199 0 307.5 -107.5t108.5 -308.5q0 -29 -11.5 -35t-52.5 -6h-674q-8 -32 -8 -92v-22q4 -207 103 -328t260 -121q86 0 159.5 38t151.5 124l63 -58q-174 -210 -444 -210t-422 206
q-80 -98 -196.5 -152t-240.5 -54z" />
    <glyph glyph-name="Racute" unicode="&#x154;" horiz-adv-x="1613" 
d="M991 1966q94 0 94 -72q0 -58 -153 -96l-246 -57h-123l266 157q110 68 162 68zM532 850h146q205 0 304 74.5t99 243.5t-78.5 241t-246.5 72h-189q-35 0 -35 -35v-596zM1348 1182q0 -347 -412 -418l453 -545q55 -68 121.5 -97.5t158.5 -43.5v-78h-395l-502 643
q-51 66 -96 85.5t-144 19.5v-426q0 -76 9.5 -124t49 -84t224.5 -36v-78h-723v78q142 4 183.5 46t41.5 187v955q0 142 -28.5 176.5t-69.5 43.5t-106 13v78h643q283 0 437.5 -104.5t154.5 -290.5z" />
    <glyph glyph-name="racute" unicode="&#x155;" horiz-adv-x="976" 
d="M772 1645q35 0 56.5 -18.5t21.5 -52.5q0 -60 -105 -108l-280 -133h-96l266 244q74 68 137 68zM455 326q0 -84 4 -133.5t21.5 -75t50 -33.5t92.5 -12v-72h-545v72q117 4 146.5 43t29.5 196v240q0 139 -3 217t-20.5 115t-54.5 44t-102 7v72l358 77l29 -254h8
q84 189 193.5 233t169.5 44t97.5 -32t37.5 -83t-31 -78.5t-76 -27.5q-61 0 -107.5 25.5t-66.5 25.5q-55 0 -143 -112t-88 -429v-69z" />
    <glyph glyph-name="Rcommaaccent" unicode="&#x156;" horiz-adv-x="1613" 
d="M805 -315q-37 0 -61.5 26.5t-24.5 71.5t33.5 75.5t91.5 30.5t91.5 -41.5t33.5 -113.5t-44 -130.5t-151 -115.5l-45 53q133 74 133 160q-20 -16 -57 -16zM532 850h146q205 0 304 74.5t99 243.5t-78.5 241t-246.5 72h-189q-35 0 -35 -35v-596zM1348 1182q0 -347 -412 -418
l453 -545q55 -68 121.5 -97.5t158.5 -43.5v-78h-395l-502 643q-51 66 -96 85.5t-144 19.5v-426q0 -76 9.5 -124t49 -84t224.5 -36v-78h-723v78q142 4 183.5 46t41.5 187v955q0 142 -28.5 176.5t-69.5 43.5t-106 13v78h643q283 0 437.5 -104.5t154.5 -290.5z" />
    <glyph glyph-name="rcommaaccent" unicode="&#x157;" horiz-adv-x="976" 
d="M320 -315q-37 0 -62 26.5t-25 71.5t34 75.5t91 30.5t91 -41.5t34 -113.5t-44 -130.5t-150 -115.5l-45 53q133 74 133 160q-20 -16 -57 -16zM455 326q0 -84 4 -133.5t21.5 -75t50 -33.5t92.5 -12v-72h-545v72q117 4 146.5 43t29.5 196v240q0 139 -3 217t-20.5 115
t-54.5 44t-102 7v72l358 77l29 -254h8q84 189 193.5 233t169.5 44t97.5 -32t37.5 -83t-31 -78.5t-76 -27.5q-61 0 -107.5 25.5t-66.5 25.5q-55 0 -143 -112t-88 -429v-69z" />
    <glyph glyph-name="Rcaron" unicode="&#x158;" horiz-adv-x="1613" 
d="M655 1743l-223 223h92l244 -111l244 111h92l-223 -223h-226zM532 850h146q205 0 304 74.5t99 243.5t-78.5 241t-246.5 72h-189q-35 0 -35 -35v-596zM1348 1182q0 -347 -412 -418l453 -545q55 -68 121.5 -97.5t158.5 -43.5v-78h-395l-502 643q-51 66 -96 85.5t-144 19.5
v-426q0 -76 9.5 -124t49 -84t224.5 -36v-78h-723v78q142 4 183.5 46t41.5 187v955q0 142 -28.5 176.5t-69.5 43.5t-106 13v78h643q283 0 437.5 -104.5t154.5 -290.5z" />
    <glyph glyph-name="rcaron" unicode="&#x159;" horiz-adv-x="976" 
d="M461 1333l-244 264h92l244 -139l244 139h92l-244 -264h-184zM455 326q0 -84 4 -133.5t21.5 -75t50 -33.5t92.5 -12v-72h-545v72q117 4 146.5 43t29.5 196v240q0 139 -3 217t-20.5 115t-54.5 44t-102 7v72l358 77l29 -254h8q84 189 193.5 233t169.5 44t97.5 -32t37.5 -83
t-31 -78.5t-76 -27.5q-61 0 -107.5 25.5t-66.5 25.5q-55 0 -143 -112t-88 -429v-69z" />
    <glyph glyph-name="Sacute" unicode="&#x15a;" horiz-adv-x="1320" 
d="M965 1894q0 -59 -154 -96l-246 -57h-123l267 157q111 68 162 68q94 0 94 -72zM450.5 1431.5q-73.5 -61.5 -73.5 -161.5t70.5 -170t232.5 -142q312 -139 421 -246t109 -268q0 -205 -154.5 -334.5t-402.5 -129.5q-117 0 -210 32.5t-189 110.5l-57 -100h-47l-31 458h76
q28 -183 154 -290t294 -107t256 71.5t88 184.5t-75.5 187t-242.5 146t-253 123.5t-159 129.5t-73 252t128.5 296.5t316.5 122.5t340 -120l53 92h47l23 -408h-76q-97 332 -367 332q-125 0 -198.5 -61.5z" />
    <glyph glyph-name="sacute" unicode="&#x15b;" horiz-adv-x="929" 
d="M707 1645q35 0 56 -18.5t21 -52.5q0 -59 -104 -108l-281 -133h-96l266 244q74 68 138 68zM741 1085v-294h-53q-45 125 -98 178t-127 53t-116 -37t-42 -87t11.5 -75.5t43.5 -57.5t133 -94q203 -125 272 -199t69 -181q0 -145 -95 -228t-251 -83t-271 92l-41 -72h-45v352h51
q80 -289 291 -289q82 0 130 40t48 110t-41 107.5t-153 107.5q-113 70 -164 106.5t-103.5 94t-52.5 179.5t88 210t212 88t225 -64l40 43h39z" />
    <glyph glyph-name="Scircumflex" unicode="&#x15c;" horiz-adv-x="1320" 
d="M760 1966l223 -223h-92l-244 110l-244 -110h-92l224 223h225zM450.5 1431.5q-73.5 -61.5 -73.5 -161.5t70.5 -170t232.5 -142q312 -139 421 -246t109 -268q0 -205 -154.5 -334.5t-402.5 -129.5q-117 0 -210 32.5t-189 110.5l-57 -100h-47l-31 458h76q28 -183 154 -290
t294 -107t256 71.5t88 184.5t-75.5 187t-242.5 146t-253 123.5t-159 129.5t-73 252t128.5 296.5t316.5 122.5t340 -120l53 92h47l23 -408h-76q-97 332 -367 332q-125 0 -198.5 -61.5z" />
    <glyph glyph-name="scircumflex" unicode="&#x15d;" horiz-adv-x="929" 
d="M549 1597l244 -264h-93l-243 140l-244 -140h-92l244 264h184zM741 1085v-294h-53q-45 125 -98 178t-127 53t-116 -37t-42 -87t11.5 -75.5t43.5 -57.5t133 -94q203 -125 272 -199t69 -181q0 -145 -95 -228t-251 -83t-271 92l-41 -72h-45v352h51q80 -289 291 -289
q82 0 130 40t48 110t-41 107.5t-153 107.5q-113 70 -164 106.5t-103.5 94t-52.5 179.5t88 210t212 88t225 -64l40 43h39z" />
    <glyph glyph-name="uni015E" unicode="&#x15e;" horiz-adv-x="1320" 
d="M899 155.5q88 71.5 88 184.5t-75.5 187t-242.5 146t-253 123.5t-159 129.5t-73 252t128.5 296.5t316.5 122.5t340 -120l53 92h47l23 -408h-76q-97 332 -367 332q-125 0 -198.5 -61.5t-73.5 -161.5t70.5 -170t232.5 -142q312 -139 421 -246t109 -268q0 -198 -143.5 -324
t-374.5 -138l-47 -129q254 0 254 -177q0 -98 -69.5 -153t-181.5 -55t-177 43t-65 115t63 71q23 0 36 -13.5t31 -54.5t38 -57t60 -16t68.5 27.5t28.5 74.5q0 111 -162 111q-44 0 -71 -5l-6 11l90 209q-178 16 -328 139l-57 -100h-47l-31 458h76q28 -183 154 -290t294 -107
t256 71.5z" />
    <glyph glyph-name="uni015F" unicode="&#x15f;" horiz-adv-x="929" 
d="M403 -231q-44 0 -71 -5l-6 11l90 211q-117 18 -199 86l-41 -72h-45v352h51q80 -289 291 -289q82 0 130 40t48 110t-41 107.5t-153 107.5q-113 70 -164 106.5t-103.5 94t-52.5 179.5t88 210t212 88t225 -64l40 43h39v-294h-53q-45 125 -98 178t-127 53t-116 -37t-42 -87
t11.5 -75.5t43.5 -57.5t133 -94q203 -125 272 -199t69 -196t-85 -203t-223 -91l-47 -129q254 0 254 -177q0 -98 -69.5 -153t-181.5 -55t-177 43t-65 115t63 71q23 0 36 -13.5t31 -54.5t38 -57t60 -16t68.5 27.5t28.5 74.5q0 111 -162 111z" />
    <glyph glyph-name="Scaron" unicode="&#x160;" horiz-adv-x="1320" 
d="M535 1743l-224 223h92l244 -111l244 111h92l-223 -223h-225zM450.5 1431.5q-73.5 -61.5 -73.5 -161.5t70.5 -170t232.5 -142q312 -139 421 -246t109 -268q0 -205 -154.5 -334.5t-402.5 -129.5q-117 0 -210 32.5t-189 110.5l-57 -100h-47l-31 458h76q28 -183 154 -290
t294 -107t256 71.5t88 184.5t-75.5 187t-242.5 146t-253 123.5t-159 129.5t-73 252t128.5 296.5t316.5 122.5t340 -120l53 92h47l23 -408h-76q-97 332 -367 332q-125 0 -198.5 -61.5z" />
    <glyph glyph-name="scaron" unicode="&#x161;" horiz-adv-x="929" 
d="M365 1333l-244 264h92l244 -139l243 139h93l-244 -264h-184zM741 1085v-294h-53q-45 125 -98 178t-127 53t-116 -37t-42 -87t11.5 -75.5t43.5 -57.5t133 -94q203 -125 272 -199t69 -181q0 -145 -95 -228t-251 -83t-271 92l-41 -72h-45v352h51q80 -289 291 -289
q82 0 130 40t48 110t-41 107.5t-153 107.5q-113 70 -164 106.5t-103.5 94t-52.5 179.5t88 210t212 88t225 -64l40 43h39z" />
    <glyph glyph-name="uni0162" unicode="&#x162;" horiz-adv-x="1644" 
d="M737 -231q-44 0 -71 -5l-7 11l99 225h-324v78q166 4 216 57.5t50 194.5v1095q0 35 -36 49.5t-140 14.5t-252 -13t-153 -290h-76v391h1546l21 -391h-84q-12 176 -91.5 239.5t-244.5 63.5q-164 0 -198 -11.5t-41 -22.5t-7 -30v-1095q0 -140 50.5 -194t213.5 -58v-78h-342
l-53 -147q254 0 254 -177q0 -98 -69.5 -153t-181.5 -55t-177.5 43t-65.5 115t64 71q23 0 36 -13.5t31 -54.5t38 -57t60 -16t68.5 27.5t28.5 74.5q0 111 -162 111z" />
    <glyph glyph-name="uni0163" unicode="&#x163;" horiz-adv-x="774" 
d="M340 -231q-44 0 -72 -5l-6 11l96 223q-154 49 -153 231v727h-123v76q109 63 170 127t94 152h60v-258h274v-97h-274v-622q0 -145 23.5 -187.5t50 -54.5t72.5 -12q88 0 153 94l51 -39q-59 -155 -275 -155h-18l-47 -127q254 0 254 -177q0 -98 -70 -153t-181 -55t-177 43
t-66 115t64 71q23 0 36 -13.5t31 -54.5t37.5 -57t59.5 -16t69 27.5t29 74.5q0 111 -162 111z" />
    <glyph glyph-name="Tcaron" unicode="&#x164;" horiz-adv-x="1644" 
d="M711 1743l-224 223h93l243 -111l244 111h92l-223 -223h-225zM992 1477.5q-34 -11.5 -41 -22.5t-7 -30v-1095q0 -140 50.5 -194t213.5 -58v-78h-774v78q166 4 216 57.5t50 194.5v1095q0 35 -36 49.5t-140 14.5t-252 -13t-153 -290h-76v391h1546l21 -391h-84
q-12 176 -91.5 239.5t-244.5 63.5q-164 0 -198 -11.5z" />
    <glyph glyph-name="tcaron" unicode="&#x165;" horiz-adv-x="774" 
d="M707 1393q-37 0 -61.5 26.5t-24.5 71.5t33.5 75.5t90.5 30.5t91 -41.5t34 -113.5t-44 -130.5t-150 -115.5l-45 53q133 74 133 160q-20 -16 -57 -16zM205 229v727h-123v76q109 63 170 127t94 152h60v-258h274v-97h-274v-622q0 -145 23.5 -187.5t50 -54.5t72.5 -12
q88 0 153 94l51 -39q-59 -155 -275 -155q-135 0 -205.5 64.5t-70.5 184.5z" />
    <glyph glyph-name="Tbar" unicode="&#x166;" horiz-adv-x="1648" 
d="M994 1477.5q-33 -11.5 -40.5 -22.5t-7.5 -30v-469h418v-102h-418v-524q0 -140 50.5 -194t213.5 -58v-78h-774v78q166 4 216 57.5t50 194.5v524h-417v102h417v469q0 35 -36 49.5t-140 14.5t-252 -13t-153 -290h-76v391h1546l21 -391h-84q-12 176 -91.5 239.5t-244.5 63.5
t-198 -11.5z" />
    <glyph glyph-name="tbar" unicode="&#x167;" horiz-adv-x="780" 
d="M211 229v443h-123v108h123v176h-123v76q109 63 170 127t94 152h60v-258h274v-97h-274v-176h247v-108h-247v-338q0 -145 23.5 -187.5t50 -54.5t72.5 -12q88 0 153 94l51 -39q-59 -155 -275 -155q-135 0 -205.5 64.5t-70.5 184.5z" />
    <glyph glyph-name="Utilde" unicode="&#x168;" horiz-adv-x="1763" 
d="M1124 1872q39 0 59.5 19.5t37.5 66.5h67q-10 -104 -68.5 -173t-123.5 -69t-142 34t-119 49.5t-82 15.5t-59.5 -17.5t-34.5 -64.5h-69q16 104 76.5 168.5t128.5 64.5t140.5 -32.5t111 -47t77.5 -14.5zM1356 555v494q0 342 -63 403q-34 33 -76.5 40t-106.5 7v78h594v-78
q-66 0 -108 -10t-70 -49t-37.5 -130t-9.5 -261v-414q0 -334 -138 -494.5t-451 -160.5t-458 131t-145 448v541q0 152 -7.5 233.5t-37.5 114.5t-71.5 42t-111.5 9v78h699v-78q-70 0 -113 -8t-69 -43t-35 -116t-9 -232v-557q0 -218 96.5 -327.5t317.5 -109.5q410 0 410 449z
" />
    <glyph glyph-name="utilde" unicode="&#x169;" 
d="M811 1491q39 0 59.5 19.5t36.5 66.5h68q-10 -104 -68.5 -173t-123.5 -69t-142.5 34t-119.5 49.5t-82 15.5t-59.5 -17.5t-33.5 -64.5h-70q16 104 77 168.5t129 64.5t140 -32.5t111 -47t78 -14.5zM213 432v326q0 84 -4 132t-21.5 73.5t-51.5 35t-93 15.5v71h371v-559
q0 -223 52 -323.5t167 -100.5q180 0 280 236q28 70 31.5 123t3.5 96v201q0 84 -4 132t-21.5 73.5t-51 35t-93.5 15.5v71h371v-628q0 -227 8 -277t17.5 -66t34 -28t118.5 -12v-72l-338 -25l-22 246h-9q-149 -243 -391 -243q-86 0 -166.5 32.5t-118.5 82.5q-68 91 -69 337z
" />
    <glyph glyph-name="Umacron" unicode="&#x16a;" horiz-adv-x="1763" 
d="M664 1802v103h553v-103h-553zM1356 555v494q0 342 -63 403q-34 33 -76.5 40t-106.5 7v78h594v-78q-66 0 -108 -10t-70 -49t-37.5 -130t-9.5 -261v-414q0 -334 -138 -494.5t-451 -160.5t-458 131t-145 448v541q0 152 -7.5 233.5t-37.5 114.5t-71.5 42t-111.5 9v78h699v-78
q-70 0 -113 -8t-69 -43t-35 -116t-9 -232v-557q0 -218 96.5 -327.5t317.5 -109.5q410 0 410 449z" />
    <glyph glyph-name="umacron" unicode="&#x16b;" 
d="M365 1438v102h553v-102h-553zM213 432v326q0 84 -4 132t-21.5 73.5t-51.5 35t-93 15.5v71h371v-559q0 -223 52 -323.5t167 -100.5q180 0 280 236q28 70 31.5 123t3.5 96v201q0 84 -4 132t-21.5 73.5t-51 35t-93.5 15.5v71h371v-628q0 -227 8 -277t17.5 -66t34 -28
t118.5 -12v-72l-338 -25l-22 246h-9q-149 -243 -391 -243q-86 0 -166.5 32.5t-118.5 82.5q-68 91 -69 337z" />
    <glyph glyph-name="Ubreve" unicode="&#x16c;" horiz-adv-x="1763" 
d="M940 1731q-183 0 -232 92t-51 143h74q16 -43 72.5 -68.5t134.5 -25.5t135 25.5t74 68.5h76q-8 -104 -87 -169.5t-196 -65.5zM1356 555v494q0 342 -63 403q-34 33 -76.5 40t-106.5 7v78h594v-78q-66 0 -108 -10t-70 -49t-37.5 -130t-9.5 -261v-414q0 -334 -138 -494.5
t-451 -160.5t-458 131t-145 448v541q0 152 -7.5 233.5t-37.5 114.5t-71.5 42t-111.5 9v78h699v-78q-70 0 -113 -8t-69 -43t-35 -116t-9 -232v-557q0 -218 96.5 -327.5t317.5 -109.5q410 0 410 449z" />
    <glyph glyph-name="ubreve" unicode="&#x16d;" 
d="M443.5 1399q-81.5 76 -85.5 190h74q18 -57 74.5 -91t133.5 -34t134 34t74 91h76q-8 -114 -87 -190t-195 -76q-117 0 -198.5 76zM213 432v326q0 84 -4 132t-21.5 73.5t-51.5 35t-93 15.5v71h371v-559q0 -223 52 -323.5t167 -100.5q180 0 280 236q28 70 31.5 123t3.5 96
v201q0 84 -4 132t-21.5 73.5t-51 35t-93.5 15.5v71h371v-628q0 -227 8 -277t17.5 -66t34 -28t118.5 -12v-72l-338 -25l-22 246h-9q-149 -243 -391 -243q-86 0 -166.5 32.5t-118.5 82.5q-68 91 -69 337z" />
    <glyph glyph-name="Uring" unicode="&#x16e;" horiz-adv-x="1763" 
d="M870 1832q0 -30 19.5 -49.5t49.5 -19.5t49.5 19.5t19.5 49.5t-19.5 49.5t-49.5 19.5t-49.5 -19.5t-19.5 -49.5zM807 1833q0 57 38 95t95 38t95 -38t38 -95t-38 -95t-95 -38t-95 38t-38 95zM1356 555v494q0 342 -63 403q-34 33 -76.5 40t-106.5 7v78h594v-78
q-66 0 -108 -10t-70 -49t-37.5 -130t-9.5 -261v-414q0 -334 -138 -494.5t-451 -160.5t-458 131t-145 448v541q0 152 -7.5 233.5t-37.5 114.5t-71.5 42t-111.5 9v78h699v-78q-70 0 -113 -8t-69 -43t-35 -116t-9 -232v-557q0 -218 96.5 -327.5t317.5 -109.5q410 0 410 449z
" />
    <glyph glyph-name="uring" unicode="&#x16f;" 
d="M563 1520q0 -41 27.5 -69t68.5 -28t67 28t26 69t-26 66.5t-67 25.5t-68.5 -25.5t-27.5 -66.5zM483 1521q0 77 50.5 128t126.5 51t128 -52t52 -128t-51.5 -126.5t-128.5 -50.5t-127 50.5t-50 127.5zM213 432v326q0 84 -4 132t-21.5 73.5t-51.5 35t-93 15.5v71h371v-559
q0 -223 52 -323.5t167 -100.5q180 0 280 236q28 70 31.5 123t3.5 96v201q0 84 -4 132t-21.5 73.5t-51 35t-93.5 15.5v71h371v-628q0 -227 8 -277t17.5 -66t34 -28t118.5 -12v-72l-338 -25l-22 246h-9q-149 -243 -391 -243q-86 0 -166.5 32.5t-118.5 82.5q-68 91 -69 337z
" />
    <glyph glyph-name="Uhungarumlaut" unicode="&#x170;" horiz-adv-x="1763" 
d="M1350 1966q96 0 96 -72q0 -59 -154 -96l-225 -57h-123l246 157q107 68 160 68zM967 1966q96 0 96 -72q0 -59 -154 -96l-225 -57h-123l246 157q107 68 160 68zM1356 555v494q0 342 -63 403q-34 33 -76.5 40t-106.5 7v78h594v-78q-66 0 -108 -10t-70 -49t-37.5 -130
t-9.5 -261v-414q0 -334 -138 -494.5t-451 -160.5t-458 131t-145 448v541q0 152 -7.5 233.5t-37.5 114.5t-71.5 42t-111.5 9v78h699v-78q-70 0 -113 -8t-69 -43t-35 -116t-9 -232v-557q0 -218 96.5 -327.5t317.5 -109.5q410 0 410 449z" />
    <glyph glyph-name="uhungarumlaut" unicode="&#x171;" 
d="M1096 1645q35 0 56.5 -18.5t21.5 -52.5q0 -59 -105 -108l-281 -133h-96l266 244q74 68 138 68zM690 1645q35 0 56.5 -18.5t21.5 -52.5q0 -59 -104 -108l-281 -133h-96l266 244q74 68 137 68zM213 432v326q0 84 -4 132t-21.5 73.5t-51.5 35t-93 15.5v71h371v-559
q0 -223 52 -323.5t167 -100.5q180 0 280 236q28 70 31.5 123t3.5 96v201q0 84 -4 132t-21.5 73.5t-51 35t-93.5 15.5v71h371v-628q0 -227 8 -277t17.5 -66t34 -28t118.5 -12v-72l-338 -25l-22 246h-9q-149 -243 -391 -243q-86 0 -166.5 32.5t-118.5 82.5q-68 91 -69 337z
" />
    <glyph glyph-name="Uogonek" unicode="&#x172;" horiz-adv-x="1763" 
d="M807 -479q-94 0 -146.5 46t-52.5 170.5t215 244.5q-280 12 -408 145t-128 432v541q0 152 -7.5 233.5t-37.5 114.5t-71.5 42t-111.5 9v78h699v-78q-70 0 -113 -8t-69 -43t-35 -116t-9 -232v-557q0 -218 96.5 -327.5t317.5 -109.5q410 0 410 449v494q0 342 -63 403
q-34 33 -76.5 40t-106.5 7v78h594v-78q-66 0 -108 -10t-70 -49t-37.5 -130t-9.5 -261v-414q0 -466 -188.5 -554.5t-327.5 -96.5q-86 -53 -139.5 -120t-53.5 -115t27.5 -76.5t76.5 -28.5q91 0 195 108l59 -63q-129 -168 -321 -168z" />
    <glyph glyph-name="uogonek" unicode="&#x173;" 
d="M977 -479q-94 0 -146.5 46t-52.5 128q0 165 211 285l-22 243h-9q-149 -243 -391 -243q-86 0 -166.5 32.5t-118.5 82.5q-68 91 -69 337v326q0 84 -4 132t-21.5 73.5t-51.5 35t-93 15.5v71h371v-559q0 -223 52 -323.5t167 -100.5q180 0 280 236q28 70 31.5 123t3.5 96v201
q0 84 -4 132t-21.5 73.5t-51 35t-93.5 15.5v71h371v-628q0 -227 8 -277t17.5 -66t34 -28t118.5 -12v-72l-184 -12q-92 -53 -147.5 -121t-55.5 -118t27.5 -78.5t76.5 -28.5q91 0 195 108l59 -63q-129 -168 -321 -168z" />
    <glyph glyph-name="Wcircumflex" unicode="&#x174;" horiz-adv-x="2408" 
d="M1372 1966l223 -223h-92l-243 110l-244 -110h-92l223 223h225zM2081 1402q0 58 -34 77.5t-120 19.5v78h498v-78q-94 0 -142.5 -39t-80.5 -127l-514 -1353h-72l-393 1165l-437 -1165h-71l-426 1175q-37 98 -66.5 164.5t-78 122t-167.5 55.5v80h668v-80q-104 0 -146 -18.5
t-42 -69.5t32 -145l312 -949l252 709q29 80 56.5 148.5t43.5 123.5q-61 123 -101.5 162t-101.5 39v80h627v-80q-117 0 -144.5 -13.5t-34.5 -29.5t-7 -52t43 -173l274 -920l320 889q53 146 53 204z" />
    <glyph glyph-name="wcircumflex" unicode="&#x175;" horiz-adv-x="1744" 
d="M1016 1597l244 -264h-93l-243 140l-244 -140h-92l243 264h185zM567 1014q-145 0 -145 -70q0 -39 22 -129l140 -489h8l301 759h63l273 -759h8l123 331q69 187 76.5 226t7.5 71t-26.5 46t-110.5 14v71h409v-71q-59 0 -93.5 -43t-100.5 -207l-318 -784h-76l-249 755h-9
l-301 -755h-75l-267 851q-36 113 -66 140.5t-60.5 35t-75.5 7.5v71h542v-71z" />
    <glyph glyph-name="Ycircumflex" unicode="&#x176;" horiz-adv-x="1501" 
d="M948 1966l223 -223h-92l-243 110l-244 -110h-92l223 223h225zM-10 1499v78h645v-78q-102 0 -144 -15.5t-42 -55.5t47 -121l317 -543h8l232 389q121 204 121 259.5t-30 71t-104 15.5v78h469v-78q-43 0 -76.5 -12t-83.5 -62t-175 -262l-316 -532v-244q0 -100 7 -160.5
t31 -93.5t68 -44t117 -11v-78h-663v78q74 0 118 11t75.5 54t31.5 230v250l-410 700q-62 105 -100.5 133.5t-69 35.5t-73.5 7z" />
    <glyph glyph-name="ycircumflex" unicode="&#x177;" horiz-adv-x="1308" 
d="M807 1597l244 -264h-93l-243 140l-244 -140h-92l244 264h184zM154 -436q0 51 35.5 74.5t105.5 34.5q107 17 154.5 50.5t82.5 110.5l72 143l-393 854q-54 114 -81.5 139t-54 32.5t-67.5 11.5v71h543v-71q-137 0 -137 -66t57 -203l225 -544h11l186 461q27 68 44 110.5
t29.5 78.5t12.5 81t-29.5 63.5t-113.5 18.5v71h450v-71q-39 0 -65.5 -10.5t-64.5 -60t-134 -271.5l-447 -994q-94 -211 -292 -210q-129 0 -129 96z" />
    <glyph glyph-name="Ydieresis" unicode="&#x178;" horiz-adv-x="1501" 
d="M920 1863q0 44 29.5 73.5t73.5 29.5t73.5 -29.5t29.5 -73.5t-29.5 -74t-73.5 -30t-73.5 30t-29.5 74zM547 1863q0 44 29.5 73.5t73.5 29.5t74 -29.5t30 -73.5t-30 -74t-74 -30t-73.5 30t-29.5 74zM-10 1499v78h645v-78q-102 0 -144 -15.5t-42 -55.5t47 -121l317 -543h8
l232 389q121 204 121 259.5t-30 71t-104 15.5v78h469v-78q-43 0 -76.5 -12t-83.5 -62t-175 -262l-316 -532v-244q0 -100 7 -160.5t31 -93.5t68 -44t117 -11v-78h-663v78q74 0 118 11t75.5 54t31.5 230v250l-410 700q-62 105 -100.5 133.5t-69 35.5t-73.5 7z" />
    <glyph glyph-name="Zacute" unicode="&#x179;" horiz-adv-x="1576" 
d="M496 1896q0 34 21.5 52t71.5 18t163 -68l266 -157h-123l-246 57q-153 35 -153 98zM33 0v8l1077 1483h-561q-145 0 -217 -65.5t-101 -225.5h-75l30 377h1248v-8l-1067 -1475h634q104 0 172 15.5t110 58.5t65.5 117.5t42.5 195.5h88l-25 -481h-1421z" />
    <glyph glyph-name="zacute" unicode="&#x17a;" horiz-adv-x="1140" 
d="M807 1645q35 0 56.5 -18.5t21.5 -52.5q0 -59 -105 -108l-280 -133h-97l267 244q74 68 137 68zM37 0v8l708 991h-227q-178 0 -239 -37t-80 -159h-66l33 282h881v-8l-699 -983h240q210 0 270 33t85.5 76t43.5 114h68l-35 -317h-983z" />
    <glyph glyph-name="Zdotaccent" unicode="&#x17b;" horiz-adv-x="1576" 
d="M694 1853q0 45 32 78t77 33t77.5 -33t32.5 -78t-32.5 -76.5t-77.5 -31.5t-77 31.5t-32 76.5zM33 0v8l1077 1483h-561q-145 0 -217 -65.5t-101 -225.5h-75l30 377h1248v-8l-1067 -1475h634q104 0 172 15.5t110 58.5t65.5 117.5t42.5 195.5h88l-25 -481h-1421z" />
    <glyph glyph-name="zdotaccent" unicode="&#x17c;" horiz-adv-x="1140" 
d="M461 1521.5q0 53.5 37 90.5t90 37t90 -37t37 -90.5t-37 -90t-90 -36.5t-90 36.5t-37 90zM37 0v8l708 991h-227q-178 0 -239 -37t-80 -159h-66l33 282h881v-8l-699 -983h240q210 0 270 33t85.5 76t43.5 114h68l-35 -317h-983z" />
    <glyph glyph-name="Zcaron" unicode="&#x17d;" horiz-adv-x="1576" 
d="M688 1743l-223 223h92l244 -111l243 111h93l-224 -223h-225zM33 0v8l1077 1483h-561q-145 0 -217 -65.5t-101 -225.5h-75l30 377h1248v-8l-1067 -1475h634q104 0 172 15.5t110 58.5t65.5 117.5t42.5 195.5h88l-25 -481h-1421z" />
    <glyph glyph-name="zcaron" unicode="&#x17e;" horiz-adv-x="1140" 
d="M496 1333l-244 264h92l244 -139l243 139h93l-244 -264h-184zM37 0v8l708 991h-227q-178 0 -239 -37t-80 -159h-66l33 282h881v-8l-699 -983h240q210 0 270 33t85.5 76t43.5 114h68l-35 -317h-983z" />
    <glyph glyph-name="Schwa" unicode="&#x18f;" horiz-adv-x="1644" 
d="M586 502q-117 0 -141.5 -12.5t-29.5 -29t-5 -42.5q0 -145 94 -232.5t270 -87.5t294 100.5t161 303.5h-643zM121 1305q243 294 623 294q354 0 567 -219.5t213 -577.5t-226.5 -590t-580.5 -232q-285 0 -441.5 154.5t-156.5 443.5q0 41 16.5 50t75.5 9h1038q11 46 11 169
q0 124 -42 255t-161 276.5t-387 145.5q-208 0 -309 -87t-158 -155z" />
    <glyph glyph-name="florin" unicode="&#x192;" horiz-adv-x="1366" 
d="M137 -432q81 0 136.5 137.5t105.5 462.5l102 690h-215l29 98h205l22 119q47 248 184.5 385t340.5 137q117 0 194.5 -40.5t77.5 -102.5q0 -39 -26.5 -65.5t-57.5 -26.5t-58.5 15.5t-74.5 54.5t-76 53t-61 14q-174 0 -248 -428l-21 -115h254l-26 -98h-238l-63 -395
q-72 -453 -168 -666q-150 -330 -400 -329q-106 0 -175.5 50t-69.5 128q0 47 25.5 73.5t70.5 26.5q70 0 108 -68t61 -89t62 -21z" />
    <glyph glyph-name="uni01C4" unicode="&#x1c4;" horiz-adv-x="3387" 
d="M2499 1743l-224 223h92l244 -111l244 111h92l-223 -223h-225zM1843 0v8l1077 1483h-561q-145 0 -216.5 -65.5t-100.5 -225.5h-76l31 377h1247v-8l-1067 -1475h635q104 0 172 15.5t109.5 58.5t65.5 117.5t42 195.5h88l-24 -481h-1422zM573 1477q-35 0 -34 -35v-1108
q0 -233 305 -234q281 0 430 167t149 498t-158.5 521.5t-430.5 190.5h-261zM78 0v78q78 2 126 11t84 44.5t36 177.5v955q0 141 -29 176t-70 44t-106 13v78h719q184 0 340.5 -61.5t270.5 -170t177.5 -258t63.5 -321.5t-59.5 -312.5t-167 -240.5t-257 -156.5t-327.5 -56.5h-801
z" />
    <glyph glyph-name="uni01C5" unicode="&#x1c5;" horiz-adv-x="2951" 
d="M2306 1333l-244 264h92l244 -139l244 139h92l-244 -264h-184zM1847 0v8l709 991h-227q-178 0 -239.5 -36.5t-80.5 -159.5h-65l32 282h881v-8l-698 -983h239q211 0 270.5 33t85 76t44.5 114h67l-35 -317h-983zM573 1477q-35 0 -34 -35v-1108q0 -233 305 -234
q281 0 430 167t149 498t-158.5 521.5t-430.5 190.5h-261zM78 0v78q78 2 126 11t84 44.5t36 177.5v955q0 141 -29 176t-70 44t-106 13v78h719q184 0 340.5 -61.5t270.5 -170t177.5 -258t63.5 -321.5t-59.5 -312.5t-167 -240.5t-257 -156.5t-327.5 -56.5h-801z" />
    <glyph glyph-name="uni01C6" unicode="&#x1c6;" horiz-adv-x="2523" 
d="M1878 1333l-244 264h92l244 -139l244 139h92l-244 -264h-184zM1419 0v8l709 991h-227q-178 0 -239.5 -36.5t-80.5 -159.5h-65l32 282h881v-8l-698 -983h239q211 0 270.5 33t85 76t44.5 114h67l-35 -317h-983zM950 625q0 106 -11 161.5t-51 106.5t-113 83t-144 32
q-147 0 -224 -122t-77 -336t77 -343t224 -129q117 0 201.5 64.5t101 150.5t16.5 196v136zM631 1106q186 0 323 -137v209q0 242 -11 294t-58 70.5t-154 18.5v61l420 78v-1182q0 -307 10 -347q17 -66 48.5 -82.5t121.5 -16.5v-70l-340 -22v192h-8q-74 -104 -157.5 -148
t-197.5 -44q-231 0 -380.5 159t-149.5 403t150 404t383 160z" />
    <glyph glyph-name="uni01C7" unicode="&#x1c7;" horiz-adv-x="2277" 
d="M1767 1266q0 142 -28.5 176.5t-69.5 43.5t-106 13v78h622v-78q-66 -2 -105.5 -12t-68.5 -46.5t-29 -189.5v-1255q0 -258 -108.5 -393t-317.5 -135q-141 0 -226 54t-85 144q0 53 27.5 81t71.5 28t68 -19.5t56 -81.5t58 -85t67 -23q84 0 129 90t45 256v1354zM92 0v78
q142 4 183.5 46t41.5 187v955q0 142 -28.5 176.5t-69.5 43.5t-106 13v78h622v-78q-66 -2 -105.5 -12t-68.5 -46.5t-29 -189.5v-882q0 -170 76 -223.5t299 -53.5t299 47t108 107.5t54 156.5h78l-31 -403h-1323z" />
    <glyph glyph-name="uni01C8" unicode="&#x1c8;" horiz-adv-x="2101" 
d="M1683 1521.5q0 53.5 37 90.5t90.5 37t90 -37t36.5 -90.5t-36.5 -90t-90 -36.5t-90.5 36.5t-37 90zM1198 -342q0 96 105 96q37 0 56 -17.5t49 -78.5t54.5 -81.5t75.5 -20.5q98 0 137 67.5t39 237.5v712q0 252 -12 300t-49 65.5t-140 17.5v72l402 78v-1110
q0 -256 -107.5 -392t-312.5 -136q-131 0 -214 52t-83 138zM92 0v78q142 4 183.5 46t41.5 187v955q0 142 -28.5 176.5t-69.5 43.5t-106 13v78h622v-78q-66 -2 -105.5 -12t-68.5 -46.5t-29 -189.5v-882q0 -170 76 -223.5t299 -53.5t299 47t108 107.5t54 156.5h78l-31 -403
h-1323z" />
    <glyph glyph-name="uni01C9" unicode="&#x1c9;" horiz-adv-x="1288" 
d="M870 1521.5q0 53.5 37 90.5t90.5 37t90 -37t36.5 -90.5t-36.5 -90t-90 -36.5t-90.5 36.5t-37 90zM385 -342q0 96 104 96q37 0 56.5 -17.5t49.5 -78.5t54.5 -81.5t75.5 -20.5q98 0 137 67.5t39 237.5v712q0 252 -12 300t-49 65.5t-140 17.5v72l402 78v-1110
q0 -256 -107.5 -392t-312.5 -136q-131 0 -214 52t-83 138zM428 319q0 -156 25.5 -190.5t61.5 -44.5t95 -12v-72h-565v72q117 4 155 47t38 186v883q0 228 -12 281t-49.5 69t-135.5 16v70l387 76v-1381z" />
    <glyph glyph-name="uni01CA" unicode="&#x1ca;" horiz-adv-x="2654" 
d="M2144 1266q0 142 -28.5 176.5t-69.5 43.5t-107 13v78h623v-78q-66 -2 -105.5 -12t-68.5 -46.5t-29 -189.5v-1255q0 -258 -108.5 -393t-317.5 -135q-141 0 -226 54t-85 144q0 53 27.5 81t71.5 28t67.5 -19.5t56.5 -81.5t58.5 -85t66.5 -23q84 0 129 90t45 256v1354z
M440 1262v-875q0 -198 29 -242.5t69 -54.5t105 -12v-78h-551v78q72 2 116 13t68.5 42t32.5 87t8 153v831q0 178 -36 232.5t-168 62.5v78h405l895 -1194h8v807q0 200 -28.5 243.5t-68.5 53.5t-105 12v78h550v-78q-72 -2 -115.5 -13t-76.5 -53t-33 -229v-1224h-123l-972 1282
h-9z" />
    <glyph glyph-name="uni01CB" unicode="&#x1cb;" horiz-adv-x="2447" 
d="M2030 1521.5q0 53.5 36.5 90.5t90 37t90.5 -37t37 -90.5t-37 -90t-90.5 -36.5t-90 36.5t-36.5 90zM1544 -342q0 96 105 96q37 0 56 -17.5t49 -78.5t54.5 -81.5t75.5 -20.5q98 0 137 67.5t39 237.5v712q0 252 -12 300t-49 65.5t-139 17.5v72l401 78v-1110
q0 -256 -107.5 -392t-312.5 -136q-131 0 -214 52t-83 138zM440 1262v-875q0 -198 29 -242.5t69 -54.5t105 -12v-78h-551v78q72 2 116 13t68.5 42t32.5 87t8 153v831q0 178 -36 232.5t-168 62.5v78h405l895 -1194h8v807q0 200 -28.5 243.5t-68.5 53.5t-105 12v78h550v-78
q-72 -2 -115.5 -13t-76.5 -53t-33 -229v-1224h-123l-972 1282h-9z" />
    <glyph glyph-name="uni01CC" unicode="&#x1cc;" horiz-adv-x="2033" 
d="M1616 1521.5q0 53.5 37 90.5t90 37t90 -37t37 -90.5t-37 -90t-90 -36.5t-90 36.5t-37 90zM1847 -4q0 -256 -107.5 -392t-312.5 -136q-131 0 -214 52t-83 138q0 47 28 71.5t71 24.5t62 -17.5t49 -78.5t54.5 -81.5t75.5 -20.5q98 0 137.5 67.5t39.5 237.5v712
q-1 248 -13 298t-49 67.5t-139 17.5v72l401 78v-1110zM842 1106q94 0 172 -31t116 -81t52 -124.5t14 -205.5v-342q0 -166 21.5 -199t55.5 -41t89 -12v-70h-531v70q114 4 142 43.5t28 193.5v271q0 233 -51.5 325t-181.5 92q-92 0 -178 -53.5t-117 -135.5t-31 -210v-274
q0 -168 21.5 -200t55.5 -40t93 -12v-70h-536v70q57 4 91 12t57.5 39t23.5 186v273q0 244 -9 284t-18.5 57t-35 29.5t-113.5 12.5v65l327 78l25 -203h8q165 203 410 203z" />
    <glyph glyph-name="Oogonek" unicode="&#x1ea;" horiz-adv-x="1937" 
d="M1554 777q0 322 -158 515t-428 193t-427.5 -194t-157.5 -514t157 -502.5t427 -182.5t428.5 181.5t158.5 503.5zM862 -479q-94 0 -146 46t-52 171.5t221 245.5q-329 28 -548.5 253.5t-219.5 538.5q0 174 65.5 323.5t180 260t270 174t336 63.5t336 -63.5t270.5 -174
t180.5 -260t65.5 -317.5t-62.5 -309t-171 -247.5t-255 -171t-316.5 -72.5q-86 -53 -138.5 -119t-52.5 -114t28 -76.5t77 -28.5q90 0 194 108l60 -63q-129 -168 -322 -168z" />
    <glyph glyph-name="oogonek" unicode="&#x1eb;" horiz-adv-x="1337" 
d="M421.5 882q-91.5 -126 -91.5 -337t91.5 -336t245.5 -125t248.5 127t94.5 335t-95.5 335t-248.5 127t-244.5 -126zM586 -479q-94 0 -146.5 46t-52.5 128t57.5 156.5t161.5 132.5q-215 21 -361.5 178t-146.5 394t166.5 393.5t401.5 156.5t405 -159t170 -389t-141 -387
t-355 -185q-90 -53 -143 -120t-53 -116t27.5 -77.5t76.5 -28.5q91 0 195 108l59 -63q-129 -168 -321 -168z" />
    <glyph glyph-name="uni01F1" unicode="&#x1f1;" horiz-adv-x="3362" 
d="M1819 0v8l1077 1483h-561q-145 0 -217 -65.5t-101 -225.5h-75l30 377h1247v-8l-1067 -1475h635q104 0 172 15.5t110 58.5t65.5 117.5t41.5 195.5h89l-25 -481h-1421zM573 1477q-35 0 -34 -35v-1108q0 -233 305 -234q281 0 430 167t149 498t-158.5 521.5t-430.5 190.5
h-261zM78 0v78q78 2 126 11t84 44.5t36 177.5v955q0 141 -29 176t-70 44t-106 13v78h719q184 0 340.5 -61.5t270.5 -170t177.5 -258t63.5 -321.5t-59.5 -312.5t-167 -240.5t-257 -156.5t-327.5 -56.5h-801z" />
    <glyph glyph-name="uni01F2" unicode="&#x1f2;" horiz-adv-x="2934" 
d="M1831 0v8l709 991h-228q-178 0 -239 -37t-80 -159h-66l33 282h881v-8l-699 -983h240q210 0 270 33t85.5 76t43.5 114h68l-35 -317h-983zM573 1477q-35 0 -34 -35v-1108q0 -233 305 -234q281 0 430 167t149 498t-158.5 521.5t-430.5 190.5h-261zM78 0v78q78 2 126 11
t84 44.5t36 177.5v955q0 141 -29 176t-70 44t-106 13v78h719q184 0 340.5 -61.5t270.5 -170t177.5 -258t63.5 -321.5t-59.5 -312.5t-167 -240.5t-257 -156.5t-327.5 -56.5h-801z" />
    <glyph glyph-name="uni01F3" unicode="&#x1f3;" horiz-adv-x="2523" 
d="M1419 0v8l709 991h-227q-178 0 -239.5 -36.5t-80.5 -159.5h-65l32 282h881v-8l-698 -983h239q211 0 270.5 33t85 76t44.5 114h67l-35 -317h-983zM950 625q0 106 -11 161.5t-51 106.5t-113 83t-144 32q-147 0 -224 -122t-77 -336t77 -343t224 -129q117 0 201.5 64.5
t101 150.5t16.5 196v136zM631 1106q186 0 323 -137v209q0 242 -11 294t-58 70.5t-154 18.5v61l420 78v-1182q0 -307 10 -347q17 -66 48.5 -82.5t121.5 -16.5v-70l-340 -22v192h-8q-74 -104 -157.5 -148t-197.5 -44q-231 0 -380.5 159t-149.5 403t150 404t383 160z" />
    <glyph glyph-name="Aringacute" unicode="&#x1fa;" horiz-adv-x="1587" 
d="M690 1799q0 -38 23.5 -61.5t62.5 -23.5t62.5 23.5t23.5 61.5t-23.5 61.5t-62.5 23.5t-62.5 -23.5t-23.5 -61.5zM614 1798q0 74 46.5 121t106.5 47t101 -27q48 48 86 48q70 0 70 -54t-88 -102q4 -20 4 -33q0 -68 -46 -115t-112 -47t-110 35l-66 -31h-110l122 115
q-4 20 -4 43zM504 674h444l-213 543zM326 184q0 -60 38.5 -83t122.5 -23v-78h-497v78q86 0 136 40t87 126l532 1231h89l520 -1184q51 -117 108.5 -164t147.5 -47v-80h-668v80q104 0 147.5 23.5t43.5 79.5t-48 167l-94 221h-534l-86 -217q-45 -110 -45 -170z" />
    <glyph glyph-name="aringacute" unicode="&#x1fb;" horiz-adv-x="1134" 
d="M909 -20q-178 0 -178 219h-10q-53 -100 -147 -158.5t-216 -58.5t-196 65.5t-74 171.5t76 186t256 160l295 129v84q0 250 -213 250q-70 0 -101 -27t-55 -106q-23 -59 -44 -78.5t-62 -19.5q-102 0 -102 100t104 154.5t303 54.5t284.5 -72.5t85.5 -247.5v-458
q0 -233 93 -234q73 0 100 45l29 -49q-25 -47 -90.5 -78.5t-137.5 -31.5zM295 246q0 -56 44.5 -99t108.5 -43q114 0 190.5 100t76.5 240v162q-332 -128 -376 -216t-44 -144zM451 1512q0 -38 23.5 -61.5t62 -23.5t62.5 23.5t24 61.5t-24 61.5t-62.5 23.5t-62 -23.5
t-23.5 -61.5zM375 1511q0 74 46.5 121t106.5 47t101 -26q47 47 85 47q70 0 70 -53t-88 -103q4 -20 4 -33q0 -68 -46 -114.5t-111 -46.5t-111 34l-65 -30h-111l123 114q-4 20 -4 43z" />
    <glyph glyph-name="AEacute" unicode="&#x1fc;" horiz-adv-x="2152" 
d="M1395 1966q94 0 94 -72q0 -59 -154 -96l-245 -57h-123l266 157q111 68 162 68zM983 674v803l-424 -803h424zM983 311v271h-473l-8 -19q-31 -59 -62.5 -117.5t-73.5 -142.5t-42 -129t14 -60.5t35.5 -22.5t48.5 -9t51 -4v-78h-496v78q94 12 129 37.5t56.5 55.5t43.5 69
t43 74.5t169.5 309t279.5 532.5t135.5 270.5t4.5 21.5q0 29 -38 40t-132 11v78h1302v-360h-72q-23 160 -109.5 216t-295.5 56h-260q-35 0 -35 -35v-588q202 0 288.5 48t98.5 188h72v-559h-72q-20 145 -100 193t-287 48v-462q0 -133 73 -183.5t279 -50.5q205 0 298.5 67
t133.5 248h78l-30 -403h-1272v78q142 4 183.5 46t41.5 187z" />
    <glyph glyph-name="aeacute" unicode="&#x1fd;" horiz-adv-x="1744" 
d="M1102 1645q35 0 56.5 -18.5t21.5 -52.5q0 -59 -105 -108l-280 -133h-97l267 244q74 68 137 68zM1305 743q78 0 96 7.5t22 18.5t4 30q0 94 -60 151.5t-158.5 57.5t-157 -64.5t-82.5 -200.5h336zM295 258q0 -68 45.5 -111t107.5 -43q114 0 190.5 88t76.5 211v183
q-221 -82 -320.5 -159t-99.5 -169zM1228 1106q206 0 314.5 -109.5t108.5 -302.5q0 -23 -13.5 -34t-50.5 -11h-633q-8 -25 -8 -90q0 -219 87 -346t243 -127t303 162l63 -58q-180 -211 -425 -210q-152 0 -264.5 69.5t-174.5 192.5q-57 -125 -162.5 -192.5t-240.5 -67.5
t-211 64.5t-76 177t81 195.5t251 146l295 109v104q0 129 -52.5 189.5t-164.5 60.5q-66 0 -94.5 -28t-54.5 -96t-47 -87.5t-60 -19.5q-104 0 -104 100t105 154.5t272 54.5t247 -34t119 -107q141 141 347 141z" />
    <glyph glyph-name="Oslashacute" unicode="&#x1fe;" horiz-adv-x="1931" 
d="M1198 1966q94 0 94 -72q0 -58 -153 -96l-246 -57h-123l266 157q111 68 162 68zM969 1485q-271 0 -428.5 -194t-157.5 -498t125 -478l823 1043q-145 127 -362 127zM985 92q252 0 410.5 181.5t158.5 499.5t-145 503l-827 -1045q151 -139 403 -139zM969 -20q-265 0 -480 135
l-221 -281h-139l272 344q-133 111 -208.5 264.5t-75.5 330.5t65.5 326.5t180 260t270.5 174t336 63.5q251 0 454 -122l179 225h141l-227 -289q141 -113 223 -275t82 -344t-66.5 -327.5t-181.5 -253t-270.5 -169.5t-333.5 -62z" />
    <glyph glyph-name="oslashacute" unicode="&#x1ff;" horiz-adv-x="1333" 
d="M963 1645q35 0 56 -18.5t21 -52.5q0 -59 -104 -108l-281 -133h-96l266 244q74 68 138 68zM1008 568q0 124 -52 237l-503 -637q84 -84 211 -84q155 0 249.5 127.5t94.5 356.5zM328 567q0 -190 59 -305l506 641q-92 105 -237 105t-236.5 -125.5t-91.5 -315.5zM279 125
q-183 170 -183 419t166.5 405.5t401.5 156.5q174 0 317 -92l158 198h141l-211 -266q170 -161 170 -401t-170 -402.5t-405 -162.5q-165 0 -297 79l-146 -184h-139z" />
    <glyph glyph-name="uni0218" unicode="&#x218;" horiz-adv-x="1320" 
d="M612 -315q-38 0 -62 26.5t-24 71.5t34 75.5t91 30.5t91 -41.5t34 -113.5t-44 -130.5t-150 -115.5l-45 53q133 74 133 160q-20 -16 -58 -16zM450.5 1431.5q-73.5 -61.5 -73.5 -161.5t70.5 -170t232.5 -142q312 -139 421 -246t109 -268q0 -205 -154.5 -334.5t-402.5 -129.5
q-117 0 -210 32.5t-189 110.5l-57 -100h-47l-31 458h76q28 -183 154 -290t294 -107t256 71.5t88 184.5t-75.5 187t-242.5 146t-253 123.5t-159 129.5t-73 252t128.5 296.5t316.5 122.5t340 -120l53 92h47l23 -408h-76q-97 332 -367 332q-125 0 -198.5 -61.5z" />
    <glyph glyph-name="uni0219" unicode="&#x219;" horiz-adv-x="929" 
d="M453 -313q-37 0 -61.5 26.5t-24.5 71.5t33.5 75.5t90.5 30.5t91 -41.5t34 -113.5t-44 -130.5t-150 -115.5l-45 53q133 74 133 160q-20 -16 -57 -16zM741 1085v-294h-53q-45 125 -98 178t-127 53t-116 -37t-42 -87t11.5 -75.5t43.5 -57.5t133 -94q203 -125 272 -199
t69 -181q0 -145 -95 -228t-251 -83t-271 92l-41 -72h-45v352h51q80 -289 291 -289q82 0 130 40t48 110t-41 107.5t-153 107.5q-113 70 -164 106.5t-103.5 94t-52.5 179.5t88 210t212 88t225 -64l40 43h39z" />
    <glyph glyph-name="uni021A" unicode="&#x21a;" horiz-adv-x="1644" 
d="M784 -315q-38 0 -62 26.5t-24 71.5t34 75.5t91 30.5t91 -41.5t34 -113.5t-44 -130.5t-150 -115.5l-45 53q133 74 133 160q-20 -16 -58 -16zM992 1477.5q-34 -11.5 -41 -22.5t-7 -30v-1095q0 -140 50.5 -194t213.5 -58v-78h-774v78q166 4 216 57.5t50 194.5v1095
q0 35 -36 49.5t-140 14.5t-252 -13t-153 -290h-76v391h1546l21 -391h-84q-12 176 -91.5 239.5t-244.5 63.5q-164 0 -198 -11.5z" />
    <glyph glyph-name="uni021B" unicode="&#x21b;" horiz-adv-x="774" 
d="M442 -315q-38 0 -62 26.5t-24 71.5t34 75.5t91 30.5t91 -41.5t34 -113.5t-44 -130.5t-150 -115.5l-45 53q133 74 133 160q-20 -16 -58 -16zM205 229v727h-123v76q109 63 170 127t94 152h60v-258h274v-97h-274v-622q0 -145 23.5 -187.5t50 -54.5t72.5 -12q88 0 153 94
l51 -39q-59 -155 -275 -155q-135 0 -205.5 64.5t-70.5 184.5z" />
    <glyph glyph-name="dotlessj" unicode="&#x237;" horiz-adv-x="622" 
d="M436 -4q0 -256 -107.5 -392t-312.5 -136q-131 0 -214 52t-83 138q0 47 28 71.5t71 24.5t62.5 -17.5t49.5 -78.5t54 -81.5t75 -20.5q98 0 137.5 67.5t39.5 237.5v712q0 248 -12 298t-49.5 67.5t-139.5 17.5v72l401 78v-1110z" />
    <glyph glyph-name="schwa" unicode="&#x259;" horiz-adv-x="1175" 
d="M444 342q-82 0 -102 -10t-20 -47q0 -94 60 -150.5t165 -56.5q221 0 274 264h-377zM106 895q174 211 423 211t397.5 -152.5t148.5 -403.5q0 -250 -158 -410t-403 -160q-199 0 -307.5 107.5t-108.5 307.5q0 29 11.5 35t52.5 6h674q8 32 8 115t-25.5 170.5t-100.5 182.5
t-237 95q-86 0 -159.5 -37.5t-151.5 -123.5z" />
    <glyph glyph-name="apostrophe" unicode="&#x2bc;" horiz-adv-x="397" 
d="M295 1604q0 -38 -66 -353h-59q-11 59 -39.5 188.5t-28.5 166.5q0 36 28 65t69 29t68.5 -29t27.5 -67z" />
    <glyph glyph-name="circumflex" unicode="&#x2c6;" horiz-adv-x="753" 
d="M469 1597l244 -264h-92l-244 140l-244 -140h-92l244 264h184z" />
    <glyph glyph-name="caron" unicode="&#x2c7;" horiz-adv-x="753" 
d="M285 1333l-244 264h92l244 -139l244 139h92l-244 -264h-184z" />
    <glyph glyph-name="breve" unicode="&#x2d8;" horiz-adv-x="647" 
d="M127 1398.5q-82 75.5 -86 190.5h74q18 -57 74.5 -91t133.5 -34t134 34t73 91h76q-8 -116 -87 -191t-195 -75q-115 0 -197 75.5z" />
    <glyph glyph-name="dotaccent" unicode="&#x2d9;" horiz-adv-x="335" 
d="M41 1521.5q0 53.5 37 90.5t90 37t90 -37t37 -90.5t-37 -90t-90 -36.5t-90 36.5t-37 90z" />
    <glyph glyph-name="ring" unicode="&#x2da;" horiz-adv-x="438" 
d="M121 1520q0 -41 27.5 -69t68.5 -28t66.5 28t25.5 69t-25.5 66.5t-66.5 25.5t-68.5 -25.5t-27.5 -66.5zM41 1521q0 77 50 128t127 51t128 -52t51 -128t-51 -126.5t-128 -50.5t-127 50.5t-50 127.5z" />
    <glyph glyph-name="ogonek" unicode="&#x2db;" horiz-adv-x="542" 
d="M199 -479q-94 0 -146.5 46t-52.5 136t80 176t225 144h109v-9q-171 -84 -211.5 -161.5t-40.5 -114.5t27.5 -65.5t76.5 -28.5q91 0 195 108l59 -63q-129 -168 -321 -168z" />
    <glyph glyph-name="tilde" unicode="&#x2dc;" horiz-adv-x="780" 
d="M575.5 1491q38.5 0 59 19.5t37.5 66.5h67q-10 -104 -68.5 -173t-123.5 -69t-142 34t-119 49.5t-82 15.5t-59.5 -17.5t-33.5 -64.5h-70q16 104 76.5 168.5t128.5 64.5t140.5 -32.5t111.5 -47t77.5 -14.5z" />
    <glyph glyph-name="hungarumlaut" unicode="&#x2dd;" horiz-adv-x="968" 
d="M850 1645q35 0 56.5 -18.5t21.5 -52.5q0 -59 -105 -108l-280 -133h-97l267 244q74 68 137 68zM444 1645q35 0 56.5 -18.5t21.5 -52.5q0 -59 -104 -108l-281 -133h-96l266 244q74 68 137 68z" />
    <glyph glyph-name="uni03BC" unicode="&#x3bc;" horiz-adv-x="1476" 
d="M500 -408q0 -48 -31 -86t-83 -38t-86 36.5t-34 89.5v1164q0 164 -24.5 200.5t-57 46t-88.5 9.5v71h371v-559q0 -229 52 -332.5t169 -103.5q193 0 253 171t60 296v201q0 164 -24.5 200.5t-57 46t-88.5 9.5v71h371v-628q0 -227 8 -277t17.5 -66t33 -28t119.5 -12v-72
l-338 -25l-22 246h-8q-66 -119 -152 -181t-182 -62q-170 0 -254 188l-8 -2q84 -421 84 -574z" />
    <glyph glyph-name="Ddotbelow" unicode="&#x1e0c;" horiz-adv-x="1810" 
d="M776 -344q0 53 37 90t90 37t90 -37t37 -90t-37 -90t-90 -37t-90 37t-37 90zM573 1477q-35 0 -34 -35v-1108q0 -233 305 -234q281 0 430 167t149 498t-158.5 521.5t-430.5 190.5h-261zM78 0v78q78 2 126 11t84 44.5t36 177.5v955q0 141 -29 176t-70 44t-106 13v78h719
q184 0 340.5 -61.5t270.5 -170t177.5 -258t63.5 -321.5t-59.5 -312.5t-167 -240.5t-257 -156.5t-327.5 -56.5h-801z" />
    <glyph glyph-name="ddotbelow" unicode="&#x1e0d;" horiz-adv-x="1382" 
d="M504 -344q0 53 37 90t90 37t90 -37t37 -90t-37 -90t-90 -37t-90 37t-37 90zM950 625q0 106 -11 161.5t-51 106.5t-113 83t-144 32q-147 0 -224 -122t-77 -336t77 -343t224 -129q117 0 201.5 64.5t101 150.5t16.5 196v136zM631 1106q186 0 323 -137v209q0 242 -11 294
t-58 70.5t-154 18.5v61l420 78v-1182q0 -307 10 -347q17 -66 48.5 -82.5t121.5 -16.5v-70l-340 -22v192h-8q-74 -104 -157.5 -148t-197.5 -44q-231 0 -380.5 159t-149.5 403t150 404t383 160z" />
    <glyph glyph-name="Hdotbelow" unicode="&#x1e24;" horiz-adv-x="1894" 
d="M823 -344q0 53 37 90t90.5 37t90 -37t36.5 -90t-36.5 -90t-90 -37t-90.5 37t-37 90zM1577 326q0 -156 39.5 -200t183.5 -48v-78h-663v78q141 4 183 46t42 187v445h-830v-430q0 -155 40 -199.5t184 -48.5v-78h-664v78q142 4 183.5 46t41.5 187v955q0 142 -28.5 176.5
t-69.5 43.5t-106 13v78h622v-78q-66 -2 -105.5 -12t-68.5 -46.5t-29 -189.5v-393h830v408q0 142 -28.5 176.5t-69.5 43.5t-107 13v78h623v-78q-132 -4 -167.5 -49t-35.5 -199v-925z" />
    <glyph glyph-name="hdotbelow" unicode="&#x1e25;" horiz-adv-x="1409" 
d="M580 -344q0 53 36.5 90t90 37t90.5 -37t37 -90t-37 -90t-90.5 -37t-90 37t-36.5 90zM426 326q0 -84 4 -133.5t21.5 -75t50.5 -33.5t92 -12v-72h-545v72q59 4 94 12t58.5 39t23.5 188v858q0 238 -9 282t-18.5 59.5t-35.5 28.5t-117 13v70l377 78v-780h8q59 79 175.5 132.5
t217.5 53.5q102 0 181 -33t118 -84t55.5 -128t16.5 -208v-327q0 -84 4 -132.5t21.5 -75t50.5 -34.5t92 -12v-72h-543v72q116 4 144 43.5t28 195.5v258q0 229 -53 326.5t-178 97.5q-96 0 -183 -54t-119 -135t-32 -216v-262z" />
    <glyph glyph-name="Ndotaccent" unicode="&#x1e44;" horiz-adv-x="1847" 
d="M844 1853q0 45 31.5 78t76.5 33t78 -33t33 -78t-33 -76.5t-78 -31.5t-76.5 31.5t-31.5 76.5zM440 1262v-875q0 -198 29 -242.5t69 -54.5t105 -12v-78h-551v78q72 2 116 13t68.5 42t32.5 87t8 153v831q0 178 -36 232.5t-168 62.5v78h405l895 -1194h8v807
q0 200 -28.5 243.5t-68.5 53.5t-105 12v78h550v-78q-72 -2 -115.5 -13t-76.5 -53t-33 -229v-1224h-123l-972 1282h-9z" />
    <glyph glyph-name="ndotaccent" unicode="&#x1e45;" horiz-adv-x="1411" 
d="M596 1521.5q0 53.5 37 90.5t90 37t90 -37t37 -90.5t-37 -90t-90 -36.5t-90 36.5t-37 90zM842 1106q94 0 172 -31t116 -81t52 -124.5t14 -205.5v-342q0 -166 21.5 -199t55.5 -41t89 -12v-70h-531v70q114 4 142 43.5t28 193.5v271q0 233 -51.5 325t-181.5 92
q-92 0 -178 -53.5t-117 -135.5t-31 -210v-274q0 -168 21.5 -200t55.5 -40t93 -12v-70h-536v70q57 4 91 12t57.5 39t23.5 186v273q0 244 -9 284t-18.5 57t-35 29.5t-113.5 12.5v65l327 78l25 -203h8q165 203 410 203z" />
    <glyph glyph-name="Rdotbelow" unicode="&#x1e5a;" horiz-adv-x="1613" 
d="M717 -344q0 53 37 90t90 37t90 -37t37 -90t-37 -90t-90 -37t-90 37t-37 90zM532 850h146q205 0 304 74.5t99 243.5t-78.5 241t-246.5 72h-189q-35 0 -35 -35v-596zM1348 1182q0 -347 -412 -418l453 -545q55 -68 121.5 -97.5t158.5 -43.5v-78h-395l-502 643
q-51 66 -96 85.5t-144 19.5v-426q0 -76 9.5 -124t49 -84t224.5 -36v-78h-723v78q142 4 183.5 46t41.5 187v955q0 142 -28.5 176.5t-69.5 43.5t-106 13v78h643q283 0 437.5 -104.5t154.5 -290.5z" />
    <glyph glyph-name="rdotbelow" unicode="&#x1e5b;" horiz-adv-x="976" 
d="M231 -344q0 53 37 90t90.5 37t90 -37t36.5 -90t-36.5 -90t-90 -37t-90.5 37t-37 90zM455 326q0 -84 4 -133.5t21.5 -75t50 -33.5t92.5 -12v-72h-545v72q117 4 146.5 43t29.5 196v240q0 139 -3 217t-20.5 115t-54.5 44t-102 7v72l358 77l29 -254h8q84 189 193.5 233
t169.5 44t97.5 -32t37.5 -83t-31 -78.5t-76 -27.5q-61 0 -107.5 25.5t-66.5 25.5q-55 0 -143 -112t-88 -429v-69z" />
    <glyph glyph-name="Sdotbelow" unicode="&#x1e62;" horiz-adv-x="1320" 
d="M524 -344q0 53 37 90t90.5 37t90 -37t36.5 -90t-36.5 -90t-90 -37t-90.5 37t-37 90zM450.5 1431.5q-73.5 -61.5 -73.5 -161.5t70.5 -170t232.5 -142q312 -139 421 -246t109 -268q0 -205 -154.5 -334.5t-402.5 -129.5q-117 0 -210 32.5t-189 110.5l-57 -100h-47l-31 458
h76q28 -183 154 -290t294 -107t256 71.5t88 184.5t-75.5 187t-242.5 146t-253 123.5t-159 129.5t-73 252t128.5 296.5t316.5 122.5t340 -120l53 92h47l23 -408h-76q-97 332 -367 332q-125 0 -198.5 -61.5z" />
    <glyph glyph-name="sdotbelow" unicode="&#x1e63;" horiz-adv-x="929" 
d="M365 -342q0 53 36.5 90t90 37t90 -37t36.5 -90t-36.5 -90t-90 -37t-90 37t-36.5 90zM741 1085v-294h-53q-45 125 -98 178t-127 53t-116 -37t-42 -87t11.5 -75.5t43.5 -57.5t133 -94q203 -125 272 -199t69 -181q0 -145 -95 -228t-251 -83t-271 92l-41 -72h-45v352h51
q80 -289 291 -289q82 0 130 40t48 110t-41 107.5t-153 107.5q-113 70 -164 106.5t-103.5 94t-52.5 179.5t88 210t212 88t225 -64l40 43h39z" />
    <glyph glyph-name="Tdotbelow" unicode="&#x1e6c;" horiz-adv-x="1644" 
d="M696 -344q0 53 37 90t90.5 37t90 -37t36.5 -90t-36.5 -90t-90 -37t-90.5 37t-37 90zM992 1477.5q-34 -11.5 -41 -22.5t-7 -30v-1095q0 -140 50.5 -194t213.5 -58v-78h-774v78q166 4 216 57.5t50 194.5v1095q0 35 -36 49.5t-140 14.5t-252 -13t-153 -290h-76v391h1546
l21 -391h-84q-12 176 -91.5 239.5t-244.5 63.5q-164 0 -198 -11.5z" />
    <glyph glyph-name="tdotbelow" unicode="&#x1e6d;" horiz-adv-x="774" 
d="M354 -344q0 53 37 90t90.5 37t90 -37t36.5 -90t-36.5 -90t-90 -37t-90.5 37t-37 90zM205 229v727h-123v76q109 63 170 127t94 152h60v-258h274v-97h-274v-622q0 -145 23.5 -187.5t50 -54.5t72.5 -12q88 0 153 94l51 -39q-59 -155 -275 -155q-135 0 -205.5 64.5
t-70.5 184.5z" />
    <glyph glyph-name="Wgrave" unicode="&#x1e80;" horiz-adv-x="2408" 
d="M954 1896q0 34 21.5 52t72.5 18t162 -68l267 -157h-123l-246 57q-154 36 -154 98zM2081 1402q0 58 -34 77.5t-120 19.5v78h498v-78q-94 0 -142.5 -39t-80.5 -127l-514 -1353h-72l-393 1165l-437 -1165h-71l-426 1175q-37 98 -66.5 164.5t-78 122t-167.5 55.5v80h668v-80
q-104 0 -146 -18.5t-42 -69.5t32 -145l312 -949l252 709q29 80 56.5 148.5t43.5 123.5q-61 123 -101.5 162t-101.5 39v80h627v-80q-117 0 -144.5 -13.5t-34.5 -29.5t-7 -52t43 -173l274 -920l320 889q53 146 53 204z" />
    <glyph glyph-name="wgrave" unicode="&#x1e81;" horiz-adv-x="1744" 
d="M647 1574q0 34 21.5 52.5t56.5 18.5q63 0 137 -68l266 -244h-96l-280 133q-105 49 -105 108zM567 1014q-145 0 -145 -70q0 -39 22 -129l140 -489h8l301 759h63l273 -759h8l123 331q69 187 76.5 226t7.5 71t-26.5 46t-110.5 14v71h409v-71q-59 0 -93.5 -43t-100.5 -207
l-318 -784h-76l-249 755h-9l-301 -755h-75l-267 851q-36 113 -66 140.5t-60.5 35t-75.5 7.5v71h542v-71z" />
    <glyph glyph-name="Wacute" unicode="&#x1e82;" horiz-adv-x="2408" 
d="M1424 1966q94 0 94 -72q0 -59 -154 -96l-246 -57h-123l267 157q111 68 162 68zM2081 1402q0 58 -34 77.5t-120 19.5v78h498v-78q-94 0 -142.5 -39t-80.5 -127l-514 -1353h-72l-393 1165l-437 -1165h-71l-426 1175q-37 98 -66.5 164.5t-78 122t-167.5 55.5v80h668v-80
q-104 0 -146 -18.5t-42 -69.5t32 -145l312 -949l252 709q29 80 56.5 148.5t43.5 123.5q-61 123 -101.5 162t-101.5 39v80h627v-80q-117 0 -144.5 -13.5t-34.5 -29.5t-7 -52t43 -173l274 -920l320 889q53 146 53 204z" />
    <glyph glyph-name="wacute" unicode="&#x1e83;" horiz-adv-x="1744" 
d="M1143 1645q35 0 56.5 -18.5t21.5 -52.5q0 -59 -105 -108l-280 -133h-97l267 244q74 68 137 68zM567 1014q-145 0 -145 -70q0 -39 22 -129l140 -489h8l301 759h63l273 -759h8l123 331q69 187 76.5 226t7.5 71t-26.5 46t-110.5 14v71h409v-71q-59 0 -93.5 -43t-100.5 -207
l-318 -784h-76l-249 755h-9l-301 -755h-75l-267 851q-36 113 -66 140.5t-60.5 35t-75.5 7.5v71h542v-71z" />
    <glyph glyph-name="Wdieresis" unicode="&#x1e84;" horiz-adv-x="2408" 
d="M1343 1863q0 44 30 73.5t74 29.5t73.5 -29.5t29.5 -73.5t-29.5 -74t-73.5 -30t-74 30t-30 74zM971 1863q0 44 29.5 73.5t73.5 29.5t74 -29.5t30 -73.5t-30 -74t-74 -30t-73.5 30t-29.5 74zM2081 1402q0 58 -34 77.5t-120 19.5v78h498v-78q-94 0 -142.5 -39t-80.5 -127
l-514 -1353h-72l-393 1165l-437 -1165h-71l-426 1175q-37 98 -66.5 164.5t-78 122t-167.5 55.5v80h668v-80q-104 0 -146 -18.5t-42 -69.5t32 -145l312 -949l252 709q29 80 56.5 148.5t43.5 123.5q-61 123 -101.5 162t-101.5 39v80h627v-80q-117 0 -144.5 -13.5t-34.5 -29.5
t-7 -52t43 -173l274 -920l320 889q53 146 53 204z" />
    <glyph glyph-name="wdieresis" unicode="&#x1e85;" horiz-adv-x="1744" 
d="M977 1452q0 51 33.5 85t85 34t85 -34t33.5 -85t-33.5 -85t-85 -34t-85 34t-33.5 85zM635 1452q0 51 33.5 85t85 34t85 -34t33.5 -85t-33.5 -85t-85 -34t-85 34t-33.5 85zM567 1014q-145 0 -145 -70q0 -39 22 -129l140 -489h8l301 759h63l273 -759h8l123 331
q69 187 76.5 226t7.5 71t-26.5 46t-110.5 14v71h409v-71q-59 0 -93.5 -43t-100.5 -207l-318 -784h-76l-249 755h-9l-301 -755h-75l-267 851q-36 113 -66 140.5t-60.5 35t-75.5 7.5v71h542v-71z" />
    <glyph glyph-name="Zdotbelow" unicode="&#x1e92;" horiz-adv-x="1576" 
d="M666 -344q0 53 36.5 90t90 37t90.5 -37t37 -90t-37 -90t-90.5 -37t-90 37t-36.5 90zM33 0v8l1077 1483h-561q-145 0 -217 -65.5t-101 -225.5h-75l30 377h1248v-8l-1067 -1475h634q104 0 172 15.5t110 58.5t65.5 117.5t42.5 195.5h88l-25 -481h-1421z" />
    <glyph glyph-name="zdotbelow" unicode="&#x1e93;" horiz-adv-x="1140" 
d="M436 -344q0 53 37 90t90 37t90 -37t37 -90t-37 -90t-90 -37t-90 37t-37 90zM37 0v8l708 991h-227q-178 0 -239 -37t-80 -159h-66l33 282h881v-8l-699 -983h240q210 0 270 33t85.5 76t43.5 114h68l-35 -317h-983z" />
    <glyph glyph-name="Edotbelow" unicode="&#x1eb8;" horiz-adv-x="1486" 
d="M649 -344q0 53 37 90t90 37t90 -37t37 -90t-37 -90t-90 -37t-90 37t-37 90zM532 866q219 0 303.5 54.5t84.5 181.5h71v-559h-71q0 127 -83.5 184t-304.5 57v-462q0 -133 73 -183.5t279 -50.5t298.5 67t134.5 248h78l-31 -403h-1272v78q142 4 183.5 46t41.5 187v955
q0 142 -28.5 176.5t-69.5 43.5t-106 13v78h1183l19 -360h-72q-23 158 -113.5 215t-302.5 57h-260q-35 0 -35 -35v-588z" />
    <glyph glyph-name="edotbelow" unicode="&#x1eb9;" horiz-adv-x="1173" 
d="M512 -344q0 53 37 90t90 37t90 -37t37 -90t-37 -90t-90 -37t-90 37t-37 90zM731 743q80 0 97.5 8.5t21.5 19.5t4 30q0 94 -60.5 150.5t-164.5 56.5q-221 0 -275 -265h377zM332 534q0 -83 25.5 -170.5t100.5 -182.5t236 -95q86 0 160 38t152 124l63 -58
q-174 -210 -424 -210t-397.5 153t-147.5 402q0 250 158.5 410.5t403.5 160.5q199 0 307 -107.5t108 -308.5q0 -29 -11 -35t-52 -6h-674q-8 -32 -8 -115z" />
    <glyph glyph-name="Etilde" unicode="&#x1ebc;" horiz-adv-x="1486" 
d="M960.5 1872q38.5 0 59 19.5t37.5 66.5h67q-10 -104 -68.5 -173t-123.5 -69t-142 34t-119 49.5t-82 15.5t-59.5 -17.5t-33.5 -64.5h-70q16 104 76.5 168.5t128.5 64.5t140.5 -32.5t111.5 -47t77.5 -14.5zM532 866q219 0 303.5 54.5t84.5 181.5h71v-559h-71
q0 127 -83.5 184t-304.5 57v-462q0 -133 73 -183.5t279 -50.5t298.5 67t134.5 248h78l-31 -403h-1272v78q142 4 183.5 46t41.5 187v955q0 142 -28.5 176.5t-69.5 43.5t-106 13v78h1183l19 -360h-72q-23 158 -113.5 215t-302.5 57h-260q-35 0 -35 -35v-588z" />
    <glyph glyph-name="etilde" unicode="&#x1ebd;" horiz-adv-x="1173" 
d="M811 1491q39 0 59.5 19.5t36.5 66.5h68q-10 -104 -68.5 -173t-123.5 -69t-142.5 34t-119.5 49.5t-82 15.5t-59.5 -17.5t-33.5 -64.5h-70q16 104 77 168.5t129 64.5t140 -32.5t111 -47t78 -14.5zM731 743q80 0 97.5 8.5t21.5 19.5t4 30q0 94 -60.5 150.5t-164.5 56.5
q-221 0 -275 -265h377zM332 534q0 -83 25.5 -170.5t100.5 -182.5t236 -95q86 0 160 38t152 124l63 -58q-174 -210 -424 -210t-397.5 153t-147.5 402q0 250 158.5 410.5t403.5 160.5q199 0 307 -107.5t108 -308.5q0 -29 -11 -35t-52 -6h-674q-8 -32 -8 -115z" />
    <glyph glyph-name="Idotbelow" unicode="&#x1eca;" horiz-adv-x="849" 
d="M295 -344q0 53 37 90t90 37t90 -37t37 -90t-37 -90t-90 -37t-90 37t-37 90zM532 387q0 -197 32 -242t76 -55t116 -12v-78h-664v78q72 2 116 13t68.5 42t32.5 87t8 153v831q0 178 -36 232.5t-168 62.5v78h622v-78q-128 -4 -165.5 -62.5t-37.5 -246.5v-803z" />
    <glyph glyph-name="idotbelow" unicode="&#x1ecb;" horiz-adv-x="698" 
d="M240 -344q0 53 36.5 90t90 37t90.5 -37t37 -90t-37 -90t-90.5 -37t-90 37t-36.5 90zM231 1521.5q0 53.5 37 90.5t90.5 37t90 -37t36.5 -90.5t-36.5 -90t-90 -36.5t-90.5 36.5t-37 90zM467 326q0 -157 27.5 -194.5t64.5 -47.5t98 -12v-72h-587v72q122 4 159 48t37 191v262
q0 252 -12 300t-49 65.5t-139 17.5v72l401 78v-780z" />
    <glyph glyph-name="Odotbelow" unicode="&#x1ecc;" horiz-adv-x="1937" 
d="M844 -344q0 53 37 90t90 37t90 -37t37 -90t-37 -90t-90 -37t-90 37t-37 90zM1554 777q0 322 -158 515t-428 193t-427.5 -194t-157.5 -514t157 -502.5t427 -182.5t428.5 181.5t158.5 503.5zM968.5 1597q180.5 0 336 -63.5t270.5 -174t180.5 -260t65.5 -319.5t-66.5 -315.5
t-181.5 -253t-270.5 -169.5t-333.5 -62t-334 62t-270.5 169.5t-181 253t-66.5 315.5t65.5 319.5t180 260t270 174t336 63.5z" />
    <glyph glyph-name="odotbelow" unicode="&#x1ecd;" horiz-adv-x="1339" 
d="M539 -344q0 53 36.5 90t90 37t90.5 -37t37 -90t-37 -90t-90.5 -37t-90 37t-36.5 90zM421.5 882q-91.5 -126 -91.5 -337t91.5 -336t245.5 -125t248.5 127t94.5 335t-95.5 335t-248.5 127t-244.5 -126zM1071 947q170 -159 170 -401q0 -241 -170 -403.5t-406 -162.5
t-401.5 161.5t-165.5 405.5q0 245 166.5 402t401.5 157t405 -159z" />
    <glyph glyph-name="Udotbelow" unicode="&#x1ee4;" horiz-adv-x="1763" 
d="M799 -344q0 53 36.5 90t90 37t90.5 -37t37 -90t-37 -90t-90.5 -37t-90 37t-36.5 90zM1356 555v494q0 342 -63 403q-34 33 -76.5 40t-106.5 7v78h594v-78q-66 0 -108 -10t-70 -49t-37.5 -130t-9.5 -261v-414q0 -334 -138 -494.5t-451 -160.5t-458 131t-145 448v541
q0 152 -7.5 233.5t-37.5 114.5t-71.5 42t-111.5 9v78h699v-78q-70 0 -113 -8t-69 -43t-35 -116t-9 -232v-557q0 -218 96.5 -327.5t317.5 -109.5q410 0 410 449z" />
    <glyph glyph-name="udotbelow" unicode="&#x1ee5;" 
d="M469 -344q0 53 37 90t90 37t90 -37t37 -90t-37 -90t-90 -37t-90 37t-37 90zM213 432v326q0 84 -4 132t-21.5 73.5t-51.5 35t-93 15.5v71h371v-559q0 -223 52 -323.5t167 -100.5q180 0 280 236q28 70 31.5 123t3.5 96v201q0 84 -4 132t-21.5 73.5t-51 35t-93.5 15.5v71
h371v-628q0 -227 8 -277t17.5 -66t34 -28t118.5 -12v-72l-338 -25l-22 246h-9q-149 -243 -391 -243q-86 0 -166.5 32.5t-118.5 82.5q-68 91 -69 337z" />
    <glyph glyph-name="Ygrave" unicode="&#x1ef2;" horiz-adv-x="1501" 
d="M530 1896q0 34 21.5 52t72.5 18t162 -68l267 -157h-123l-246 57q-154 36 -154 98zM-10 1499v78h645v-78q-102 0 -144 -15.5t-42 -55.5t47 -121l317 -543h8l232 389q121 204 121 259.5t-30 71t-104 15.5v78h469v-78q-43 0 -76.5 -12t-83.5 -62t-175 -262l-316 -532v-244
q0 -100 7 -160.5t31 -93.5t68 -44t117 -11v-78h-663v78q74 0 118 11t75.5 54t31.5 230v250l-410 700q-62 105 -100.5 133.5t-69 35.5t-73.5 7z" />
    <glyph glyph-name="ygrave" unicode="&#x1ef3;" horiz-adv-x="1308" 
d="M438 1574q0 34 21.5 52.5t56.5 18.5q63 0 137 -68l267 -244h-97l-280 133q-105 49 -105 108zM154 -436q0 51 35.5 74.5t105.5 34.5q107 17 154.5 50.5t82.5 110.5l72 143l-393 854q-54 114 -81.5 139t-54 32.5t-67.5 11.5v71h543v-71q-137 0 -137 -66t57 -203l225 -544
h11l186 461q27 68 44 110.5t29.5 78.5t12.5 81t-29.5 63.5t-113.5 18.5v71h450v-71q-39 0 -65.5 -10.5t-64.5 -60t-134 -271.5l-447 -994q-94 -211 -292 -210q-129 0 -129 96z" />
    <glyph glyph-name="Ytilde" unicode="&#x1ef8;" horiz-adv-x="1501" 
d="M1020 1872q39 0 59.5 19.5t36.5 66.5h68q-10 -104 -68.5 -173t-123.5 -69t-142.5 34t-119.5 49.5t-82 15.5t-59.5 -17.5t-33.5 -64.5h-70q16 104 77 168.5t129 64.5t140 -32.5t111 -47t78 -14.5zM-10 1499v78h645v-78q-102 0 -144 -15.5t-42 -55.5t47 -121l317 -543h8
l232 389q121 204 121 259.5t-30 71t-104 15.5v78h469v-78q-43 0 -76.5 -12t-83.5 -62t-175 -262l-316 -532v-244q0 -100 7 -160.5t31 -93.5t68 -44t117 -11v-78h-663v78q74 0 118 11t75.5 54t31.5 230v250l-410 700q-62 105 -100.5 133.5t-69 35.5t-73.5 7z" />
    <glyph glyph-name="ytilde" unicode="&#x1ef9;" horiz-adv-x="1308" 
d="M885 1491q39 0 59.5 19.5t36.5 66.5h68q-10 -104 -68.5 -173t-123.5 -69t-142.5 34t-119.5 49.5t-82 15.5t-59.5 -17.5t-33.5 -64.5h-70q16 104 76.5 168.5t128.5 64.5t140.5 -32.5t111.5 -47t78 -14.5zM154 -436q0 51 35.5 74.5t105.5 34.5q107 17 154.5 50.5
t82.5 110.5l72 143l-393 854q-54 114 -81.5 139t-54 32.5t-67.5 11.5v71h543v-71q-137 0 -137 -66t57 -203l225 -544h11l186 461q27 68 44 110.5t29.5 78.5t12.5 81t-29.5 63.5t-113.5 18.5v71h450v-71q-39 0 -65.5 -10.5t-64.5 -60t-134 -271.5l-447 -994
q-94 -211 -292 -210q-129 0 -129 96z" />
    <glyph glyph-name="endash" unicode="&#x2013;" horiz-adv-x="1482" 
d="M158 508v170h1167v-170h-1167z" />
    <glyph glyph-name="emdash" unicode="&#x2014;" horiz-adv-x="2277" 
d="M158 508v170h1962v-170h-1962z" />
    <glyph glyph-name="quoteleft" unicode="&#x2018;" horiz-adv-x="526" 
d="M299 1382q41 0 70.5 -31.5t29.5 -83.5t-37.5 -87t-101.5 -35q-145 0 -145 192q0 104 52 182.5t191 180.5l48 -55q-94 -72 -134.5 -136.5t-40.5 -142.5q27 16 68 16z" />
    <glyph glyph-name="quoteright" unicode="&#x2019;" horiz-adv-x="520" 
d="M137 1578q0 52 38 87t101 35q145 0 146 -193q0 -148 -87 -229.5t-157 -132.5l-47 55q94 72 134 136.5t40 142.5q-27 -17 -67 -17t-70.5 32t-30.5 84z" />
    <glyph glyph-name="quotesinglbase" unicode="&#x201a;" horiz-adv-x="563" 
d="M242 -20q-40 0 -70.5 31.5t-30.5 83.5t38 87t102 35q145 0 145 -192q0 -149 -87 -230.5t-157 -132.5l-47 55q94 72 134 136.5t40 142.5q-27 -16 -67 -16z" />
    <glyph glyph-name="quotedblleft" unicode="&#x201c;" horiz-adv-x="919" 
d="M299 1382q41 0 70.5 -31.5t29.5 -83.5t-37.5 -87t-101.5 -35q-145 0 -145 192q0 104 52 182.5t191 180.5l48 -55q-94 -72 -134.5 -136.5t-40.5 -142.5q27 16 68 16zM692 1382q40 0 70.5 -31.5t30.5 -83.5t-38 -87t-102 -35q-145 0 -145 192q0 104 52.5 183t191.5 180
l47 -55q-94 -72 -134 -136.5t-40 -142.5q27 16 67 16z" />
    <glyph glyph-name="quotedblright" unicode="&#x201d;" horiz-adv-x="913" 
d="M530 1578q0 52 38 87t102 35q145 0 145 -193q0 -103 -52.5 -182t-191.5 -180l-47 55q94 72 134 136.5t40 142.5q-28 -17 -68 -17t-70 32t-30 84zM137 1578q0 52 38 87t101 35q145 0 146 -193q0 -148 -87 -229.5t-157 -132.5l-47 55q94 72 134 136.5t40 142.5
q-27 -17 -67 -17t-70.5 32t-30.5 84z" />
    <glyph glyph-name="quotedblbase" unicode="&#x201e;" horiz-adv-x="956" 
d="M634 -20q-40 0 -69.5 31.5t-29.5 83.5t37.5 87t101.5 35q145 0 145 -192q0 -104 -52.5 -183t-191.5 -180l-47 55q94 72 134 136.5t40 142.5q-28 -16 -68 -16zM242 -20q-40 0 -70.5 31.5t-30.5 83.5t38 87t102 35q145 0 145 -192q0 -149 -87 -230.5t-157 -132.5l-47 55
q94 72 134 136.5t40 142.5q-27 -16 -67 -16z" />
    <glyph glyph-name="dagger" unicode="&#x2020;" horiz-adv-x="1130" 
d="M179 879q-44 0 -81 36.5t-37 90t37 90.5t81 37t75 -11.5t102 -38t168 -34.5q-3 143 -31 224t-40.5 117.5t-12.5 84.5t37 85t90.5 37t90 -36.5t36.5 -84.5t-12 -84t-40 -117t-34 -226q99 8 168.5 35.5t100 38t74.5 10.5t81 -37t37 -90.5t-37 -90t-81 -36.5t-74.5 10
t-95.5 35.5t-173 36.5q0 -215 42 -299t71 -127q-70 -257 -91.5 -597.5t-21.5 -469.5h-82q0 421 -45 702t-67 365q86 128 99 239t13 187q-106 -9 -172.5 -35.5t-98.5 -36.5t-76 -10z" />
    <glyph glyph-name="daggerdbl" unicode="&#x2021;" horiz-adv-x="1216" 
d="M994 186q44 0 81 -36.5t37 -90t-37 -90.5t-81 -37t-74.5 10.5t-100 38t-168.5 35.5q6 -145 34 -226t40 -116.5t12 -83.5t-36.5 -85t-90 -37t-90.5 36.5t-37 84.5t12.5 85t40.5 118t31 224q-96 -8 -167.5 -34.5t-102.5 -38t-75 -11.5t-81 37t-37 90.5t37 90t81 36.5
q58 0 147 -35.5t200 -46.5q0 149 -27 242.5t-85 188.5q86 128 99 239t13 187q-106 -9 -172.5 -35.5t-98.5 -36.5t-76 -10t-81 36.5t-37 90t37 90.5t81 37t75 -11.5t102 -38t168 -34.5q-3 143 -31 224t-40.5 117.5t-12.5 84.5t37 85t90.5 37t90 -36.5t36.5 -84.5t-12 -84
t-40 -117t-34 -226q99 8 168.5 35.5t100 38t74.5 10.5t81 -37t37 -90.5t-37 -90t-81 -36.5t-74.5 10t-95.5 35.5t-173 36.5q0 -215 42 -299t71 -127q-62 -91 -87.5 -192t-25.5 -239q103 9 170.5 35.5t98 36.5t74.5 10z" />
    <glyph glyph-name="bullet" unicode="&#x2022;" horiz-adv-x="974" 
d="M265.5 975.5q93.5 91.5 223.5 91.5q129 0 221.5 -90.5t92.5 -221.5t-94.5 -222t-222.5 -91t-221 91.5t-93 221t93.5 221z" />
    <glyph glyph-name="ellipsis" unicode="&#x2026;" horiz-adv-x="1427" 
d="M1022 114q0 56 39 95t95 39t95 -39t39 -95t-39 -95t-95 -39t-95 39t-39 95zM580 114q0 56 39 95t95 39t95 -39t39 -95t-39 -95t-95 -39t-95 39t-39 95zM137 114q0 56 39 95t95 39t95.5 -39t39.5 -95t-39 -95t-95 -39t-95.5 39t-39.5 95z" />
    <glyph glyph-name="perthousand" unicode="&#x2030;" horiz-adv-x="1875" 
d="M997.5 31q92.5 0 92.5 227q0 262 -47.5 289.5t-94 27.5t-77.5 -62t-31 -217t32.5 -210t125 -55zM1206 300q0 -134 -70.5 -227t-171 -93t-171 93.5t-70.5 226.5q0 134 71 230.5t170.5 96.5t170.5 -96.5t71 -230.5zM1593.5 31q92.5 0 92.5 227q0 262 -47.5 289.5t-94 27.5
t-77.5 -62t-31 -217t32.5 -210t125 -55zM1802 300q0 -134 -70.5 -227t-171 -93t-171 93.5t-70.5 226.5q0 134 71 230.5t170.5 96.5t170.5 -96.5t71 -230.5zM442.5 1001q92.5 0 92.5 228q0 262 -47.5 289.5t-94 27.5t-77.5 -62t-31 -217t32.5 -210.5t125 -55.5zM409.5 1597
q99.5 0 170.5 -96t71 -230t-70.5 -227.5t-171 -93.5t-171 93.5t-70.5 227.5t71 230t170.5 96zM188 0h-116l1132 1577h99z" />
    <glyph glyph-name="guilsinglleft" unicode="&#x2039;" horiz-adv-x="651" 
d="M100 537l349 325l40 -43l-202 -282l200 -283l-38 -41z" />
    <glyph glyph-name="guilsinglright" unicode="&#x203a;" horiz-adv-x="651" 
d="M203 213l-39 41l201 283l-203 282l41 43l348 -325z" />
    <glyph glyph-name="fraction" unicode="&#x2044;" horiz-adv-x="81" 
d="M-457 0h-116l1132 1577h98z" />
    <glyph glyph-name="zerosuperior" unicode="&#x2070;" horiz-adv-x="634" 
d="M350 1001q92 0 92 228q0 193 -31 255t-93.5 62t-93.5 -62t-31 -217t32.5 -210.5t124.5 -55.5zM317.5 1597q99.5 0 170.5 -96t71 -230t-70.5 -227.5t-171 -93.5t-171 93.5t-70.5 227.5t71 230t170.5 96z" />
    <glyph glyph-name="foursuperior" unicode="&#x2074;" horiz-adv-x="561" 
d="M274 1423h-8l-174 -266h182v266zM375 1597v-442q51 2 63.5 14.5t12.5 59.5h38v-193h-38q0 45 -12.5 57.5t-63.5 14.5v-16q0 -63 12 -82t53 -21v-31h-252v31q55 4 70.5 20.5t15.5 75.5v21h-233v51l289 440h45z" />
    <glyph glyph-name="fivesuperior" unicode="&#x2075;" horiz-adv-x="534" 
d="M299 1499h-74l-37 -141l7 -4q29 22 97 22t119.5 -51t51.5 -146t-73.5 -162t-165.5 -67q-91 0 -136 31t-45 80t35 49q16 0 27.5 -11.5t25.5 -46.5t29.5 -45t44.5 -10q68 0 106.5 55.5t38.5 149.5q0 129 -86 129q-58 1 -93 -63q-17 -30 -35.5 -30.5t-18.5 11.5t4 25l86 323
q33 -14 110 -14t111 14h8q-21 -98 -137 -98z" />
    <glyph glyph-name="sixsuperior" unicode="&#x2076;" horiz-adv-x="598" 
d="M188 1190q0 -193 113 -193t113 164t-105 164q-72 0 -121 -94v-41zM137.5 1029q-61.5 79 -61.5 217t75 244.5t183 106.5q66 0 109.5 -24.5t43.5 -59.5q0 -43 -45 -43q-27 0 -38 12.5t-27 40t-67 27.5q-52 0 -91 -70.5t-39 -176.5l8 -3q50 74 136 74t144 -58.5t58 -147.5
t-67 -153.5t-164 -64.5q-96 0 -157.5 79z" />
    <glyph glyph-name="sevensuperior" unicode="&#x2077;" horiz-adv-x="487" 
d="M150 1602q0 -16 11 -20.5t52 -4.5h250v-16q-123 -267 -152.5 -352t-55.5 -151q-47 -120 -93 -120q-47 0 -47 45q0 23 22.5 63.5t52 94t78.5 141.5l111 213h-152q-63 0 -82.5 -9.5t-38.5 -55.5l-12 -33h-41l58 229h43q-4 -8 -4 -24z" />
    <glyph glyph-name="eightsuperior" unicode="&#x2078;" horiz-adv-x="569" 
d="M391 1449q0 38 -28.5 69.5t-79.5 31.5t-78 -24.5t-27 -59.5t22.5 -60.5t78.5 -53.5l38 -21q29 16 51.5 48t22.5 70zM494 1133q0 -84 -63.5 -133.5t-147.5 -49.5q-128 0 -167.5 58t-39.5 110t42 91.5t95 64.5q-47 27 -82 64.5t-35 101.5t51 110t131 47q79 0 119 -26
q72 -47 72 -108q0 -62 -31 -92.5t-76 -57.5q132 -72 132 -180zM164 1110q0 -55 33 -84t87 -29t90 28t36 70t-20.5 70.5t-82.5 63.5l-49 28q-94 -50 -94 -147z" />
    <glyph glyph-name="ninesuperior" unicode="&#x2079;" horiz-adv-x="598" 
d="M410 1358q0 193 -113 192.5t-113 -164.5t105 -163q72 0 121 94v41zM302 1597q97 0 158.5 -78.5t61.5 -216.5t-75.5 -245t-182.5 -107q-66 0 -109.5 24.5t-43.5 59.5q0 43 45 43q27 0 38 -12t20 -27.5t23.5 -28t49.5 -12.5q53 0 92 71t39 177l-8 2q-50 -73 -136 -73
t-144 58t-58 146t66.5 153.5t163.5 65.5z" />
    <glyph glyph-name="zeroinferior" unicode="&#x2080;" horiz-adv-x="634" 
d="M350 31q92 0 92 227q0 193 -31 255t-93.5 62t-93.5 -62t-31 -217t32.5 -210t124.5 -55zM317.5 627q99.5 0 170.5 -96.5t71 -230.5t-70.5 -227t-171 -93t-171 93.5t-70.5 226.5q0 134 71 230.5t170.5 96.5z" />
    <glyph glyph-name="oneinferior" unicode="&#x2081;" horiz-adv-x="503" 
d="M301 143q0 -63 15.5 -81.5t70.5 -20.5v-41h-262v41q55 4 70.5 20.5t15.5 75.5v195q0 196 -4 205q-6 26 -86 26v41q85 4 180 35v-496z" />
    <glyph glyph-name="twoinferior" unicode="&#x2082;" horiz-adv-x="583" 
d="M256 399q-9 -53 -81 -53q-38 0 -67.5 35t-29.5 99t57.5 111.5t147.5 47.5t147 -49.5t57 -113.5q0 -108 -70.5 -192t-217.5 -196v-8h174q41 0 61.5 18.5t36.5 75.5h41l-31 -174h-411v27q256 229 282.5 311t26.5 133t-30 86t-78 35t-76.5 -30t-28.5 -73t24.5 -66.5
t65.5 -23.5z" />
    <glyph glyph-name="threeinferior" unicode="&#x2083;" horiz-adv-x="573" 
d="M381 164q0 66 -27.5 101.5t-77.5 35.5q-28 -14 -60 -14q-32 1 -32 31t35 30q25 0 51 -10q43 0 70 38t27 101q0 104 -97 105q-82 0 -82 -64q0 -23 15.5 -38t42.5 -15q-4 -16 -23.5 -28.5t-49.5 -12.5t-53.5 25.5t-23.5 70.5t48 76t134 31t141.5 -40.5t55.5 -100.5
t-38 -102t-95 -54v-8q66 -16 110 -59t44 -113t-65 -120t-157 -50t-147 41t-55 95t26.5 83.5t60.5 29.5q72 0 81 -47q-31 0 -51.5 -19t-20.5 -53t27.5 -57.5t70.5 -23.5q115 0 115 135z" />
    <glyph glyph-name="fourinferior" unicode="&#x2084;" horiz-adv-x="561" 
d="M274 465h-8l-174 -266h182v266zM375 639v-442q51 2 63.5 14t12.5 59h38v-192h-38q0 45 -12.5 57t-63.5 15v-17q0 -63 12 -81.5t53 -20.5v-31h-252v31q55 4 70.5 20.5t15.5 75.5v20h-233v52l289 440h45z" />
    <glyph glyph-name="fiveinferior" unicode="&#x2085;" horiz-adv-x="536" 
d="M299 528h-74l-37 -141l7 -4q29 23 97 23t119.5 -51.5t51.5 -146.5t-73 -161.5t-165 -66.5t-137 30.5t-45 79.5t35 49q16 0 27.5 -11t25.5 -46t29.5 -45t44.5 -10q68 0 106.5 55t38.5 149q0 129 -86 129q-58 0 -93 -63q-17 -31 -35.5 -31t-18.5 15q0 10 4 22l86 324
q33 -15 108 -15t113 15h8q-10 -47 -46 -73t-91 -26z" />
    <glyph glyph-name="sixinferior" unicode="&#x2086;" horiz-adv-x="598" 
d="M188 219q0 -193 113 -192.5t113 164.5t-105 163q-72 0 -121 -94v-41zM137.5 58.5q-61.5 78.5 -61.5 216.5t75.5 245t182.5 107q66 0 109.5 -24.5t43.5 -59.5q0 -43 -45 -43q-27 0 -38 12t-27.5 40t-67.5 28t-90 -71t-39 -177l8 -2q50 74 136 74t144 -58.5t58 -146.5
t-66.5 -153.5t-163.5 -65.5t-158.5 78.5z" />
    <glyph glyph-name="seveninferior" unicode="&#x2087;" horiz-adv-x="487" 
d="M150 644q0 -16 11 -21t52 -5h250v-16q-122 -265 -152 -350.5t-56 -152.5q-46 -119 -93 -119t-47 45q0 23 22.5 63.5t52 94t78.5 141.5l111 213h-152q-61 0 -82 -10t-39 -56l-12 -33h-41l58 230h43q-4 -8 -4 -24z" />
    <glyph glyph-name="eightinferior" unicode="&#x2088;" horiz-adv-x="573" 
d="M391 478q0 38 -28.5 70t-79.5 32t-78 -25t-27 -59t22.5 -60t78.5 -55l38 -21q29 16 51.5 48t22.5 70zM494 162q0 -84 -63 -133t-148 -49q-129 0 -168 57t-39 96q0 108 137 170q-47 27 -82 65t-35 102t51 110q51 47 130 47q78 -1 119 -27q73 -47 73 -108q0 -62 -31 -92.5
t-76 -57.5q132 -72 132 -180zM164 139q0 -55 33 -83.5t87 -28.5t90 27.5t36 69.5t-20.5 70.5t-82.5 63.5l-49 29q-94 -50 -94 -148z" />
    <glyph glyph-name="nineinferior" unicode="&#x2089;" horiz-adv-x="598" 
d="M410 387q0 193 -113 193t-113 -164t105 -164q72 0 121 94v41zM302 627q97 0 158.5 -79t61.5 -217t-75 -244.5t-183 -106.5q-66 0 -109.5 24.5t-43.5 58.5q0 43 45 43q27 0 38 -12t27 -39.5t67 -27.5q52 0 91 70.5t39 176.5l-8 2q-50 -74 -136 -74t-144 59t-58 147
t66.5 153.5t163.5 65.5z" />
    <glyph glyph-name="Euro" unicode="&#x20ac;" horiz-adv-x="1468" 
d="M516 806v-29q0 -29 2 -44h481v-119h-477q0 -238 100.5 -387t250.5 -149q151 0 246.5 122.5t111.5 315.5h88v-516h-70l-24 141q-137 -161 -365 -161t-388.5 170t-207.5 464h-176v119h166q-2 16 -2 19v43q0 43 6 86h-172v118h184q54 287 217 442.5t402 155.5
q98 0 161.5 -25.5t145.5 -98.5l35 104h57v-442h-88q-72 364 -303 364q-152 0 -247 -125t-124 -375h473v-118h-479q-4 -46 -4 -75z" />
    <glyph glyph-name="servicemark" unicode="&#x2120;" horiz-adv-x="1632" 
d="M375 950q-98 0 -164 58l-23 -41h-20l-14 184h36q10 -70 59 -110t115 -40q130 0 130 99q0 41 -27 68.5t-118 66.5t-129 80t-38 113t51.5 120.5t125.5 48.5t137 -49l22 37h19l10 -162h-35q-43 123 -143 123q-47 0 -73 -21.5t-26 -60.5t24 -64.5t88 -53.5
q123 -55 167.5 -99.5t44.5 -120.5t-60.5 -126t-158.5 -50zM1466 1577v-41q-50 0 -66 -23.5t-16 -101.5v-299q0 -77 12.5 -97t31 -24t47.5 -4v-41h-277v41q57 0 73.5 22.5t16.5 96.5v369h-8l-240 -537h-16l-231 537h-9v-363q0 -77 12.5 -97t31 -24t46.5 -4v-41h-239v41
q59 0 74.5 20.5t15.5 98.5v311q0 72 -16.5 95.5t-65.5 23.5v41h221l189 -463h8l201 463h204z" />
    <glyph glyph-name="trademark" unicode="&#x2122;" horiz-adv-x="1814" 
d="M1649 1577v-41q-49 0 -65.5 -24.5t-16.5 -100.5v-299q0 -78 12 -97.5t30.5 -23.5t47.5 -4v-41h-277v41q57 0 73.5 22.5t16.5 96.5v369h-8l-239 -537h-17l-231 537h-8v-363q0 -81 12 -99t30.5 -22t47.5 -4v-41h-240v41q60 0 75 20.5t15 98.5v311q0 72 -16.5 95.5
t-65.5 23.5v41h222l186 -463h8l203 463h205zM403 1497q-1 35 -79 35t-103.5 -22.5t-30.5 -88.5h-40v156h618v-156h-43q-8 71 -31 91t-99 20q-75 0 -75 -35v-410q0 -59 21.5 -79.5t85.5 -20.5v-41h-330v41q63 0 84.5 20.5t21.5 79.5v410z" />
    <glyph glyph-name="onethird" unicode="&#x2153;" horiz-adv-x="1378" 
d="M1071 164q0 66 -27.5 101.5t-76.5 35.5q-29 -14 -61 -14q-32 1 -32 31t35 30q25 0 52 -10q43 0 69.5 38t26.5 101q0 104 -96 105q-82 0 -82 -64q0 -23 15 -38t42 -15q-4 -16 -23.5 -28.5t-49.5 -12.5t-53.5 25.5t-23.5 70.5t48.5 76t134.5 31t141 -40.5t55 -100.5
t-37.5 -102t-95.5 -54v-8q66 -16 110 -59t44 -113t-65 -120t-157 -50t-147 41t-55 95t26.5 83.5t60.5 29.5q72 0 81 -47q-31 0 -51.5 -19t-20.5 -53t27.5 -57.5t70.5 -23.5q115 0 115 135zM449 1102q0 -63 15 -82t71 -21v-41h-263v41q55 4 70.5 20.5t15.5 76.5v196
q0 195 -4 203q-7 27 -86 27v41q89 4 181 34v-495zM180 0h-117l1133 1577h98z" />
    <glyph glyph-name="twothirds" unicode="&#x2154;" horiz-adv-x="1384" 
d="M356 1358q-8 -53 -80 -53q-38 0 -68 34.5t-30 98.5t57.5 111.5t147.5 47.5t147.5 -49.5t57.5 -113.5q0 -107 -71.5 -191.5t-217.5 -195.5v-9h174q41 0 61.5 18.5t36.5 76.5h41l-30 -175h-412v27q259 231 284 312t25 132t-29.5 86t-77.5 35t-77 -29.5t-29 -72.5
t24.5 -66.5t65.5 -23.5zM1092 164q0 66 -28 101.5t-77 35.5q-29 -14 -61 -14q-32 1 -31 31q0 30 35 30q25 0 51 -10q43 0 69.5 38t26.5 101q0 104 -96 105q-82 0 -82 -64q0 -23 15.5 -38t41.5 -15q-4 -16 -23 -28.5t-49 -12.5t-53.5 25.5t-23.5 70.5t48 76t134 31
t141.5 -40.5t55.5 -100.5t-38 -102t-95 -54v-8q66 -16 109.5 -59t43.5 -113t-64.5 -120t-156.5 -50t-147.5 41t-55.5 95t27 83.5t61 29.5q71 0 80 -47q-31 0 -51 -19t-20 -53t27.5 -57.5t70.5 -23.5q115 0 115 135zM201 0h-117l1133 1577h98z" />
    <glyph glyph-name="oneeighth" unicode="&#x215b;" horiz-adv-x="1378" 
d="M1079 478q0 38 -28.5 70t-79.5 32t-78 -25t-27 -59t22.5 -60t78.5 -55l39 -21q29 16 51 48t22 70zM1182 162q0 -84 -63 -133t-148 -49q-129 0 -168 57t-39 96q0 108 137 170q-47 27 -82 65t-35 102t51 110q51 47 130 47q78 -1 119 -27q73 -47 73 -108q0 -62 -30.5 -92.5
t-75.5 -57.5q131 -72 131 -180zM852 139q0 -55 34 -83.5t87 -28.5t89 27.5t36 69.5t-20.5 70.5t-82.5 63.5l-49 29q-94 -50 -94 -148zM449 1102q0 -63 15 -82t71 -21v-41h-263v41q55 4 70.5 20.5t15.5 76.5v196q0 195 -4 203q-7 27 -86 27v41q89 4 181 34v-495zM180 0h-117
l1133 1577h98z" />
    <glyph glyph-name="threeeighths" unicode="&#x215c;" horiz-adv-x="1380" 
d="M475 1135q0 66 -27.5 101.5t-76.5 35.5q-29 -14 -56 -15q-37 0 -36 33q-1 29 29 29t57 -10q43 0 69.5 37.5t26.5 101.5q0 104 -96 104q-82 0 -82 -63q0 -23 15 -38t42 -15q-4 -16 -23.5 -28.5t-49.5 -12.5t-53.5 25.5t-23.5 70.5t48.5 75.5t134.5 30.5t141 -39.5
t55 -99.5t-37.5 -102.5t-95.5 -55.5v-8q66 -16 110 -59t44 -113t-65 -120t-157 -50t-147 41t-55 95t26.5 84t60.5 30q72 0 81 -47q-31 0 -51.5 -19.5t-20.5 -53.5t27.5 -57.5t70.5 -23.5q115 1 115 136zM1096 478q0 38 -29 70t-80 32t-77.5 -25t-26.5 -59t22.5 -60t77.5 -55
l39 -21q29 16 51.5 48t22.5 70zM1198 162q0 -83 -62 -132.5t-149 -49.5q-129 0 -168 57t-39 96q0 109 138 170q-47 27 -82 65t-35 102t51 110q51 47 129 47q78 -1 119 -27q74 -48 74 -109t-31 -91.5t-76 -57.5q131 -72 131 -180zM868 139q0 -55 34 -83.5t87 -28.5t89 27.5
t36 69.5t-20.5 70.5t-81.5 63.5l-49 29q-95 -51 -95 -148zM197 0h-117l1132 1577h99z" />
    <glyph glyph-name="fiveeighths" unicode="&#x215d;" horiz-adv-x="1376" 
d="M412 1499h-74l-37 -141l6 -4q29 22 97 22t119.5 -51t51.5 -146t-73 -162t-165 -67t-136.5 31t-44.5 80t34 49q16 0 28 -11.5t26 -46.5t29.5 -45t43.5 -10q68 0 107 55.5t39 149.5q0 129 -86 129q-58 1 -93 -63q-17 -30 -36 -30.5t-19 11.5t4 25l86 323q33 -14 108 -14
t114 14h8q-21 -98 -137 -98zM1090 478q0 38 -29 70t-80 32t-77.5 -25t-26.5 -59t22.5 -60t77.5 -55l39 -21q29 16 51.5 48t22.5 70zM1192 162q0 -83 -62 -132.5t-149 -49.5q-129 0 -168 57t-39 96q0 108 137 170q-116 67 -116 162q0 68 51 115t129 47q78 -1 119 -27
q73 -47 73 -108q0 -62 -30.5 -92.5t-75.5 -57.5q131 -72 131 -180zM862 139q0 -55 34 -83.5t87 -28.5t89 27.5t36 69.5t-20.5 70.5t-81.5 63.5l-50 29q-94 -50 -94 -148zM190 0h-116l1132 1577h99z" />
    <glyph glyph-name="seveneighths" unicode="&#x215e;" horiz-adv-x="1380" 
d="M330 1602q0 -16 11 -20.5t52 -4.5h250v-16q-115 -250 -148.5 -343.5t-59.5 -159.5t-47 -93t-46 -27q-47 0 -47 45q0 23 22.5 63.5t52 94t79.5 141.5l110 213h-151q-64 0 -84 -10t-37 -55l-13 -33h-41l58 229h43q-4 -8 -4 -24zM1081 478q0 38 -28.5 70t-79.5 32t-78 -25
t-27 -59t22.5 -60t78.5 -55l39 -21q29 16 51 48t22 70zM1184 162q0 -83 -62 -132.5t-149 -49.5q-129 0 -168 57t-39 96q0 108 137 170q-47 27 -82 65t-35 102t51 110q51 47 130 47q78 -1 119 -27q73 -47 73 -108q0 -62 -30.5 -92.5t-75.5 -57.5q131 -72 131 -180zM854 139
q0 -55 34 -83.5t87 -28.5t89 27.5t36 69.5t-20.5 70.5t-82.5 63.5l-49 29q-94 -50 -94 -148zM182 0h-116l1132 1577h98z" />
    <glyph glyph-name="minus" unicode="&#x2212;" horiz-adv-x="1298" 
d="M1128 641h-958v102h958v-102z" />
    <glyph glyph-name="uni2215" unicode="&#x2215;" horiz-adv-x="1150" 
d="M84 0h-129l1132 1577h111z" />
    <glyph glyph-name="uni2219" unicode="&#x2219;" horiz-adv-x="583" 
d="M158 562q0 56 39 95t95 39t95 -39t39 -95t-39 -95t-95 -39t-95 39t-39 95z" />
    <glyph glyph-name="commaaccent" unicode="&#xf6c3;" horiz-adv-x="331" 
d="M41 -238q0 45 34 76t91 31t91 -42t34 -114t-44 -130t-151 -115l-45 53q70 39 101.5 76.5t31.5 83.5q-20 -17 -57 -17t-61.5 26.5t-24.5 71.5z" />
    <glyph glyph-name="s_t" unicode="&#xfb06;" horiz-adv-x="1738" 
d="M1169 229v727h-122v76q113 0 179 68.5t66 186.5t-73.5 187.5t-204.5 69.5t-212 -77.5t-81 -211.5q0 -141 88 -225q49 -47 49 -95q0 -93 -100 -93q-37 0 -61.5 16t-64.5 68t-78 74t-102 22t-105.5 -36t-41.5 -80q0 -78 43 -126.5t150 -111.5q198 -117 267 -197.5
t69 -167.5q0 -157 -94.5 -240t-250.5 -83q-157 0 -272 92l-41 -72h-45v352h51q80 -289 291 -289q82 0 130 42t48 108t-40 106t-159 112q-198 120 -256.5 194.5t-58.5 156.5q0 153 98.5 244.5t262.5 91.5q85 0 143 -14q-27 72 -27 158q0 184 106.5 284.5t303.5 100.5
q375 0 375 -400v-194h246v-97h-275v-622q0 -143 22.5 -186.5t49 -55.5t73.5 -12q89 0 154 94l51 -39q-59 -155 -276 -155q-133 0 -204 63t-71 186z" />
    <glyph glyph-name="NULL" horiz-adv-x="0" 
 />
    <glyph glyph-name="dotaccent.cap" horiz-adv-x="337" 
d="M61 1853q0 45 32 78t77 33t78 -33t33 -78t-33 -76.5t-78 -31.5t-77 31.5t-32 76.5z" />
    <glyph glyph-name="dieresis.cap" horiz-adv-x="661" 
d="M414 1863q0 44 29.5 73.5t73.5 29.5t74 -29.5t30 -73.5t-30 -74t-74 -30t-73.5 30t-29.5 74zM41 1863q0 44 29.5 73.5t73.5 29.5t74 -29.5t30 -73.5t-30 -74t-74 -30t-73.5 30t-29.5 74z" />
    <glyph glyph-name="dotbelow" horiz-adv-x="335" 
d="M41 -344q0 53 37 90t90 37t90 -37t37 -90t-37 -90t-90 -37t-90 37t-37 90z" />
    <glyph glyph-name="acute.cap" horiz-adv-x="604" 
d="M469 1966q94 0 94 -72q0 -58 -153 -96l-246 -57h-123l266 157q111 68 162 68z" />
    <glyph glyph-name="hungarumlaut.cap" horiz-adv-x="968" 
d="M926 1894q0 -59 -154 -96l-225 -57h-123l246 157q107 68 160 68q96 0 96 -72zM543 1894q0 -59 -154 -96l-225 -57h-123l246 157q107 68 160 68q96 0 96 -72z" />
    <glyph glyph-name="tilde.cap" horiz-adv-x="780" 
d="M575.5 1872q38.5 0 59 19.5t37.5 66.5h67q-10 -104 -68.5 -173t-123.5 -69t-142 34t-119 49.5t-82 15.5t-59.5 -17.5t-33.5 -64.5h-70q16 104 76.5 168.5t128.5 64.5t140.5 -32.5t111.5 -47t77.5 -14.5z" />
    <glyph glyph-name="grave.cap" horiz-adv-x="604" 
d="M41 1896q0 34 21.5 52t72.5 18t162 -68l266 -157h-123l-245 57q-154 36 -154 98z" />
    <glyph glyph-name="breve.cap" horiz-adv-x="647" 
d="M321.5 1872q77.5 0 135 25.5t73.5 68.5h76q-8 -104 -87 -169.5t-197 -65.5t-197.5 67t-83.5 168h74q16 -43 72.5 -68.5t134 -25.5z" />
    <glyph glyph-name="circumflex.cap" horiz-adv-x="753" 
d="M489 1966l224 -223h-92l-244 110l-244 -110h-92l223 223h225z" />
    <glyph glyph-name="caron.cap" horiz-adv-x="753" 
d="M264 1743l-223 223h92l244 -111l244 111h92l-224 -223h-225z" />
    <glyph glyph-name="ring.cap" horiz-adv-x="348" 
d="M104 1832q0 -30 19.5 -49.5t49.5 -19.5t49.5 19.5t19.5 49.5t-19.5 49.5t-49.5 19.5t-49.5 -19.5t-19.5 -49.5zM41 1833q0 57 38 95t95 38t95 -38t38 -95t-38 -95t-95 -38t-95 38t-38 95z" />
    <glyph glyph-name="macron.cap" horiz-adv-x="634" 
d="M41 1802v103h553v-103h-553z" />
    <glyph glyph-name="caron.alt" horiz-adv-x="331" 
d="M127 1393q-37 0 -61.5 26.5t-24.5 71.5t34 75.5t91 30.5t91 -41.5t34 -113.5t-44 -130.5t-151 -115.5l-45 53q133 74 133 160q-20 -16 -57 -16z" />
    <glyph glyph-name="c_t" horiz-adv-x="1902" 
d="M1333 229v727h-123v76q113 0 179.5 68.5t66.5 186.5t-73.5 187.5t-204.5 69.5t-212 -78t-81 -214t110 -244q35 -39 35 -81t-27.5 -64.5t-70.5 -22.5t-67.5 17t-59.5 67q-41 47 -80 66.5t-94 19.5q-297 0 -297 -447q0 -236 84 -356.5t246 -120.5t311 143l61 -59
q-76 -90 -191.5 -140t-236.5 -50q-234 0 -371 152.5t-137 407.5t156.5 410.5t419.5 155.5q74 0 135 -12q-33 74 -33 168q0 184 106.5 284.5t303.5 100.5q375 0 375 -400v-194h245v-97h-274v-622q0 -143 22.5 -186.5t49 -55.5t73.5 -12q89 0 154 94l51 -39
q-59 -155 -276 -155q-133 0 -204 63t-71 186z" />
    <glyph glyph-name="s_p" horiz-adv-x="2228" 
d="M1278 635v-160q0 -162 19.5 -198.5t35.5 -59.5q102 -137 254 -137q217 0 264 175t47 279q0 213 -90 343.5t-237 130.5q-72 0 -135.5 -33t-98.5 -87t-47 -111.5t-12 -141.5zM1278 -184q0 -165 32.5 -201.5t79 -45.5t121.5 -9v-72h-630v72q123 0 159.5 45t36.5 196v1121
q0 156 24.5 262t61.5 200q-45 14 -85 37t-108.5 59t-160.5 36t-160.5 -66t-68.5 -154t43 -136t113 -84t96 -71.5t26 -76.5t-27.5 -63.5t-70.5 -22.5t-66.5 17.5t-62.5 68.5q-72 94 -158 94t-127 -36t-41 -80q0 -75 45.5 -126.5t189.5 -135.5q294 -171 294 -355
q0 -141 -93 -225t-251 -84t-273 92l-41 -72h-45v352h51q76 -289 293 -289q86 0 131 35t45 80t-9 71.5t-43.5 67t-151.5 115.5q-197 127 -253.5 203.5t-56.5 197.5q0 122 103.5 203.5t273.5 81.5h14q-51 66 -51 148q0 154 102.5 253t238.5 99q137 0 237 -75t131 -83
q27 133 119 133q47 0 77.5 -25.5t30.5 -70.5t-44 -82t-99 -37v-440h8q76 90 151.5 129t182.5 39t202 -43t165.5 -119t110.5 -180.5t40 -285.5t-151 -339.5t-386 -158.5q-190 0 -315 135v-299z" />
    </font>
</defs>
</svg>
